0
SECTION
2
HEADER
9
$INSUNITS
70
4
9
$ACADVER
1
AC1014
9
$HANDSEED
5
FFFF
0
ENDSEC
0
SECTION
2
TABLES
0
TABLE
2
VPORT
5
8
100
AcDbSymbolTable
0
ENDTAB
0
TABLE
2
LTYPE
5
5
100
AcDbSymbolTable
0
LTYPE
5
14
100
AcDbSymbolTableRecord
100
AcDbLinetypeTableRecord
2
BYBLOCK
70
0
0
LTYPE
5
15
100
AcDbSymbolTableRecord
100
AcDbLinetypeTableRecord
2
BYLAYER
70
0
0
ENDTAB
0
TABLE
2
LAYER
5
2
100
AcDbSymbolTable
70
2
0
LAYER
5
50
100
AcDbSymbolTableRecord
100
AcDbLayerTableRecord
2
0
70
0
6
CONTINUOUS
0
ENDTAB
0
TABLE
2
STYLE
5
3
100
AcDbSymbolTable
70
1
0
STYLE
5
11
100
AcDbSymbolTableRecord
100
AcDbTextStyleTableRecord
2
STANDARD
70
0
0
ENDTAB
0
TABLE
2
VIEW
5
6
100
AcDbSymbolTable
70
0
0
ENDTAB
0
TABLE
2
UCS
5
7
100
AcDbSymbolTable
70
0
0
ENDTAB
0
TABLE
2
APPID
5
9
100
AcDbSymbolTable
70
2
0
APPID
5
12
100
AcDbSymbolTableRecord
100
AcDbRegAppTableRecord
2
ACAD
70
0
0
ENDTAB
0
TABLE
2
DIMSTYLE
5
A
100
AcDbSymbolTable
70
1
0
ENDTAB
0
TABLE
2
BLOCK_RECORD
5
1
100
AcDbSymbolTable
70
1
0
BLOCK_RECORD
5
1F
100
AcDbSymbolTableRecord
100
AcDbBlockTableRecord
2
*MODEL_SPACE
0
BLOCK_RECORD
5
1B
100
AcDbSymbolTableRecord
100
AcDbBlockTableRecord
2
*PAPER_SPACE
0
ENDTAB
0
ENDSEC
0
SECTION
2
BLOCKS
0
BLOCK
5
20
100
AcDbEntity
100
AcDbBlockBegin
2
*MODEL_SPACE
0
ENDBLK
5
21
100
AcDbEntity
100
AcDbBlockEnd
0
BLOCK
5
1C
100
AcDbEntity
100
AcDbBlockBegin
2
*PAPER_SPACE
0
ENDBLK
5
1D
100
AcDbEntity
100
AcDbBlockEnd
0
ENDSEC
0
SECTION
2
ENTITIES
0
CIRCLE
5
100
100
AcDbEntity
8
0
100
AcDbCircle
10
0
20
0
30
0
40
25
210
0
220
0
230
1
0
LINE
5
101
100
AcDbEntity
8
0
100
AcDbLine
10
50
20
25
30
0
11
50
21
-25
31
0
0
ELLIPSE
5
102
100
AcDbEntity
8
0
100
AcDbEllipse
10
100
20
0
30
0
11
-30
21
0
31
0.0
40
0.33333333333333331
41
0
42
6.2831853071795862
0
ARC
5
103
100
AcDbEntity
8
0
100
AcDbCircle
10
185
20
-5
30
0
40
35.355339059327378
210
0
220
0
230
1
100
AcDbArc
50
98.130102354155994
51
171.86989764584405
0
LWPOLYLINE
5
104
100
AcDbEntity
8
0
100
AcDbPolyline
90
12
70
1
43
0.0
10
201.10504776239395
20
10
10
201.10504776239395
20
0
10
208.5675311088562
20
0
10
208.5675311088562
20
1.1800813674926758
10
202.42837652564049
20
1.1800813674926758
10
202.42837652564049
20
4.5839017629623413
10
207.96043634414673
20
4.5839017629623413
10
207.96043634414673
20
5.7571625709533691
10
202.42837652564049
20
5.7571625709533691
10
202.42837652564049
20
8.8199180364608765
10
208.33560705184937
20
8.8199180364608765
10
208.33560705184937
20
10
0
LINE
5
105
100
AcDbEntity
8
0
100
AcDbLine
10
209.42019116133451
20
0
30
0
11
212.06684857606888
21
3.7653481960296631
31
0
0
LINE
5
106
100
AcDbEntity
8
0
100
AcDbLine
10
212.06684857606888
20
3.7653481960296631
30
0
11
209.61800836026669
21
7.2442018985748291
31
0
0
LINE
5
107
100
AcDbEntity
8
0
100
AcDbLine
10
209.61800836026669
20
7.2442018985748291
30
0
11
211.1527968943119
21
7.2442018985748291
31
0
0
LINE
5
108
100
AcDbEntity
8
0
100
AcDbLine
10
211.1527968943119
20
7.2442018985748291
30
0
11
212.26466596126556
21
5.5457025766372681
31
0
0
SPLINE
5
109
100
AcDbEntity
8
0
100
AcDbSpline
70
0
71
3
72
9
73
5
74
3
42
0.000000001
43
0.0000000001
44
0.0000000001
40
0
40
0
40
0
40
0
40
0.052748458491440886
40
0.095594088468901106
40
0.095594088468901106
40
0.095594088468901106
40
0.095594088468901106
10
212.26466596126556
20
5.5457025766372681
30
0
10
212.35996061773818
20
5.3979187327675158
30
0
10
212.5326596137275
20
5.1300955157639017
30
0
10
212.69615946312706
20
4.8565667754102781
30
0
10
212.76944071054459
20
4.7339701652526855
30
0
11
212.26466596126556
21
5.5457025766372681
31
0
11
212.54774898290634
21
5.1006138324737549
31
0
11
212.76944071054459
21
4.7339701652526855
31
0
0
SPLINE
5
110
100
AcDbEntity
8
0
100
AcDbSpline
70
0
71
3
72
9
73
5
74
3
42
0.000000001
43
0.0000000001
44
0.0000000001
40
0
40
0
40
0
40
0
40
0.051319105886061853
40
0.097073218771721648
40
0.097073218771721648
40
0.097073218771721648
40
0.097073218771721648
10
212.76944071054459
20
4.7339701652526855
30
0
10
212.86477814298632
20
4.8760170680463277
30
0
10
213.04511471114665
20
5.1447074482206601
30
0
10
213.23327704099694
20
5.4079734795975352
30
0
10
213.32196474075317
20
5.5320602655410767
30
0
11
212.76944071054459
21
4.7339701652526855
31
0
11
213.05764019489288
21
5.1585948467254639
31
0
11
213.32196474075317
21
5.5320602655410767
31
0
0
LINE
5
111
100
AcDbEntity
8
0
100
AcDbLine
10
213.32196474075317
20
5.5320602655410767
30
0
11
214.54297423362732
21
7.2442018985748291
31
0
0
LINE
5
112
100
AcDbEntity
8
0
100
AcDbLine
10
214.54297423362732
20
7.2442018985748291
30
0
11
216.00955009460449
21
7.2442018985748291
31
0
0
LINE
5
113
100
AcDbEntity
8
0
100
AcDbLine
10
216.00955009460449
20
7.2442018985748291
30
0
11
213.50613921880722
21
3.8335609436035156
31
0
0
LINE
5
114
100
AcDbEntity
8
0
100
AcDbLine
10
213.50613921880722
20
3.8335609436035156
30
0
11
216.20054602622986
21
0
31
0
0
LINE
5
115
100
AcDbEntity
8
0
100
AcDbLine
10
216.20054602622986
20
0
30
0
11
214.69304263591766
21
0
31
0
0
LINE
5
116
100
AcDbEntity
8
0
100
AcDbLine
10
214.69304263591766
20
0
30
0
11
213.20600271224976
21
2.2510230541229248
31
0
0
LINE
5
117
100
AcDbEntity
8
0
100
AcDbLine
10
213.20600271224976
20
2.2510230541229248
30
0
11
212.81036853790283
21
2.8581172227859497
31
0
0
LINE
5
118
100
AcDbEntity
8
0
100
AcDbLine
10
212.81036853790283
20
2.8581172227859497
30
0
11
210.9072308242321
21
0
31
0
0
LINE
5
119
100
AcDbEntity
8
0
100
AcDbLine
10
210.9072308242321
20
0
30
0
11
209.42019116133451
21
0
31
0
0
SPLINE
5
120
100
AcDbEntity
8
0
100
AcDbSpline
70
0
71
3
72
9
73
5
74
3
42
0.000000001
43
0.0000000001
44
0.0000000001
40
0
40
0
40
0
40
0
40
0.08322183541260865
40
0.15529182841374092
40
0.15529182841374092
40
0.15529182841374092
40
0.15529182841374092
10
221.95088744163513
20
0.89358806610107422
30
0
10
221.73438698808371
20
0.71798678256066228
30
0
10
221.330397444742
20
0.39031503322239924
30
0
10
220.85733525126039
20
0.17497288451437276
30
0
10
220.6377899646759
20
0.075033903121948242
30
0
11
221.95088744163513
21
0.89358806610107422
31
0
11
221.28154873847961
21
0.39904475212097168
31
0
11
220.6377899646759
21
0.075033903121948242
31
0
0
SPLINE
5
121
100
AcDbEntity
8
0
100
AcDbSpline
70
0
71
3
72
9
73
5
74
3
42
0.000000001
43
0.0000000001
44
0.0000000001
40
0
40
0
40
0
40
0
40
0.06780603880977415
40
0.13806341202791084
40
0.13806341202791084
40
0.13806341202791084
40
0.13806341202791084
10
220.6377899646759
20
0.075033903121948242
30
0
10
220.42156269781424
20
0.0054057507520366421
30
0
10
219.9812910824771
20
-0.13636776172755383
30
0
10
219.51901001789071
20
-0.15448954198438836
30
0
10
219.2837655544281
20
-0.1637113094329834
30
0
11
220.6377899646759
21
0.075033903121948242
31
0
11
219.98379945755005
21
-0.10402560234069824
31
0
11
219.2837655544281
21
-0.1637113094329834
31
0
0
SPLINE
5
122
100
AcDbEntity
8
0
100
AcDbSpline
70
0
71
3
72
9
73
5
74
3
42
0.000000001
43
0.0000000001
44
0.0000000001
40
0
40
0
40
0
40
0
40
0.10656156347519567
40
0.19593103053435462
40
0.19593103053435462
40
0.19593103053435462
40
0.19593103053435462
10
219.2837655544281
20
-0.1637113094329834
30
0
10
218.92044879845801
20
-0.14917036068417877
30
0
10
218.25243094956278
20
-0.12243442532073434
30
0
10
217.70056269510252
20
0.24974724001080695
30
0
10
217.44884058833122
20
0.4195094108581543
30
0
11
219.2837655544281
21
-0.1637113094329834
31
0
11
218.22817206382751
21
-0.017906427383422852
31
0
11
217.44884058833122
21
0.4195094108581543
31
0
0
SPLINE
5
123
100
AcDbEntity
8
0
100
AcDbSpline
70
0
71
3
72
9
73
5
74
3
42
0.000000001
43
0.0000000001
44
0.0000000001
40
0
40
0
40
0
40
0
40
0.082003438098789239
40
0.16616686767494165
40
0.16616686767494165
40
0.16616686767494165
40
0.16616686767494165
10
217.44884058833122
20
0.4195094108581543
30
0
10
217.26183267634636
20
0.62933593698899282
30
0
10
216.88289101627205
20
1.0545158734725391
30
0
10
216.83294013866498
20
1.6223510852744405
30
0
10
216.80764004588127
20
1.9099593162536621
30
0
11
217.44884058833122
21
0.4195094108581543
31
0
11
216.96794018149376
21
1.0837316513061523
31
0
11
216.80764004588127
21
1.9099593162536621
31
0
0
SPLINE
5
124
100
AcDbEntity
8
0
100
AcDbSpline
70
0
71
3
72
9
73
5
74
3
42
0.000000001
43
0.0000000001
44
0.0000000001
40
0
40
0
40
0
40
0
40
0.051262521551199591
40
0.10099667212433835
40
0.10099667212433835
40
0.10099667212433835
40
0.10099667212433835
10
216.80764004588127
20
1.9099593162536621
30
0
10
216.8171050295332
20
2.082330027673418
30
0
10
216.83575280224562
20
2.4219322887075823
30
0
10
216.97917140525993
20
2.7301936328458885
30
0
10
217.04979553818703
20
2.8819918632507324
30
0
11
216.80764004588127
21
1.9099593162536621
31
0
11
216.86817891895771
21
2.4189972877502441
31
0
11
217.04979553818703
21
2.8819918632507324
31
0
0
SPLINE
5
125
100
AcDbEntity
8
0
100
AcDbSpline
70
0
71
3
72
9
73
5
74
3
42
0.000000001
43
0.0000000001
44
0.0000000001
40
0
40
0
40
0
40
0
40
0.048520023253944722
40
0.095596167835120177
40
0.095596167835120177
40
0.095596167835120177
40
0.095596167835120177
10
217.04979553818703
20
2.8819918632507324
30
0
10
217.13575215781253
20
3.0207085828777878
30
0
10
217.30510746486291
20
3.2940140333224588
30
0
10
217.55909775695213
20
3.4909927797544151
30
0
10
217.68417477607727
20
3.5879945755004883
30
0
11
217.04979553818703
21
2.8819918632507324
31
0
11
217.32946813106537
21
3.2784795761108398
31
0
11
217.68417477607727
21
3.5879945755004883
31
0
0
SPLINE
5
126
100
AcDbEntity
8
0
100
AcDbSpline
70
0
71
3
72
9
73
5
74
3
42
0.000000001
43
0.0000000001
44
0.0000000001
40
0
40
0
40
0
40
0
40
0.047794396148836307
40
0.097396444506863245
40
0.097396444506863245
40
0.097396444506863245
40
0.097396444506863245
10
217.68417477607727
20
3.5879945755004883
30
0
10
217.82050383897311
20
3.6716739781172416
30
0
10
218.09831812430599
20
3.8421976576705941
30
0
10
218.40920336542507
20
3.9404247995762534
30
0
10
218.56753095984459
20
3.9904499053955078
30
0
11
217.68417477607727
21
3.5879945755004883
31
0
11
218.10112565755844
21
3.8216233253479004
31
0
11
218.56753095984459
21
3.9904499053955078
31
0
0
SPLINE
5
127
100
AcDbEntity
8
0
100
AcDbSpline
70
0
71
3
72
9
73
5
74
3
42
0.000000001
43
0.0000000001
44
0.0000000001
40
0
40
0
40
0
40
0
40
0.04632104713412008
40
0.11073726891779362
40
0.11073726891779362
40
0.11073726891779362
40
0.11073726891779362
10
218.56753095984459
20
3.9904499053955078
30
0
10
218.7183865915556
20
4.0237219440890044
30
0
10
219.07902914370203
20
4.1032636410972074
30
0
10
219.44566374666431
20
4.1483802224834836
30
0
10
219.65893626213074
20
4.1746246814727783
30
0
11
218.56753095984459
21
3.9904499053955078
31
0
11
219.02114629745483
21
4.084242582321167
31
0
11
219.65893626213074
21
4.1746246814727783
31
0
0
SPLINE
5
128
100
AcDbEntity
8
0
100
AcDbSpline
70
0
71
3
72
9
73
5
74
3
42
0.000000001
43
0.0000000001
44
0.0000000001
40
0
40
0
40
0
40
0
40
0.13054837329097166
40
0.2232784746040416
40
0.2232784746040416
40
0.2232784746040416
40
0.2232784746040416
10
219.65893626213074
20
4.1746246814727783
30
0
10
220.09175021245204
20
4.2270215134276352
30
0
10
220.83199718894792
20
4.3166364539898527
30
0
10
221.55026351379686
20
4.5151144788849082
30
0
10
221.84856772422791
20
4.5975446701049805
30
0
11
219.65893626213074
21
4.1746246814727783
31
0
11
220.94986379146576
21
4.3690311908721924
31
0
11
221.84856772422791
21
4.5975446701049805
31
0
0
SPLINE
5
129
100
AcDbEntity
8
0
100
AcDbSpline
70
0
71
3
72
9
73
5
74
3
42
0.000000001
43
0.0000000001
44
0.0000000001
40
0
40
0
40
0
40
0
40
0.020640694060131689
40
0.032067641417661046
40
0.032067641417661046
40
0.032067641417661046
40
0.032067641417661046
10
221.84856772422791
20
4.5975446701049805
30
0
10
221.85049126755092
20
4.6663215125268547
30
0
10
221.85347970860596
20
4.7731740783465124
30
0
10
221.85488773962811
20
4.8800580329044108
30
0
10
221.85538947582245
20
4.9181449413299561
30
0
11
221.84856772422791
21
4.5975446701049805
31
0
11
221.85368359088898
21
4.803888201713562
31
0
11
221.85538947582245
21
4.9181449413299561
31
0
0
SPLINE
5
130
100
AcDbEntity
8
0
100
AcDbSpline
70
0
71
3
72
9
73
5
74
3
42
0.000000001
43
0.0000000001
44
0.0000000001
40
0
40
0
40
0
40
0
40
0.064538164098682529
40
0.11379633033663936
40
0.11379633033663936
40
0.11379633033663936
40
0.11379633033663936
10
221.85538947582245
20
4.9181449413299561
30
0
10
221.85049090725371
20
5.1400141326193083
30
0
10
221.84185355081803
20
5.5312229644181254
30
0
10
221.60850934926376
20
5.8412462572409396
30
0
10
221.50750339031219
20
5.9754437208175659
30
0
11
221.85538947582245
21
4.9181449413299561
31
0
11
221.76841795444489
21
5.5576395988464355
31
0
11
221.50750339031219
21
5.9754437208175659
31
0
0
SPLINE
5
131
100
AcDbEntity
8
0
100
AcDbSpline
70
0
71
3
72
9
73
5
74
3
42
0.000000001
43
0.0000000001
44
0.0000000001
40
0
40
0
40
0
40
0
40
0.066296841177351504
40
0.14830305863374704
40
0.14830305863374704
40
0.14830305863374704
40
0.14830305863374704
10
221.50750339031219
20
5.9754437208175659
30
0
10
221.31794415567225
20
6.0964539684340959
30
0
10
220.89390865427981
20
6.367148462000543
30
0
10
220.38857311476775
20
6.3828561664726937
30
0
10
220.10914087295532
20
6.3915419578552246
30
0
11
221.50750339031219
21
5.9754437208175659
31
0
11
220.92257857322693
21
6.2875175476074219
31
0
11
220.10914087295532
21
6.3915419578552246
31
0
0
SPLINE
5
132
100
AcDbEntity
8
0
100
AcDbSpline
70
0
71
3
72
9
73
5
74
3
42
0.000000001
43
0.0000000001
44
0.0000000001
40
0
40
0
40
0
40
0
40
0.075671381241345995
40
0.13299515820271182
40
0.13299515820271182
40
0.13299515820271182
40
0.13299515820271182
10
220.10914087295532
20
6.3915419578552246
30
0
10
219.8526344118182
20
6.3875489848109392
30
0
10
219.40181513484291
20
6.3805311919147023
30
0
10
219.00233493426111
20
6.1761061642812063
30
0
10
218.83015036582947
20
6.0879945755004883
30
0
11
220.10914087295532
21
6.3915419578552246
31
0
11
219.35624182224274
21
6.3156551122665405
31
0
11
218.83015036582947
21
6.0879945755004883
31
0
0
SPLINE
5
133
100
AcDbEntity
8
0
100
AcDbSpline
70
0
71
3
72
9
73
5
74
3
42
0.000000001
43
0.0000000001
44
0.0000000001
40
0
40
0
40
0
40
0
40
0.055277751259654874
40
0.12534724382729945
40
0.12534724382729945
40
0.12534724382729945
40
0.12534724382729945
10
218.83015036582947
20
6.0879945755004883
30
0
10
218.69869449668531
20
5.9548986290328827
30
0
10
218.40060655883235
20
5.653091669195927
30
0
10
218.28453168164501
20
5.2429264941406739
30
0
10
218.21964547038078
20
5.0136429071426392
30
0
11
218.83015036582947
21
6.0879945755004883
31
0
11
218.47118034958839
21
5.6676334142684937
31
0
11
218.21964547038078
21
5.0136429071426392
31
0
0
LINE
5
134
100
AcDbEntity
8
0
100
AcDbLine
10
218.21964547038078
20
5.0136429071426392
30
0
11
217.01909981667995
21
5.1773536205291748
31
0
0
SPLINE
5
135
100
AcDbEntity
8
0
100
AcDbSpline
70
0
71
3
72
9
73
5
74
3
42
0.000000001
43
0.0000000001
44
0.0000000001
40
0
40
0
40
0
40
0
40
0.07295129172483214
40
0.13654930581574687
40
0.13654930581574687
40
0.13654930581574687
40
0.13654930581574687
10
217.01909981667995
20
5.1773536205291748
30
0
10
217.07765672954298
20
5.4155922186622627
30
0
10
217.18726281893649
20
5.8615242155389744
30
0
10
217.44018307910866
20
6.2440676563206932
30
0
10
217.55798101425171
20
6.422237753868103
30
0
11
217.01909981667995
21
5.1773536205291748
31
0
11
217.23567552864552
21
5.8739769458770752
31
0
11
217.55798101425171
21
6.422237753868103
31
0
0
SPLINE
5
136
100
AcDbEntity
8
0
100
AcDbSpline
70
0
71
3
72
9
73
5
74
3
42
0.000000001
43
0.0000000001
44
0.0000000001
40
0
40
0
40
0
40
0
40
0.062162858701117471
40
0.13202127207338815
40
0.13202127207338815
40
0.13202127207338815
40
0.13202127207338815
10
217.55798101425171
20
6.422237753868103
30
0
10
217.70318688320603
20
6.573322025638026
30
0
10
218.01157462360973
20
6.8941942983443019
30
0
10
218.4242172010666
20
7.0628638424435142
30
0
10
218.64256501197815
20
7.1521145105361938
30
0
11
217.55798101425171
21
6.422237753868103
31
0
11
218.01671236753464
21
6.8417465686798096
31
0
11
218.64256501197815
21
7.1521145105361938
31
0
0
SPLINE
5
137
100
AcDbEntity
8
0
100
AcDbSpline
70
0
71
3
72
9
73
5
74
3
42
0.000000001
43
0.0000000001
44
0.0000000001
40
0
40
0
40
0
40
0
40
0.078935760595288881
40
0.16699226798079223
40
0.16699226798079223
40
0.16699226798079223
40
0.16699226798079223
10
218.64256501197815
20
7.1521145105361938
30
0
10
218.89609423836117
20
7.226661850175093
30
0
10
219.43244709280677
20
7.3843702097874218
30
0
10
219.99163116519566
20
7.3997845129029578
30
0
10
220.28649389743805
20
7.4079126119613647
30
0
11
218.64256501197815
21
7.1521145105361938
31
0
11
219.40825402736664
21
7.3439627885818481
31
0
11
220.28649389743805
21
7.4079126119613647
31
0
0
SPLINE
5
138
100
AcDbEntity
8
0
100
AcDbSpline
70
0
71
3
72
9
73
5
74
3
42
0.000000001
43
0.0000000001
44
0.0000000001
40
0
40
0
40
0
40
0
40
0.084249207307451571
40
0.15290760740623313
40
0.15290760740623313
40
0.15290760740623313
40
0.15290760740623313
10
220.28649389743805
20
7.4079126119613647
30
0
10
220.56880392556542
20
7.4031589548643932
30
0
10
221.08118086449866
20
7.3945313326426776
30
0
10
221.57311126044084
20
7.2531253953521766
30
0
10
221.79399728775024
20
7.189631462097168
30
0
11
220.28649389743805
21
7.4079126119613647
31
0
11
221.12721681594849
21
7.3533427715301514
31
0
11
221.79399728775024
21
7.189631462097168
31
0
0
SPLINE
5
139
100
AcDbEntity
8
0
100
AcDbSpline
70
0
71
3
72
9
73
5
74
3
42
0.000000001
43
0.0000000001
44
0.0000000001
40
0
40
0
40
0
40
0
40
0.056017976105824568
40
0.1022605578078716
40
0.1022605578078716
40
0.1022605578078716
40
0.1022605578078716
10
221.79399728775024
20
7.189631462097168
30
0
10
221.96895260140107
20
7.1184718734090602
30
0
10
222.28833272201786
20
6.988570371454081
30
0
10
222.5350785145915
20
6.748898682999692
30
0
10
222.6466578245163
20
6.6405183076858521
30
0
11
221.79399728775024
21
7.189631462097168
31
0
11
222.29706704616547
21
6.9432127475738525
31
0
11
222.6466578245163
21
6.6405183076858521
31
0
0
SPLINE
5
140
100
AcDbEntity
8
0
100
AcDbSpline
70
0
71
3
72
9
73
5
74
3
42
0.000000001
43
0.0000000001
44
0.0000000001
40
0
40
0
40
0
40
0
40
0.044034368121923712
40
0.092542939778406705
40
0.092542939778406705
40
0.092542939778406705
40
0.092542939778406705
10
222.6466578245163
20
6.6405183076858521
30
0
10
222.73155509934267
20
6.519268765815581
30
0
10
222.90997581313266
20
6.2644498702567475
30
0
10
222.98783693721305
20
5.9629497027822751
30
0
10
223.02864968776703
20
5.8049112558364868
30
0
11
222.6466578245163
21
6.6405183076858521
31
0
11
222.87858188152313
21
6.2662005424499512
31
0
11
223.02864968776703
21
5.8049112558364868
31
0
0
SPLINE
5
141
100
AcDbEntity
8
0
100
AcDbSpline
70
0
71
3
72
9
73
5
74
3
42
0.000000001
43
0.0000000001
44
0.0000000001
40
0
40
0
40
0
40
0
40
0.044237555001676053
40
0.11349054532334588
40
0.11349054532334588
40
0.11349054532334588
40
0.11349054532334588
10
223.02864968776703
20
5.8049112558364868
30
0
10
223.04635177309467
20
5.658402661065681
30
0
10
223.09176611204535
20
5.2825378485898149
30
0
10
223.090694926943
20
4.9037304092917298
30
0
10
223.09004127979279
20
4.6725785732269287
30
0
11
223.02864968776703
21
5.8049112558364868
31
0
11
223.07469308376312
21
5.3649383783340454
31
0
11
223.09004127979279
21
4.6725785732269287
31
0
0
LINE
5
142
100
AcDbEntity
8
0
100
AcDbLine
10
223.09004127979279
20
4.6725785732269287
30
0
11
223.09004127979279
21
3.0354708433151245
31
0
0
SPLINE
5
143
100
AcDbEntity
8
0
100
AcDbSpline
70
0
71
3
72
9
73
5
74
3
42
0.000000001
43
0.0000000001
44
0.0000000001
40
0
40
0
40
0
40
0
40
0.13976477646058186
40
0.21681439364123134
40
0.21681439364123134
40
0.21681439364123134
40
0.21681439364123134
10
223.09004127979279
20
3.0354708433151245
30
0
10
223.08721925564106
20
2.569210497274903
30
0
10
223.08284150417333
20
1.8459098433782284
30
0
10
223.14603072126994
20
1.1256674953477308
30
0
10
223.16848635673523
20
0.86971402168273926
30
0
11
223.09004127979279
21
3.0354708433151245
31
0
11
223.10965240001678
21
1.63796067237854
31
0
11
223.16848635673523
21
0.86971402168273926
31
0
0
SPLINE
5
144
100
AcDbEntity
8
0
100
AcDbSpline
70
0
71
3
72
9
73
5
74
3
42
0.000000001
43
0.0000000001
44
0.0000000001
40
0
40
0
40
0
40
0
40
0.045933761624538723
40
0.092677178161499868
40
0.092677178161499868
40
0.092677178161499868
40
0.092677178161499868
10
223.16848635673523
20
0.86971402168273926
30
0
10
223.20136235892681
20
0.71947715908804888
30
0
10
223.26769385464135
20
0.4163552725131292
30
0
10
223.40805872775761
20
0.13959105519907977
30
0
10
223.47885429859161
20
0
30
0
11
223.16848635673523
21
0.86971402168273926
31
0
11
223.28530073165894
21
0.42547821998596191
31
0
11
223.47885429859161
21
0
31
0
0
LINE
5
145
100
AcDbEntity
8
0
100
AcDbLine
10
223.47885429859161
20
2.5381987465352901e-17
30
0
11
222.19645321369171
21
0
31
0
0
SPLINE
5
146
100
AcDbEntity
8
0
100
AcDbSpline
70
0
71
3
72
9
73
5
74
3
42
0.000000001
43
0.0000000001
44
0.0000000001
40
0
40
0
40
0
40
0
40
0.044309801267407627
40
0.093042893928924286
40
0.093042893928924286
40
0.093042893928924286
40
0.093042893928924286
10
222.19645321369171
20
0
30
0
10
222.13810364672224
20
0.13643975504170403
30
0
10
222.01557968102949
20
0.42293956530763177
30
0
10
221.97312430256417
20
0.73181062020377885
30
0
10
221.95088744163513
20
0.89358806610107422
30
0
11
222.19645321369171
21
0
31
0
11
222.03956365585327
21
0.41439294815063477
31
0
11
221.95088744163513
21
0.89358806610107422
31
0
0
SPLINE
5
147
100
AcDbEntity
8
0
100
AcDbSpline
70
0
71
3
72
9
73
5
74
3
42
0.000000001
43
0.0000000001
44
0.0000000001
40
0
40
0
40
0
40
0
40
0.087289140568891324
40
0.20616991870271326
40
0.20616991870271326
40
0.20616991870271326
40
0.20616991870271326
10
221.84856772422791
20
3.6357438564300537
30
0
10
221.57168060758397
20
3.5447611303913251
30
0
10
220.91769554190154
20
3.3298672603348143
30
0
10
220.23611840698479
20
3.229671037294203
30
0
10
219.84311044216156
20
3.1718963384628296
30
0
11
221.84856772422791
21
3.6357438564300537
31
0
11
221.01296037435532
21
3.3833557367324829
31
0
11
219.84311044216156
21
3.1718963384628296
31
0
0
SPLINE
5
148
100
AcDbEntity
8
0
100
AcDbSpline
70
0
71
3
72
9
73
5
74
3
42
0.000000001
43
0.0000000001
44
0.0000000001
40
0
40
0
40
0
40
0
40
0.065663685131405747
40
0.1100600143669303
40
0.1100600143669303
40
0.1100600143669303
40
0.1100600143669303
10
219.84311044216156
20
3.1718963384628296
30
0
10
219.62585374458837
20
3.1407726114892975
30
0
10
219.26170611552422
20
3.0886056057690969
30
0
10
218.91287989047927
20
2.9729742710688676
30
0
10
218.77216935157776
20
2.92633056640625
30
0
11
219.84311044216156
21
3.1718963384628296
31
0
11
219.19679403305054
21
3.0559349060058594
31
0
11
218.77216935157776
21
2.92633056640625
31
0
0
SPLINE
5
149
100
AcDbEntity
8
0
100
AcDbSpline
70
0
71
3
72
9
73
5
74
3
42
0.000000001
43
0.0000000001
44
0.0000000001
40
0
40
0
40
0
40
0
40
0.03247785128517542
40
0.063457096037758537
40
0.063457096037758537
40
0.063457096037758537
40
0.063457096037758537
10
218.77216935157776
20
2.92633056640625
30
0
10
218.67425552750598
20
2.8766748450112223
30
0
10
218.4829458597884
20
2.779654637186495
30
0
10
218.35185558602117
20
2.6100738116509903
30
0
10
218.28785836696625
20
2.5272858142852783
30
0
11
218.77216935157776
21
2.92633056640625
31
0
11
218.49420219659805
21
2.7583563327789307
31
0
11
218.28785836696625
21
2.5272858142852783
31
0
0
SPLINE
5
150
100
AcDbEntity
8
0
100
AcDbSpline
70
0
71
3
72
9
73
5
74
3
42
0.000000001
43
0.0000000001
44
0.0000000001
40
0
40
0
40
0
40
0
40
0.030520634225491464
40
0.061426657804178789
40
0.061426657804178789
40
0.061426657804178789
40
0.061426657804178789
10
218.28785836696625
20
2.5272858142852783
30
0
10
218.23812047327573
20
2.4369987386943137
30
0
10
218.13801663686601
20
2.255284516915983
30
0
10
218.12425189818029
20
2.0482379034361586
30
0
10
218.11732634902
20
1.9440650939941406
30
0
11
218.28785836696625
21
2.5272858142852783
31
0
11
218.15995946526527
21
2.2501707077026367
31
0
11
218.11732634902
21
1.9440650939941406
31
0
0
SPLINE
5
151
100
AcDbEntity
8
0
100
AcDbSpline
70
0
71
3
72
9
73
5
74
3
42
0.000000001
43
0.0000000001
44
0.0000000001
40
0
40
0
40
0
40
0
40
0.045969657403249979
40
0.092167271650919952
40
0.092167271650919952
40
0.092167271650919952
40
0.092167271650919952
10
218.11732634902
20
1.9440650939941406
30
0
10
218.13296898297966
20
1.7870419126537396
30
0
10
218.1643318204454
20
1.4722168948569081
30
0
10
218.38065638261878
20
1.2412707796418077
30
0
10
218.48908618092537
20
1.1255121231079102
30
0
11
218.11732634902
21
1.9440650939941406
31
0
11
218.21026623249054
21
1.4938616752624512
31
0
11
218.48908618092537
21
1.1255121231079102
31
0
0
SPLINE
5
152
100
AcDbEntity
8
0
100
AcDbSpline
70
0
71
3
72
9
73
5
74
3
42
0.000000001
43
0.0000000001
44
0.0000000001
40
0
40
0
40
0
40
0
40
0.051957309608039043
40
0.11549834013540064
40
0.11549834013540064
40
0.11549834013540064
40
0.11549834013540064
10
218.48908618092537
20
1.1255121231079102
30
0
10
218.63741137337439
20
1.0302630179304417
30
0
10
218.96713039957802
20
0.8185293151969586
30
0
10
219.36060942215022
20
0.80534358834120079
30
0
10
219.57708060741425
20
0.79808950424194336
30
0
11
218.48908618092537
21
1.1255121231079102
31
0
11
218.94696474075317
21
0.8799445629119873
31
0
11
219.57708060741425
21
0.79808950424194336
31
0
0
SPLINE
5
153
100
AcDbEntity
8
0
100
AcDbSpline
70
0
71
3
72
9
73
5
74
3
42
0.000000001
43
0.0000000001
44
0.0000000001
40
0
40
0
40
0
40
0
40
0.067466775694708894
40
0.13105520668154769
40
0.13105520668154769
40
0.13105520668154769
40
0.13105520668154769
10
219.57708060741425
20
0.79808950424194336
30
0
10
219.8041114920679
20
0.80942070205959338
30
0
10
220.24512233340431
20
0.8314317209151767
30
0
10
220.64499745822491
20
1.0179558848687309
30
0
10
220.83901822566986
20
1.1084580421447754
30
0
11
219.57708060741425
21
0.79808950424194336
31
0
11
220.24727165699005
21
0.87568163871765137
31
0
11
220.83901822566986
21
1.1084580421447754
31
0
0
SPLINE
5
154
100
AcDbEntity
8
0
100
AcDbSpline
70
0
71
3
72
9
73
5
74
3
42
0.000000001
43
0.0000000001
44
0.0000000001
40
0
40
0
40
0
40
0
40
0.060388919289056611
40
0.11892671401095566
40
0.11892671401095566
40
0.11892671401095566
40
0.11892671401095566
10
220.83901822566986
20
1.1084580421447754
30
0
10
221.01027169627801
20
1.2199982732521453
30
0
10
221.3475291395668
20
1.439659650236349
30
0
10
221.5507311013065
20
1.786826863540798
30
0
10
221.65075063705444
20
1.9577085971832275
30
0
11
220.83901822566986
21
1.1084580421447754
31
0
11
221.3182133436203
21
1.4759552478790283
31
0
11
221.65075063705444
21
1.9577085971832275
31
0
0
SPLINE
5
155
100
AcDbEntity
8
0
100
AcDbSpline
70
0
71
3
72
9
73
5
74
3
42
0.000000001
43
0.0000000001
44
0.0000000001
40
0
40
0
40
0
40
0
40
0.053595094985041919
40
0.12504882973544057
40
0.12504882973544057
40
0.12504882973544057
40
0.12504882973544057
10
221.65075063705444
20
1.9577085971832275
30
0
10
221.70815294947278
20
2.1279732419610364
30
0
10
221.8420848324935
20
2.5252371068861335
30
0
10
221.84621036656381
20
2.9454352347564283
30
0
10
221.84856772422791
20
3.1855392456054688
30
0
11
221.65075063705444
21
1.9577085971832275
31
0
11
221.79911315441132
21
2.4727153778076172
31
0
11
221.84856772422791
21
3.1855392456054688
31
0
0
LINE
5
156
100
AcDbEntity
8
0
100
AcDbLine
10
221.84856772422793
20
3.1855392456054692
30
0
11
221.84856772422791
21
3.6357438564300537
31
0
0
LINE
5
157
100
AcDbEntity
8
0
100
AcDbLine
10
224.99317869544029
20
0
30
0
11
224.99317869544029
21
7.2442018985748291
31
0
0
LINE
5
158
100
AcDbEntity
8
0
100
AcDbLine
10
224.99317869544029
20
7.2442018985748291
30
0
11
226.09140515327454
21
7.2442018985748291
31
0
0
LINE
5
159
100
AcDbEntity
8
0
100
AcDbLine
10
226.09140515327454
20
7.2442018985748291
30
0
11
226.09140515327454
21
6.2278306484222412
31
0
0
SPLINE
5
160
100
AcDbEntity
8
0
100
AcDbSpline
70
0
71
3
72
9
73
5
74
3
42
0.000000001
43
0.0000000001
44
0.0000000001
40
0
40
0
40
0
40
0
40
0.062315720951437586
40
0.12567043106954701
40
0.12567043106954701
40
0.12567043106954701
40
0.12567043106954701
10
226.09140515327454
20
6.2278306484222412
30
0
10
226.21524104245441
20
6.3969533852897875
30
0
10
226.4649775349078
20
6.7380186401131903
30
0
10
226.81977176981678
20
6.9679736655401054
30
0
10
226.9986355304718
20
7.0839017629623413
30
0
11
226.09140515327454
21
6.2278306484222412
31
0
11
226.4887447655201
21
6.7078787088394165
31
0
11
226.9986355304718
21
7.0839017629623413
31
0
0
SPLINE
5
161
100
AcDbEntity
8
0
100
AcDbSpline
70
0
71
3
72
9
73
5
74
3
42
0.000000001
43
0.0000000001
44
0.0000000001
40
0
40
0
40
0
40
0
40
0.065234090036022735
40
0.13409556836411418
40
0.13409556836411418
40
0.13409556836411418
40
0.13409556836411418
10
226.9986355304718
20
7.0839017629623413
30
0
10
227.19699220239329
20
7.1783856898864293
30
0
10
227.60473531102608
20
7.3726073901533118
30
0
10
228.05608093288001
20
7.3959338716021268
30
0
10
228.28785836696625
20
7.4079126119613647
30
0
11
226.9986355304718
21
7.0839017629623413
31
0
11
227.6040244102478
21
7.3269098997116089
31
0
11
228.28785836696625
21
7.4079126119613647
31
0
0
SPLINE
5
162
100
AcDbEntity
8
0
100
AcDbSpline
70
0
71
3
72
9
73
5
74
3
42
0.000000001
43
0.0000000001
44
0.0000000001
40
0
40
0
40
0
40
0
40
0.073718609818852823
40
0.13759175871802121
40
0.13759175871802121
40
0.13759175871802121
40
0.13759175871802121
10
228.28785836696625
20
7.4079126119613647
30
0
10
228.53686079667432
20
7.3984329710872432
30
0
10
229.00161023121714
20
7.3807397391734764
30
0
10
229.41559533014174
20
7.1710244995149797
30
0
10
229.60777640342712
20
7.0736700296401978
30
0
11
228.28785836696625
21
7.4079126119613647
31
0
11
229.0202933549881
21
7.3243522644042969
31
0
11
229.60777640342712
21
7.0736700296401978
31
0
0
SPLINE
5
163
100
AcDbEntity
8
0
100
AcDbSpline
70
0
71
3
72
9
73
5
74
3
42
0.000000001
43
0.0000000001
44
0.0000000001
40
0
40
0
40
0
40
0
40
0.059449719319242582
40
0.12006934266822124
40
0.12006934266822124
40
0.12006934266822124
40
0.12006934266822124
10
229.60777640342712
20
7.0736700296401978
30
0
10
229.76713186383802
20
6.9502132363308631
30
0
10
230.08897872201038
20
6.70087015800652
30
0
10
230.25195902293194
20
6.3276053194831725
30
0
10
230.33424317836761
20
6.1391544342041016
30
0
11
229.60777640342712
21
7.0736700296401978
31
0
11
230.04689633846283
21
6.6729199886322021
31
0
11
230.33424317836761
21
6.1391544342041016
31
0
0
SPLINE
5
164
100
AcDbEntity
8
0
100
AcDbSpline
70
0
71
3
72
9
73
5
74
3
42
0.000000001
43
0.0000000001
44
0.0000000001
40
0
40
0
40
0
40
0
40
0.13725059489014546
40
0.26604696422980245
40
0.26604696422980245
40
0.26604696422980245
40
0.26604696422980245
10
230.33424317836761
20
6.1391544342041016
30
0
10
230.63460590542789
20
6.5090985576038465
30
0
10
231.21682991521183
20
7.2261993544632999
30
0
10
232.12969535286061
20
7.3486384496877966
30
0
10
232.57162392139435
20
7.4079126119613647
30
0
11
230.33424317836761
21
6.1391544342041016
31
0
11
231.32332861423492
21
7.090722918510437
31
0
11
232.57162392139435
21
7.4079126119613647
31
0
0
SPLINE
5
165
100
AcDbEntity
8
0
100
AcDbSpline
70
0
71
3
72
9
73
5
74
3
42
0.000000001
43
0.0000000001
44
0.0000000001
40
0
40
0
40
0
40
0
40
0.096488141245889655
40
0.17994000174169417
40
0.17994000174169417
40
0.17994000174169417
40
0.17994000174169417
10
232.57162392139435
20
7.4079126119613647
30
0
10
232.90180047974013
20
7.3910946291950443
30
0
10
233.5175442355702
20
7.3597309008737399
30
0
10
234.00371853372263
20
6.984892049033502
30
0
10
234.22919452190399
20
6.8110507726669312
30
0
11
232.57162392139435
21
7.4079126119613647
31
0
11
233.52489769458771
21
7.2586971521377563
31
0
11
234.22919452190399
21
6.8110507726669312
31
0
0
SPLINE
5
166
100
AcDbEntity
8
0
100
AcDbSpline
70
0
71
3
72
9
73
5
74
3
42
0.000000001
43
0.0000000001
44
0.0000000001
40
0
40
0
40
0
40
0
40
0.08738922245184691
40
0.19638938628934732
40
0.19638938628934732
40
0.19638938628934732
40
0.19638938628934732
10
234.22919452190399
20
6.8110507726669312
30
0
10
234.39777824741097
20
6.5663970911097715
30
0
10
234.77663565638866
20
6.0165880296901575
30
0
10
234.79745069575478
20
5.3452958180231578
30
0
10
234.80900347232819
20
4.9727147817611694
30
0
11
234.22919452190399
21
6.8110507726669312
31
0
11
234.66405093669891
21
6.0530352592468262
31
0
11
234.80900347232819
21
4.9727147817611694
31
0
0
LINE
5
167
100
AcDbEntity
8
0
100
AcDbLine
10
234.80900347232819
20
4.9727147817611685
30
0
11
234.80900347232819
21
0
31
0
0
LINE
5
168
100
AcDbEntity
8
0
100
AcDbLine
10
234.80900347232819
20
0
30
0
11
233.58799457550049
21
0
31
0
0
LINE
5
169
100
AcDbEntity
8
0
100
AcDbLine
10
233.58799457550049
20
0
30
0
11
233.58799457550049
21
4.5634377002716064
31
0
0
SPLINE
5
170
100
AcDbEntity
8
0
100
AcDbSpline
70
0
71
3
72
9
73
5
74
3
42
0.000000001
43
0.0000000001
44
0.0000000001
40
0
40
0
40
0
40
0
40
0.063422953804526477
40
0.10706934092965639
40
0.10706934092965639
40
0.10706934092965639
40
0.10706934092965639
10
233.58799457550049
20
4.5634377002716064
30
0
10
233.58794447856843
20
4.7758754642842405
30
0
10
233.58785990594646
20
5.1345085776442065
30
0
10
233.5031529968185
20
5.4823510611756108
30
0
10
233.46862256526947
20
5.6241476535797119
30
0
11
233.58799457550049
21
4.5634377002716064
31
0
11
233.55815172195435
21
5.1969647407531738
31
0
11
233.46862256526947
21
5.6241476535797119
31
0
0
SPLINE
5
171
100
AcDbEntity
8
0
100
AcDbSpline
70
0
71
3
72
9
73
5
74
3
42
0.000000001
43
0.0000000001
44
0.0000000001
40
0
40
0
40
0
40
0
40
0.033726759294683557
40
0.068787817791675282
40
0.068787817791675282
40
0.068787817791675282
40
0.068787817791675282
10
233.46862256526947
20
5.6241476535797119
30
0
10
233.4197496384098
20
5.7275043502159431
30
0
10
233.32007027228997
20
5.938306744648286
30
0
10
233.13155620874326
20
6.0758632323882935
30
0
10
233.03547084331512
20
6.1459755897521973
30
0
11
233.46862256526947
21
5.6241476535797119
31
0
11
233.30064833164215
21
5.9166097640991211
31
0
11
233.03547084331512
21
6.1459755897521973
31
0
0
SPLINE
5
172
100
AcDbEntity
8
0
100
AcDbSpline
70
0
71
3
72
9
73
5
74
3
42
0.000000001
43
0.0000000001
44
0.0000000001
40
0
40
0
40
0
40
0
40
0.037193614141152471
40
0.077064919039892613
40
0.077064919039892613
40
0.077064919039892613
40
0.077064919039892613
10
233.03547084331512
20
6.1459755897521973
30
0
10
232.92403496782143
20
6.2036531524465079
30
0
10
232.6931405812079
20
6.323160675501045
30
0
10
232.43323859413999
20
6.3367578609228463
30
0
10
232.29877233505249
20
6.3437926769256592
30
0
11
233.03547084331512
21
6.1459755897521973
31
0
11
232.69440650939941
21
6.2943387031555176
31
0
11
232.29877233505249
21
6.3437926769256592
31
0
0
SPLINE
5
173
100
AcDbEntity
8
0
100
AcDbSpline
70
0
71
3
72
9
73
5
74
3
42
0.000000001
43
0.0000000001
44
0.0000000001
40
0
40
0
40
0
40
0
40
0.071063039820442028
40
0.13959664745432201
40
0.13959664745432201
40
0.13959664745432201
40
0.13959664745432201
10
232.29877233505249
20
6.3437926769256592
30
0
10
232.05649932423398
20
6.3241955929810363
30
0
10
231.58057681705753
20
6.2856989676542501
30
0
10
231.2113042925518
20
5.9838143499371954
30
0
10
231.03001356124878
20
5.8356070518493652
30
0
11
232.29877233505249
21
6.3437926769256592
31
0
11
231.59959077835083
21
6.2167465686798096
31
0
11
231.03001356124878
21
5.8356070518493652
31
0
0
SPLINE
5
174
100
AcDbEntity
8
0
100
AcDbSpline
70
0
71
3
72
9
73
5
74
3
42
0.000000001
43
0.0000000001
44
0.0000000001
40
0
40
0
40
0
40
0
40
0.07615742852377462
40
0.17358453004843344
40
0.17358453004843344
40
0.17358453004843344
40
0.17358453004843344
10
231.03001356124878
20
5.8356070518493652
30
0
10
230.88335037102641
20
5.6222353775858736
30
0
10
230.54906307373133
20
5.1359003933221503
30
0
10
230.53380368606074
20
4.5420434085711561
30
0
10
230.52523910999298
20
4.2087316513061523
30
0
11
231.03001356124878
21
5.8356070518493652
31
0
11
230.65143287181854
21
5.174795389175415
31
0
11
230.52523910999298
21
4.2087316513061523
31
0
0
LINE
5
175
100
AcDbEntity
8
0
100
AcDbLine
10
230.52523910999301
20
4.2087316513061515
30
0
11
230.52523910999298
21
0
31
0
0
LINE
5
176
100
AcDbEntity
8
0
100
AcDbLine
10
230.52523910999298
20
0
30
0
11
229.29740786552429
21
0
31
0
0
LINE
5
177
100
AcDbEntity
8
0
100
AcDbLine
10
229.29740786552429
20
0
30
0
11
229.29740786552429
21
4.706684947013855
31
0
0
SPLINE
5
178
100
AcDbEntity
8
0
100
AcDbSpline
70
0
71
3
72
9
73
5
74
3
42
0.000000001
43
0.0000000001
44
0.0000000001
40
0
40
0
40
0
40
0
40
0.072015412037225626
40
0.12790829658707806
40
0.12790829658707806
40
0.12790829658707806
40
0.12790829658707806
10
229.29740786552429
20
4.706684947013855
30
0
10
229.29257126282013
20
4.9507847056454288
30
0
10
229.2839808570215
20
5.3843361280512632
30
0
10
229.08445827960918
20
5.7672091762824005
30
0
10
228.99727165699005
20
5.9345155954360962
30
0
11
229.29740786552429
21
4.706684947013855
31
0
11
229.2223733663559
21
5.4229193925857544
31
0
11
228.99727165699005
21
5.9345155954360962
31
0
0
SPLINE
5
179
100
AcDbEntity
8
0
100
AcDbSpline
70
0
71
3
72
9
73
5
74
3
42
0.000000001
43
0.0000000001
44
0.0000000001
40
0
40
0
40
0
40
0
40
0.050074949908176652
40
0.10962359253159015
40
0.10962359253159015
40
0.10962359253159015
40
0.10962359253159015
10
228.99727165699005
20
5.9345155954360962
30
0
10
228.87282897862036
20
6.0536536880300229
30
0
10
228.60040027939738
20
6.3144696397475295
30
0
10
228.22106534703491
20
6.3334709650918386
30
0
10
228.01500678062439
20
6.3437926769256592
30
0
11
228.99727165699005
21
5.9345155954360962
31
0
11
228.60163688659668
21
6.2414735555648804
31
0
11
228.01500678062439
21
6.3437926769256592
31
0
0
SPLINE
5
180
100
AcDbEntity
8
0
100
AcDbSpline
70
0
71
3
72
9
73
5
74
3
42
0.000000001
43
0.0000000001
44
0.0000000001
40
0
40
0
40
0
40
0
40
0.0503448748308414
40
0.10065337364550833
40
0.10065337364550833
40
0.10065337364550833
40
0.10065337364550833
10
228.01500678062439
20
6.3437926769256592
30
0
10
227.84549603549539
20
6.3324403789737644
30
0
10
227.50659702295985
20
6.3097439855210746
30
0
10
227.20657389479513
20
6.1505228747860352
30
0
10
227.05661654472351
20
6.0709410905838013
30
0
11
228.01500678062439
21
6.3437926769256592
31
0
11
227.51620054244995
21
6.2755799293518066
31
0
11
227.05661654472351
21
6.0709410905838013
31
0
0
SPLINE
5
181
100
AcDbEntity
8
0
100
AcDbSpline
70
0
71
3
72
9
73
5
74
3
42
0.000000001
43
0.0000000001
44
0.0000000001
40
0
40
0
40
0
40
0
40
0.050678481940942405
40
0.10362400173949723
40
0.10362400173949723
40
0.10362400173949723
40
0.10362400173949723
10
227.05661654472351
20
6.0709410905838013
30
0
10
226.9193679232273
20
5.9676316121304289
30
0
10
226.63873103656516
20
5.7563912362360972
30
0
10
226.49318952810512
20
5.4363652629206003
30
0
10
226.41882672905922
20
5.2728515863418579
30
0
11
227.05661654472351
21
6.0709410905838013
31
0
11
226.67718291282654
21
5.7349932193756104
31
0
11
226.41882672905922
21
5.2728515863418579
31
0
0
SPLINE
5
182
100
AcDbEntity
8
0
100
AcDbSpline
70
0
71
3
72
9
73
5
74
3
42
0.000000001
43
0.0000000001
44
0.0000000001
40
0
40
0
40
0
40
0
40
0.065814109797307674
40
0.15326645398143518
40
0.15326645398143518
40
0.15326645398143518
40
0.15326645398143518
10
226.41882672905922
20
5.2728515863418579
30
0
10
226.3614179421464
20
5.0602551047361386
30
0
10
226.22772561956393
20
4.5651650858178749
30
0
10
226.2234494395145
20
4.0515759777076692
30
0
10
226.22100949287415
20
3.7585270404815674
30
0
11
226.41882672905922
21
5.2728515863418579
31
0
11
226.27046376466751
21
4.6316510438919067
31
0
11
226.22100949287415
21
3.7585270404815674
31
0
0
LINE
5
183
100
AcDbEntity
8
0
100
AcDbLine
10
226.22100949287415
20
3.7585270404815674
30
0
11
226.22100949287415
21
0
31
0
0
LINE
5
184
100
AcDbEntity
8
0
100
AcDbLine
10
226.22100949287415
20
0
30
0
11
224.99317869544029
21
0
31
0
0
LINE
5
185
100
AcDbEntity
8
0
100
AcDbLine
10
236.63028702139854
20
-2.776261568069458
30
0
11
236.63028702139854
21
7.2442018985748291
31
0
0
LINE
5
186
100
AcDbEntity
8
0
100
AcDbLine
10
236.63028702139854
20
7.2442018985748291
30
0
11
237.7489772439003
21
7.2442018985748291
31
0
0
LINE
5
187
100
AcDbEntity
8
0
100
AcDbLine
10
237.7489772439003
20
7.2442018985748291
30
0
11
237.7489772439003
21
6.3028645515441895
31
0
0
SPLINE
5
188
100
AcDbEntity
8
0
100
AcDbSpline
70
0
71
3
72
9
73
5
74
3
42
0.000000001
43
0.0000000001
44
0.0000000001
40
0
40
0
40
0
40
0
40
0.064121277830350196
40
0.12263519019251924
40
0.12263519019251924
40
0.12263519019251924
40
0.12263519019251924
10
237.7489772439003
20
6.3028645515441895
30
0
10
237.88097907326141
20
6.473170896970065
30
0
10
238.13343925492359
20
6.7988904048930587
30
0
10
238.47810985895035
20
7.0241638982774308
30
0
10
238.64256531000137
20
7.131650447845459
30
0
11
237.7489772439003
21
6.3028645515441895
31
0
11
238.17019164562225
21
6.7863231897354126
31
0
11
238.64256531000137
21
7.131650447845459
31
0
0
SPLINE
5
189
100
AcDbEntity
8
0
100
AcDbSpline
70
0
71
3
72
9
73
5
74
3
42
0.000000001
43
0.0000000001
44
0.0000000001
40
0
40
0
40
0
40
0
40
0.058849971253868545
40
0.12486705486661412
40
0.12486705486661412
40
0.12486705486661412
40
0.12486705486661412
10
238.64256531000137
20
7.131650447845459
30
0
10
238.82346538011134
20
7.212155357135118
30
0
10
239.20729664627044
20
7.3829695599482239
30
0
10
239.62767734844076
20
7.399286472896792
30
0
10
239.8499321937561
20
7.4079132080078125
30
0
11
238.64256531000137
21
7.131650447845459
31
0
11
239.19338405132294
21
7.3388475179672241
31
0
11
239.8499321937561
21
7.4079132080078125
31
0
0
SPLINE
5
190
100
AcDbEntity
8
0
100
AcDbSpline
70
0
71
3
72
9
73
5
74
3
42
0.000000001
43
0.0000000001
44
0.0000000001
40
0
40
0
40
0
40
0
40
0.088124647202741935
40
0.1724999698109749
40
0.1724999698109749
40
0.1724999698109749
40
0.1724999698109749
10
239.8499321937561
20
7.4079132080078125
30
0
10
240.14737569470958
20
7.3898051470535799
30
0
10
240.72960775536006
20
7.3543594452313164
30
0
10
241.23824766749976
20
7.0696724254500278
30
0
10
241.48703992366791
20
6.9304227828979492
30
0
11
239.8499321937561
21
7.4079132080078125
31
0
11
240.72305619716644
21
7.2885406017303467
31
0
11
241.48703992366791
21
6.9304227828979492
31
0
0
SPLINE
5
191
100
AcDbEntity
8
0
100
AcDbSpline
70
0
71
3
72
9
73
5
74
3
42
0.000000001
43
0.0000000001
44
0.0000000001
40
0
40
0
40
0
40
0
40
0.084775411504116716
40
0.17402827924043515
40
0.17402827924043515
40
0.17402827924043515
40
0.17402827924043515
10
241.48703992366791
20
6.9304227828979492
30
0
10
241.71046973763598
20
6.7513536194706356
30
0
10
242.16912992419242
20
6.3837576641886429
30
0
10
242.42616006322743
20
5.8546036557360139
30
0
10
242.55798161029816
20
5.5832195281982422
30
0
11
241.48703992366791
21
6.9304227828979492
31
0
11
242.1094822883606
21
6.3548773527145386
31
0
11
242.55798161029816
21
5.5832195281982422
31
0
0
SPLINE
5
192
100
AcDbEntity
8
0
100
AcDbSpline
70
0
71
3
72
9
73
5
74
3
42
0.000000001
43
0.0000000001
44
0.0000000001
40
0
40
0
40
0
40
0
40
0.095096851496726795
40
0.19501196849747426
40
0.19501196849747426
40
0.19501196849747426
40
0.19501196849747426
10
242.55798161029816
20
5.5832195281982422
30
0
10
242.66340919734682
20
5.2822796321471976
30
0
10
242.87960606360167
20
4.665152139441938
30
0
10
242.90599099289693
20
4.0115475594931578
30
0
10
242.91950941085815
20
3.6766707897186279
30
0
11
242.55798161029816
21
5.5832195281982422
31
0
11
242.82912731170654
21
4.6717256307601929
31
0
11
242.91950941085815
21
3.6766707897186279
31
0
0
SPLINE
5
193
100
AcDbEntity
8
0
100
AcDbSpline
70
0
71
3
72
9
73
5
74
3
42
0.000000001
43
0.0000000001
44
0.0000000001
40
0
40
0
40
0
40
0
40
0.10611456270153158
40
0.20529776203804173
40
0.20529776203804173
40
0.20529776203804173
40
0.20529776203804173
10
242.91950941085815
20
3.6766707897186279
30
0
10
242.90524584790262
20
3.3206660011682554
30
0
10
242.87765041256449
20
2.6319105230932083
30
0
10
242.63681618909916
20
1.9864559106663204
30
0
10
242.52046465873718
20
1.6746246814727783
30
0
11
242.91950941085815
21
3.6766707897186279
31
0
11
242.81974852085114
21
2.6202249526977539
31
0
11
242.52046465873718
21
1.6746246814727783
31
0
0
SPLINE
5
194
100
AcDbEntity
8
0
100
AcDbSpline
70
0
71
3
72
9
73
5
74
3
42
0.000000001
43
0.0000000001
44
0.0000000001
40
0
40
0
40
0
40
0
40
0.092605393383034695
40
0.18111297482447342
40
0.18111297482447342
40
0.18111297482447342
40
0.18111297482447342
10
242.52046465873718
20
1.6746246814727783
30
0
10
242.37537090445483
20
1.3971248126495706
30
0
10
242.09160383099896
20
0.85440451397224226
30
0
10
241.60072992594618
20
0.48895769714908166
30
0
10
241.36084616184235
20
0.31036853790283203
30
0
11
242.52046465873718
21
1.6746246814727783
31
0
11
242.03103721141815
21
0.88847160339355469
31
0
11
241.36084616184235
21
0.31036853790283203
31
0
0
SPLINE
5
195
100
AcDbEntity
8
0
100
AcDbSpline
70
0
71
3
72
9
73
5
74
3
42
0.000000001
43
0.0000000001
44
0.0000000001
40
0
40
0
40
0
40
0
40
0.085738535603383223
40
0.16853192712995213
40
0.16853192712995213
40
0.16853192712995213
40
0.16853192712995213
10
241.36084616184235
20
0.31036853790283203
30
0
10
241.10658198413694
20
0.17210767922802184
30
0
10
240.60678767849322
20
-0.099664736700537659
30
0
10
240.03979670484603
20
-0.14261262745172587
30
0
10
239.76125538349152
20
-0.1637113094329834
30
0
11
241.36084616184235
21
0.31036853790283203
31
0
11
240.58066219091415
21
-0.045191049575805664
31
0
11
239.76125538349152
21
-0.1637113094329834
31
0
0
SPLINE
5
196
100
AcDbEntity
8
0
100
AcDbSpline
70
0
71
3
72
9
73
5
74
3
42
0.000000001
43
0.0000000001
44
0.0000000001
40
0
40
0
40
0
40
0
40
0.058596118344559155
40
0.11404296016159529
40
0.11404296016159529
40
0.11404296016159529
40
0.11404296016159529
10
239.76125538349152
20
-0.1637113094329834
30
0
10
239.56425548312478
20
-0.15415476837756792
30
0
10
239.18084353666688
20
-0.13555530715632313
30
0
10
238.83013189648548
20
0.01991086792854091
30
0
10
238.65961849689484
20
0.095497369766235352
30
0
11
239.76125538349152
21
-0.1637113094329834
31
0
11
239.17888849973679
21
-0.098909139633178711
31
0
11
238.65961849689484
21
0.095497369766235352
31
0
0
SPLINE
5
197
100
AcDbEntity
8
0
100
AcDbSpline
70
0
71
3
72
9
73
5
74
3
42
0.000000001
43
0.0000000001
44
0.0000000001
40
0
40
0
40
0
40
0
40
0.053233402810321045
40
0.10406065666466563
40
0.10406065666466563
40
0.10406065666466563
40
0.10406065666466563
10
238.65961849689484
20
0.095497369766235352
30
0
10
238.50556672783924
20
0.1859942197825748
30
0
10
238.20442632722654
20
0.36289746364130071
30
0
10
237.9717607132913
20
0.62319971645246275
30
0
10
237.8581178188324
20
0.75034141540527344
30
0
11
238.65961849689484
21
0.095497369766235352
31
0
11
238.21538269519806
21
0.38881301879882812
31
0
11
237.8581178188324
21
0.75034141540527344
31
0
0
LINE
5
198
100
AcDbEntity
8
0
100
AcDbLine
10
237.8581178188324
20
0.75034141540527355
30
0
11
237.8581178188324
21
-2.776261568069458
31
0
0
LINE
5
199
100
AcDbEntity
8
0
100
AcDbLine
10
237.8581178188324
20
-2.776261568069458
30
0
11
236.63028702139854
21
-2.776261568069458
31
0
0
SPLINE
5
200
100
AcDbEntity
8
0
100
AcDbSpline
70
0
71
3
72
9
73
5
74
3
42
0.000000001
43
0.0000000001
44
0.0000000001
40
0
40
0
40
0
40
0
40
0.1224103696625861
40
0.21751195117187311
40
0.21751195117187311
40
0.21751195117187311
40
0.21751195117187311
10
237.7421560883522
20
3.5811734199523926
30
0
10
237.75134775466287
20
3.1645655826744234
30
0
10
237.76768049901509
20
2.4242918312789841
30
0
10
238.14385129434399
20
1.79115023817771
30
0
10
238.30832242965698
20
1.5143251419067383
30
0
11
237.7421560883522
21
3.5811734199523926
31
0
11
237.88369759917259
21
2.3652803897857666
31
0
11
238.30832242965698
21
1.5143251419067383
31
0
0
SPLINE
5
201
100
AcDbEntity
8
0
100
AcDbSpline
70
0
71
3
72
9
73
5
74
3
42
0.000000001
43
0.0000000001
44
0.0000000001
40
0
40
0
40
0
40
0
40
0.08019091201000042
40
0.1565643337813869
40
0.1565643337813869
40
0.1565643337813869
40
0.1565643337813869
10
238.30832242965698
20
1.5143251419067383
30
0
10
238.50357002502861
20
1.3193840530741952
30
0
10
238.88477044943542
20
0.93878205049466423
30
0
10
239.41886461870124
20
0.87631214139703761
30
0
10
239.67940032482147
20
0.84583878517150879
30
0
11
238.30832242965698
21
1.5143251419067383
31
0
11
238.93417537212372
21
1.01296067237854
31
0
11
239.67940032482147
21
0.84583878517150879
31
0
0
SPLINE
5
202
100
AcDbEntity
8
0
100
AcDbSpline
70
0
71
3
72
9
73
5
74
3
42
0.000000001
43
0.0000000001
44
0.0000000001
40
0
40
0
40
0
40
0
40
0.077918853192246978
40
0.16049457249720139
40
0.16049457249720139
40
0.16049457249720139
40
0.16049457249720139
10
239.67940032482147
20
0.84583878517150879
30
0
10
239.94509127584823
20
0.87789344824148685
30
0
10
240.49235235393689
20
0.94391854018252008
30
0
10
240.88113981220286
20
1.3363104591573105
30
0
10
241.08117401599884
20
1.5381991863250732
30
0
11
239.67940032482147
21
0.84583878517150879
31
0
11
240.43912053108215
21
1.0189282894134521
31
0
11
241.08117401599884
21
1.5381991863250732
31
0
0
SPLINE
5
203
100
AcDbEntity
8
0
100
AcDbSpline
70
0
71
3
72
9
73
5
74
3
42
0.000000001
43
0.0000000001
44
0.0000000001
40
0
40
0
40
0
40
0
40
0.098495931824835875
40
0.22561389115850577
40
0.22561389115850577
40
0.22561389115850577
40
0.22561389115850577
10
241.08117401599884
20
1.5381991863250732
30
0
10
241.2505855688697
20
1.8253853793090125
30
0
10
241.63863814060812
20
2.4832114771556868
30
0
10
241.6551117786251
20
3.2509340841925791
30
0
10
241.66439354419708
20
3.6834931373596191
30
0
11
241.08117401599884
21
1.5381991863250732
31
0
11
241.51858866214752
21
2.4207031726837158
31
0
11
241.66439354419708
21
3.6834931373596191
31
0
0
SPLINE
5
204
100
AcDbEntity
8
0
100
AcDbSpline
70
0
71
3
72
9
73
5
74
3
42
0.000000001
43
0.0000000001
44
0.0000000001
40
0
40
0
40
0
40
0
40
0.12191210088412731
40
0.21819654092700369
40
0.21819654092700369
40
0.21819654092700369
40
0.21819654092700369
10
241.66439354419708
20
3.6834931373596191
30
0
10
241.65403659280273
20
4.0980932372068404
30
0
10
241.63549986878266
20
4.8401385879028869
30
0
10
241.26035705992803
20
5.4763979268035197
30
0
10
241.09481632709503
20
5.7571625709533691
30
0
11
241.66439354419708
21
3.6834931373596191
31
0
11
241.52199923992157
21
4.8942697048187256
31
0
11
241.09481632709503
21
5.7571625709533691
31
0
0
SPLINE
5
205
100
AcDbEntity
8
0
100
AcDbSpline
70
0
71
3
72
9
73
5
74
3
42
0.000000001
43
0.0000000001
44
0.0000000001
40
0
40
0
40
0
40
0
40
0.081093586598935813
40
0.15666701680003015
40
0.15666701680003015
40
0.15666701680003015
40
0.15666701680003015
10
241.09481632709503
20
5.7571625709533691
30
0
10
240.90068248222195
20
5.9580325411396151
30
0
10
240.52562976089391
20
6.3460989754117829
30
0
10
239.99158474250481
20
6.4135669991116551
30
0
10
239.73397076129913
20
6.4461123943328857
30
0
11
241.09481632709503
21
5.7571625709533691
31
0
11
240.46981632709503
21
6.2738752365112305
31
0
11
239.73397076129913
21
6.4461123943328857
31
0
0
SPLINE
5
206
100
AcDbEntity
8
0
100
AcDbSpline
70
0
71
3
72
9
73
5
74
3
42
0.000000001
43
0.0000000001
44
0.0000000001
40
0
40
0
40
0
40
0
40
0.076164797661623207
40
0.16122366003078376
40
0.16122366003078376
40
0.16122366003078376
40
0.16122366003078376
10
239.73397076129913
20
6.4461123943328857
30
0
10
239.47509336172391
20
6.4093451964195776
30
0
10
238.92710842458547
20
6.3315173494528656
30
0
10
238.54659290232635
20
5.926502707822606
30
0
10
238.34583938121796
20
5.7128238677978516
30
0
11
239.73397076129913
21
6.4461123943328857
31
0
11
238.99471402168274
21
6.2627899646759033
31
0
11
238.34583938121796
21
5.7128238677978516
31
0
0
SPLINE
5
207
100
AcDbEntity
8
0
100
AcDbSpline
70
0
71
3
72
9
73
5
74
3
42
0.000000001
43
0.0000000001
44
0.0000000001
40
0
40
0
40
0
40
0
40
0.10070732312803116
40
0.22483756296001001
40
0.22483756296001001
40
0.22483756296001001
40
0.22483756296001001
10
238.34583938121796
20
5.7128238677978516
30
0
10
238.17025951510004
20
5.420440141596842
30
0
10
237.77826270715579
20
4.767668899086237
30
0
10
237.75499946019266
20
4.0032179960023857
30
0
10
237.7421560883522
20
3.5811734199523926
30
0
11
238.34583938121796
21
5.7128238677978516
31
0
11
237.89307683706284
21
4.8132669925689697
31
0
11
237.7421560883522
21
3.5811734199523926
31
0
0
LWPOLYLINE
5
208
100
AcDbEntity
8
0
100
AcDbPolyline
90
4
70
1
43
0.0
10
244.37244229018688
20
10
10
244.37244229018688
20
0
10
245.60027316212654
20
0
10
245.60027316212654
20
10
0
LINE
5
209
100
AcDbEntity
8
0
100
AcDbLine
10
252.46248364448547
20
2.3328793048858643
30
0
11
253.73124182224274
21
2.1759891510009766
31
0
0
SPLINE
5
210
100
AcDbEntity
8
0
100
AcDbSpline
70
0
71
3
72
9
73
5
74
3
42
0.000000001
43
0.0000000001
44
0.0000000001
40
0
40
0
40
0
40
0
40
0.10761667690736978
40
0.20825807236700344
40
0.20825807236700344
40
0.20825807236700344
40
0.20825807236700344
10
253.73124182224274
20
2.1759891510009766
30
0
10
253.61467582448046
20
1.8298268667324114
30
0
10
253.38909916949419
20
1.159939149329825
30
0
10
252.87015437676584
20
0.68144060117324656
30
0
10
252.61937260627747
20
0.45020461082458496
30
0
11
253.73124182224274
21
2.1759891510009766
31
0
11
253.30320656299591
21
1.1886084079742432
31
0
11
252.61937260627747
21
0.45020461082458496
31
0
0
SPLINE
5
211
100
AcDbEntity
8
0
100
AcDbSpline
70
0
71
3
72
9
73
5
74
3
42
0.000000001
43
0.0000000001
44
0.0000000001
40
0
40
0
40
0
40
0
40
0.10326191382961526
40
0.21922069345825654
40
0.21922069345825654
40
0.21922069345825654
40
0.21922069345825654
10
252.61937260627747
20
0.45020461082458496
30
0
10
252.31906981906565
20
0.27130830831829877
30
0
10
251.68153965117969
20
-0.10848100642611769
30
0
10
250.93865726786805
20
-0.14460381911977072
30
0
10
250.54570287466049
20
-0.1637113094329834
30
0
11
252.61937260627747
21
0.45020461082458496
31
0
11
251.69508874416351
21
-0.010231733322143555
31
0
11
250.54570287466049
21
-0.1637113094329834
31
0
0
SPLINE
5
212
100
AcDbEntity
8
0
100
AcDbSpline
70
0
71
3
72
9
73
5
74
3
42
0.000000001
43
0.0000000001
44
0.0000000001
40
0
40
0
40
0
40
0
40
0.14456576372639274
40
0.27645407493957125
40
0.27645407493957125
40
0.27645407493957125
40
0.27645407493957125
10
250.54570287466049
20
-0.1637113094329834
30
0
10
250.05126525348868
20
-0.13094615815860911
30
0
10
249.1057488901879
20
-0.068289140671702331
30
0
10
248.37422715285055
20
0.52980840022930353
30
0
10
248.02523910999298
20
0.81514358520507812
30
0
11
250.54570287466049
21
-0.1637113094329834
31
0
11
249.1209077835083
21
0.081002712249755859
31
0
11
248.02523910999298
21
0.81514358520507812
31
0
0
SPLINE
5
213
100
AcDbEntity
8
0
100
AcDbSpline
70
0
71
3
72
9
73
5
74
3
42
0.000000001
43
0.0000000001
44
0.0000000001
40
0
40
0
40
0
40
0
40
0.13675569725528688
40
0.29544695341348004
40
0.29544695341348004
40
0.29544695341348004
40
0.29544695341348004
10
248.02523910999298
20
0.81514358520507812
30
0
10
247.75406497078566
20
1.193432350125474
30
0
10
247.16822046937699
20
2.0106872458951486
30
0
10
247.12002235494259
20
3.0190791866628852
30
0
10
247.09413405507803
20
3.5607093572616577
30
0
11
248.02523910999298
21
0.81514358520507812
31
0
11
247.32691034674644
21
1.990962028503418
31
0
11
247.09413405507803
21
3.5607093572616577
31
0
0
SPLINE
5
214
100
AcDbEntity
8
0
100
AcDbSpline
70
0
71
3
72
9
73
5
74
3
42
0.000000001
43
0.0000000001
44
0.0000000001
40
0
40
0
40
0
40
0
40
0.1640433529145881
40
0.30449594805624469
40
0.30449594805624469
40
0.30449594805624469
40
0.30449594805624469
10
247.09413405507803
20
3.5607093572616577
30
0
10
247.11967025844498
20
4.120301802709637
30
0
10
247.1670703530896
20
5.1590127847420071
30
0
10
247.76135137722039
20
6.0071494042874676
30
0
10
248.03547099232674
20
6.3983631134033203
30
0
11
247.09413405507803
21
3.5607093572616577
31
0
11
247.32946828007698
21
5.1841747760772705
31
0
11
248.03547099232674
21
6.3983631134033203
31
0
0
SPLINE
5
215
100
AcDbEntity
8
0
100
AcDbSpline
70
0
71
3
72
9
73
5
74
3
42
0.000000001
43
0.0000000001
44
0.0000000001
40
0
40
0
40
0
40
0
40
0.13199355658674161
40
0.27039879229581298
40
0.27039879229581298
40
0.27039879229581298
40
0.27039879229581298
10
248.03547099232674
20
6.3983631134033203
30
0
10
248.37823757307089
20
6.6927687706705612
30
0
10
249.08042086041704
20
7.2958810454565048
30
0
10
250.00449649710953
20
7.3699830557272072
30
0
10
250.47749012708664
20
7.4079126119613647
30
0
11
248.03547099232674
21
6.3983631134033203
31
0
11
249.11664426326752
21
7.1555250883102417
31
0
11
250.47749012708664
21
7.4079126119613647
31
0
0
SPLINE
5
216
100
AcDbEntity
8
0
100
AcDbSpline
70
0
71
3
72
9
73
5
74
3
42
0.000000001
43
0.0000000001
44
0.0000000001
40
0
40
0
40
0
40
0
40
0.13428803677386481
40
0.26316661950018494
40
0.26316661950018494
40
0.26316661950018494
40
0.26316661950018494
10
250.47749012708664
20
7.4079126119613647
30
0
10
250.93632574371145
20
7.370195771808068
30
0
10
251.83551394419703
20
7.2962814190494063
30
0
10
252.517374359299
20
6.7072758083882924
30
0
10
252.8512966632843
20
6.4188265800476074
30
0
11
250.47749012708664
21
7.4079126119613647
31
0
11
251.79740846157074
21
7.1606409549713135
31
0
11
252.8512966632843
21
6.4188265800476074
31
0
0
SPLINE
5
217
100
AcDbEntity
8
0
100
AcDbSpline
70
0
71
3
72
9
73
5
74
3
42
0.000000001
43
0.0000000001
44
0.0000000001
40
0
40
0
40
0
40
0
40
0.13761723575594545
40
0.29854932016881103
40
0.29854932016881103
40
0.29854932016881103
40
0.29854932016881103
10
252.8512966632843
20
6.4188265800476074
30
0
10
253.11945042566194
20
6.0352466554319184
30
0
10
253.70118804754338
20
5.2031014296150975
30
0
10
253.74730834719611
20
4.1847064885579055
30
0
10
253.77216935157776
20
3.6357438564300537
30
0
11
252.8512966632843
21
6.4188265800476074
31
0
11
253.54195117950439
21
5.2285128831863403
31
0
11
253.77216935157776
21
3.6357438564300537
31
0
0
SPLINE
5
218
100
AcDbEntity
8
0
100
AcDbSpline
70
0
71
3
72
9
73
5
74
3
42
0.000000001
43
0.0000000001
44
0.0000000001
40
0
40
0
40
0
40
0
40
0.013643615260071178
40
0.032750058672997462
40
0.032750058672997462
40
0.032750058672997462
40
0.032750058672997462
10
253.77216935157776
20
3.6357438564300537
30
0
10
253.77173616862495
20
3.5902660349338422
30
0
10
253.77069635865888
20
3.4811013235336441
30
0
10
253.76731871780663
20
3.3719825306281681
30
0
10
253.76534819602966
20
3.3083224296569824
30
0
11
253.77216935157776
21
3.6357438564300537
31
0
11
253.77046406269073
21
3.4993183612823486
31
0
11
253.76534819602966
21
3.3083224296569824
31
0
0
LINE
5
219
100
AcDbEntity
8
0
100
AcDbLine
10
253.76534819602966
20
3.3083224296569824
30
0
11
248.36289256811142
21
3.3083224296569824
31
0
0
SPLINE
5
220
100
AcDbEntity
8
0
100
AcDbSpline
70
0
71
3
72
9
73
5
74
3
42
0.000000001
43
0.0000000001
44
0.0000000001
40
0
40
0
40
0
40
0
40
0.1073249040415878
40
0.19801925876155829
40
0.19801925876155829
40
0.19801925876155829
40
0.19801925876155829
10
248.36289256811142
20
3.3083224296569824
30
0
10
248.39837341635317
20
2.9445868918715146
30
0
10
248.46383717177696
20
2.2734785203270569
30
0
10
248.85777366660176
20
1.7294070985747823
30
0
10
249.03819963335991
20
1.4802181720733643
30
0
11
248.36289256811142
21
3.3083224296569824
31
0
11
248.56582581996918
21
2.2544336318969727
31
0
11
249.03819963335991
21
1.4802181720733643
31
0
0
SPLINE
5
221
100
AcDbEntity
8
0
100
AcDbSpline
70
0
71
3
72
9
73
5
74
3
42
0.000000001
43
0.0000000001
44
0.0000000001
40
0
40
0
40
0
40
0
40
0.083166690344029875
40
0.16788406145947843
40
0.16788406145947843
40
0.16788406145947843
40
0.16788406145947843
10
249.03819963335991
20
1.4802181720733643
30
0
10
249.25444319306902
20
1.2951953197941712
30
0
10
249.6909622720205
20
0.92169977999386754
30
0
10
250.26357397782795
20
0.87128101638152433
30
0
10
250.55252432823181
20
0.84583878517150879
30
0
11
249.03819963335991
21
1.4802181720733643
31
0
11
249.72032785415649
21
1.0044336318969727
31
0
11
250.55252432823181
21
0.84583878517150879
31
0
0
SPLINE
5
222
100
AcDbEntity
8
0
100
AcDbSpline
70
0
71
3
72
9
73
5
74
3
42
0.000000001
43
0.0000000001
44
0.0000000001
40
0
40
0
40
0
40
0
40
0.06321038007692957
40
0.12223935248908027
40
0.12223935248908027
40
0.12223935248908027
40
0.12223935248908027
10
250.55252432823181
20
0.84583878517150879
30
0
10
250.76644922285124
20
0.85848889413691953
30
0
10
251.18014774147656
20
0.88295229914993278
30
0
10
251.53430144201957
20
1.0971234819751574
30
0
10
251.7053210735321
20
1.2005460262298584
30
0
11
250.55252432823181
21
0.84583878517150879
31
0
11
251.17837697267532
21
0.93451619148254395
31
0
11
251.7053210735321
21
1.2005460262298584
31
0
0
SPLINE
5
223
100
AcDbEntity
8
0
100
AcDbSpline
70
0
71
3
72
9
73
5
74
3
42
0.000000001
43
0.0000000001
44
0.0000000001
40
0
40
0
40
0
40
0
40
0.062866192040690869
40
0.13768398924925215
40
0.13768398924925215
40
0.13768398924925215
40
0.13768398924925215
10
251.7053210735321
20
1.2005460262298584
30
0
10
251.85952734229409
20
1.3461005633034739
30
0
10
252.19725631173213
20
1.6648812730473117
30
0
10
252.36910219519564
20
2.0976900289983558
30
0
10
252.46248364448547
20
2.3328793048858643
30
0
11
251.7053210735321
21
1.2005460262298584
31
0
11
252.13335633277893
21
1.6609823703765869
31
0
11
252.46248364448547
21
2.3328793048858643
31
0
0
LINE
5
224
100
AcDbEntity
8
0
100
AcDbLine
10
248.43110546469688
20
4.3178719282150269
30
0
11
252.47612595558167
21
4.3178719282150269
31
0
0
SPLINE
5
225
100
AcDbEntity
8
0
100
AcDbSpline
70
0
71
3
72
9
73
5
74
3
42
0.000000001
43
0.0000000001
44
0.0000000001
40
0
40
0
40
0
40
0
40
0.081503803463703145
40
0.14635647425956022
40
0.14635647425956022
40
0.14635647425956022
40
0.14635647425956022
10
252.47612595558167
20
4.3178719282150269
30
0
10
252.44507284205613
20
4.5920657767360886
30
0
10
252.38931073013944
20
5.0844359880364003
30
0
10
252.12804781464649
20
5.5033312662627711
30
0
10
252.01227843761444
20
5.6889498233795166
30
0
11
252.47612595558167
21
4.3178719282150269
31
0
11
252.31923639774323
21
5.1176673173904419
31
0
11
252.01227843761444
21
5.6889498233795166
31
0
0
SPLINE
5
226
100
AcDbEntity
8
0
100
AcDbSpline
70
0
71
3
72
9
73
5
74
3
42
0.000000001
43
0.0000000001
44
0.0000000001
40
0
40
0
40
0
40
0
40
0.085838583560851958
40
0.17242875444428801
40
0.17242875444428801
40
0.17242875444428801
40
0.17242875444428801
10
252.01227843761444
20
5.6889498233795166
30
0
10
251.80156636000407
20
5.8958607660626408
30
0
10
251.37829724742645
20
6.3114943267265646
30
0
10
250.7877123260221
20
6.3693228296740143
30
0
10
250.49113273620605
20
6.3983631134033203
30
0
11
252.01227843761444
21
5.6889498233795166
31
0
11
251.33867710828781
21
6.2210094928741455
31
0
11
250.49113273620605
21
6.3983631134033203
31
0
0
SPLINE
5
227
100
AcDbEntity
8
0
100
AcDbSpline
70
0
71
3
72
9
73
5
74
3
42
0.000000001
43
0.0000000001
44
0.0000000001
40
0
40
0
40
0
40
0
40
0.079124183928530115
40
0.15624298211678772
40
0.15624298211678772
40
0.15624298211678772
40
0.15624298211678772
10
250.49113273620605
20
6.3983631134033203
30
0
10
250.22168184767037
20
6.3760074360456791
30
0
10
249.68960924649366
20
6.3318626812542309
30
0
10
249.27402200808089
20
5.9973205888406076
30
0
10
249.06889542937279
20
5.8321964740753174
30
0
11
250.49113273620605
21
6.3983631134033203
31
0
11
249.71265375614166
21
6.2568211555480957
31
0
11
249.06889542937279
21
5.8321964740753174
31
0
0
SPLINE
5
228
100
AcDbEntity
8
0
100
AcDbSpline
70
0
71
3
72
9
73
5
74
3
42
0.000000001
43
0.0000000001
44
0.0000000001
40
0
40
0
40
0
40
0
40
0.079886644538836468
40
0.16724701565573824
40
0.16724701565573824
40
0.16724701565573824
40
0.16724701565573824
10
249.06889542937279
20
5.8321964740753174
30
0
10
248.89788517470166
20
5.6210394854501047
30
0
10
248.53986594751572
20
5.1789708970610748
30
0
10
248.46842314138468
20
4.6133304631786931
30
0
10
248.43110546469688
20
4.3178719282150269
30
0
11
249.06889542937279
21
5.8321964740753174
31
0
11
248.62124875187874
21
5.1705318689346313
31
0
11
248.43110546469688
21
4.3178719282150269
31
0
0
ENDSEC
0
SECTION
2
OBJECTS
0
DICTIONARY
5
C
100
AcDbDictionary
3
ACAD_GROUP
350
D
3
ACAD_MLINESTYLE
350
17
0
DICTIONARY
5
D
100
AcDbDictionary
0
DICTIONARY
5
1A
330
C
100
AcDbDictionary
0
DICTIONARY
5
17
100
AcDbDictionary
0
ENDSEC
0
EOF
