0
SECTION
2
HEADER
9
$INSUNITS
70
4
9
$ACADVER
1
AC1014
9
$HANDSEED
5
FFFF
0
ENDSEC
0
SECTION
2
TABLES
0
TABLE
2
VPORT
5
8
100
AcDbSymbolTable
0
ENDTAB
0
TABLE
2
LTYPE
5
5
100
AcDbSymbolTable
0
LTYPE
5
14
100
AcDbSymbolTableRecord
100
AcDbLinetypeTableRecord
2
BYBLOCK
70
0
0
LTYPE
5
15
100
AcDbSymbolTableRecord
100
AcDbLinetypeTableRecord
2
BYLAYER
70
0
0
ENDTAB
0
TABLE
2
LAYER
5
2
100
AcDbSymbolTable
70
2
0
LAYER
5
50
100
AcDbSymbolTableRecord
100
AcDbLayerTableRecord
2
0
70
0
6
CONTINUOUS
0
ENDTAB
0
TABLE
2
STYLE
5
3
100
AcDbSymbolTable
70
1
0
STYLE
5
11
100
AcDbSymbolTableRecord
100
AcDbTextStyleTableRecord
2
STANDARD
70
0
0
ENDTAB
0
TABLE
2
VIEW
5
6
100
AcDbSymbolTable
70
0
0
ENDTAB
0
TABLE
2
UCS
5
7
100
AcDbSymbolTable
70
0
0
ENDTAB
0
TABLE
2
APPID
5
9
100
AcDbSymbolTable
70
2
0
APPID
5
12
100
AcDbSymbolTableRecord
100
AcDbRegAppTableRecord
2
ACAD
70
0
0
ENDTAB
0
TABLE
2
DIMSTYLE
5
A
100
AcDbSymbolTable
70
1
0
ENDTAB
0
TABLE
2
BLOCK_RECORD
5
1
100
AcDbSymbolTable
70
1
0
BLOCK_RECORD
5
1F
100
AcDbSymbolTableRecord
100
AcDbBlockTableRecord
2
*MODEL_SPACE
0
BLOCK_RECORD
5
1B
100
AcDbSymbolTableRecord
100
AcDbBlockTableRecord
2
*PAPER_SPACE
0
ENDTAB
0
ENDSEC
0
SECTION
2
BLOCKS
0
BLOCK
5
20
100
AcDbEntity
100
AcDbBlockBegin
2
*MODEL_SPACE
0
ENDBLK
5
21
100
AcDbEntity
100
AcDbBlockEnd
0
BLOCK
5
1C
100
AcDbEntity
100
AcDbBlockBegin
2
*PAPER_SPACE
0
ENDBLK
5
1D
100
AcDbEntity
100
AcDbBlockEnd
0
ENDSEC
0
SECTION
2
ENTITIES
0
CIRCLE
5
100
100
AcDbEntity
8
0
100
AcDbCircle
10
0
20
0
30
0
40
25
210
0
220
0
230
1
0
CIRCLE
5
101
100
AcDbEntity
8
0
100
AcDbCircle
10
75
20
0
30
0
40
20
210
0
220
0
230
1
0
CIRCLE
5
102
100
AcDbEntity
8
0
100
AcDbCircle
10
150
20
0
30
0
40
15
210
0
220
0
230
1
0
CIRCLE
5
103
100
AcDbEntity
8
0
100
AcDbCircle
10
225
20
0
30
0
40
10
210
0
220
0
230
1
0
CIRCLE
5
104
100
AcDbEntity
8
0
100
AcDbCircle
10
300
20
0
30
0
40
5.0000000000000098
210
0
220
0
230
1
0
CIRCLE
5
105
100
AcDbEntity
8
0
100
AcDbCircle
10
225
20
0
30
0
40
10
210
0
220
0
230
1
0
CIRCLE
5
106
100
AcDbEntity
8
0
100
AcDbCircle
10
75
20
0
30
0
40
20
210
0
220
0
230
1
0
CIRCLE
5
107
100
AcDbEntity
8
0
100
AcDbCircle
10
150
20
0
30
0
40
15
210
0
220
0
230
1
0
CIRCLE
5
108
100
AcDbEntity
8
0
100
AcDbCircle
10
300
20
0
30
0
40
5.0000000000000098
210
0
220
0
230
1
0
CIRCLE
5
109
100
AcDbEntity
8
0
100
AcDbCircle
10
0
20
0
30
0
40
25
210
0
220
0
230
1
0
CIRCLE
5
110
100
AcDbEntity
8
0
100
AcDbCircle
10
375
20
0
30
0
40
2.5
210
0
220
0
230
1
0
CIRCLE
5
111
100
AcDbEntity
8
0
100
AcDbCircle
10
225
20
-71.329238722136509
30
23.17627457812106
40
10
210
0
220
-0.30901699437494751
230
0.95105651629515375
0
CIRCLE
5
112
100
AcDbEntity
8
0
100
AcDbCircle
10
0
20
-71.329238722136509
30
23.17627457812106
40
25
210
0
220
-0.30901699437494751
230
0.95105651629515375
0
CIRCLE
5
113
100
AcDbEntity
8
0
100
AcDbCircle
10
75
20
-71.329238722136509
30
23.17627457812106
40
20
210
0
220
-0.30901699437494751
230
0.95105651629515375
0
CIRCLE
5
114
100
AcDbEntity
8
0
100
AcDbCircle
10
300
20
-71.329238722136509
30
23.17627457812106
40
5.0000000000000098
210
0
220
-0.30901699437494751
230
0.95105651629515375
0
CIRCLE
5
115
100
AcDbEntity
8
0
100
AcDbCircle
10
375
20
-71.329238722136509
30
23.17627457812106
40
2.5
210
0
220
-0.30901699437494751
230
0.95105651629515375
0
CIRCLE
5
116
100
AcDbEntity
8
0
100
AcDbCircle
10
150
20
-71.329238722136509
30
23.17627457812106
40
15
210
0
220
-0.30901699437494751
230
0.95105651629515375
0
CIRCLE
5
117
100
AcDbEntity
8
0
100
AcDbCircle
10
150
20
-71.329238722136509
30
23.17627457812106
40
15
210
0
220
-0.30901699437494751
230
0.95105651629515375
0
CIRCLE
5
118
100
AcDbEntity
8
0
100
AcDbCircle
10
225
20
-71.329238722136509
30
23.17627457812106
40
10
210
0
220
-0.30901699437494751
230
0.95105651629515375
0
CIRCLE
5
119
100
AcDbEntity
8
0
100
AcDbCircle
10
0
20
-71.329238722136509
30
23.17627457812106
40
25
210
0
220
-0.30901699437494751
230
0.95105651629515375
0
CIRCLE
5
120
100
AcDbEntity
8
0
100
AcDbCircle
10
300
20
-71.329238722136509
30
23.17627457812106
40
5.0000000000000098
210
0
220
-0.30901699437494751
230
0.95105651629515375
0
CIRCLE
5
121
100
AcDbEntity
8
0
100
AcDbCircle
10
75
20
-71.329238722136509
30
23.17627457812106
40
20
210
0
220
-0.30901699437494751
230
0.95105651629515375
0
CIRCLE
5
122
100
AcDbEntity
8
0
100
AcDbCircle
10
225
20
-121.35254915624213
30
88.167787843870954
40
10
210
0
220
-0.58778525229247314
230
0.80901699437494767
0
CIRCLE
5
123
100
AcDbEntity
8
0
100
AcDbCircle
10
0
20
-121.35254915624213
30
88.167787843870954
40
25
210
0
220
-0.58778525229247314
230
0.80901699437494767
0
CIRCLE
5
124
100
AcDbEntity
8
0
100
AcDbCircle
10
75
20
-121.35254915624213
30
88.167787843870954
40
20
210
0
220
-0.58778525229247314
230
0.80901699437494767
0
CIRCLE
5
125
100
AcDbEntity
8
0
100
AcDbCircle
10
300
20
-121.35254915624213
30
88.167787843870954
40
5.0000000000000098
210
0
220
-0.58778525229247314
230
0.80901699437494767
0
CIRCLE
5
126
100
AcDbEntity
8
0
100
AcDbCircle
10
375
20
-121.35254915624213
30
88.167787843870954
40
2.5
210
0
220
-0.58778525229247314
230
0.80901699437494767
0
CIRCLE
5
127
100
AcDbEntity
8
0
100
AcDbCircle
10
150
20
-121.35254915624213
30
88.167787843870954
40
15
210
0
220
-0.58778525229247314
230
0.80901699437494767
0
CIRCLE
5
128
100
AcDbEntity
8
0
100
AcDbCircle
10
150
20
-121.35254915624213
30
88.167787843870954
40
15
210
0
220
-0.58778525229247314
230
0.80901699437494767
0
CIRCLE
5
129
100
AcDbEntity
8
0
100
AcDbCircle
10
225
20
-121.35254915624213
30
88.167787843870954
40
10
210
0
220
-0.58778525229247314
230
0.80901699437494767
0
CIRCLE
5
130
100
AcDbEntity
8
0
100
AcDbCircle
10
0
20
-121.35254915624213
30
88.167787843870954
40
25
210
0
220
-0.58778525229247314
230
0.80901699437494767
0
CIRCLE
5
131
100
AcDbEntity
8
0
100
AcDbCircle
10
300
20
-121.35254915624213
30
88.167787843870954
40
5.0000000000000098
210
0
220
-0.58778525229247314
230
0.80901699437494767
0
CIRCLE
5
132
100
AcDbEntity
8
0
100
AcDbCircle
10
75
20
-121.35254915624213
30
88.167787843870954
40
20
210
0
220
-0.58778525229247314
230
0.80901699437494767
0
CIRCLE
5
133
100
AcDbEntity
8
0
100
AcDbCircle
10
225
20
-132.25168176580644
30
182.02882373436313
40
10
210
0
220
-0.80901699437494756
230
0.58778525229247325
0
CIRCLE
5
134
100
AcDbEntity
8
0
100
AcDbCircle
10
0
20
-132.25168176580644
30
182.02882373436313
40
25
210
0
220
-0.80901699437494756
230
0.58778525229247325
0
CIRCLE
5
135
100
AcDbEntity
8
0
100
AcDbCircle
10
75
20
-132.25168176580644
30
182.02882373436313
40
20
210
0
220
-0.80901699437494756
230
0.58778525229247325
0
CIRCLE
5
136
100
AcDbEntity
8
0
100
AcDbCircle
10
300
20
-132.25168176580644
30
182.02882373436313
40
5.0000000000000098
210
0
220
-0.80901699437494756
230
0.58778525229247325
0
CIRCLE
5
137
100
AcDbEntity
8
0
100
AcDbCircle
10
375
20
-132.25168176580644
30
182.02882373436313
40
2.5
210
0
220
-0.80901699437494756
230
0.58778525229247325
0
CIRCLE
5
138
100
AcDbEntity
8
0
100
AcDbCircle
10
150
20
-132.25168176580644
30
182.02882373436313
40
15
210
0
220
-0.80901699437494756
230
0.58778525229247325
0
CIRCLE
5
139
100
AcDbEntity
8
0
100
AcDbCircle
10
150
20
-132.25168176580644
30
182.02882373436313
40
15
210
0
220
-0.80901699437494756
230
0.58778525229247325
0
CIRCLE
5
140
100
AcDbEntity
8
0
100
AcDbCircle
10
225
20
-132.25168176580644
30
182.02882373436313
40
10
210
0
220
-0.80901699437494756
230
0.58778525229247325
0
CIRCLE
5
141
100
AcDbEntity
8
0
100
AcDbCircle
10
0
20
-132.25168176580644
30
182.02882373436313
40
25
210
0
220
-0.80901699437494756
230
0.58778525229247325
0
CIRCLE
5
142
100
AcDbEntity
8
0
100
AcDbCircle
10
300
20
-132.25168176580644
30
182.02882373436313
40
5.0000000000000098
210
0
220
-0.80901699437494756
230
0.58778525229247325
0
CIRCLE
5
143
100
AcDbEntity
8
0
100
AcDbCircle
10
75
20
-132.25168176580644
30
182.02882373436313
40
20
210
0
220
-0.80901699437494756
230
0.58778525229247325
0
CIRCLE
5
144
100
AcDbEntity
8
0
100
AcDbCircle
10
225
20
-92.705098312484239
30
285.31695488854609
40
10
210
0
220
-0.95105651629515364
230
0.30901699437494745
0
CIRCLE
5
145
100
AcDbEntity
8
0
100
AcDbCircle
10
0
20
-92.705098312484239
30
285.31695488854609
40
25
210
0
220
-0.95105651629515364
230
0.30901699437494745
0
CIRCLE
5
146
100
AcDbEntity
8
0
100
AcDbCircle
10
75
20
-92.705098312484239
30
285.31695488854609
40
20
210
0
220
-0.95105651629515364
230
0.30901699437494745
0
CIRCLE
5
147
100
AcDbEntity
8
0
100
AcDbCircle
10
300
20
-92.705098312484239
30
285.31695488854609
40
5.0000000000000098
210
0
220
-0.95105651629515364
230
0.30901699437494745
0
CIRCLE
5
148
100
AcDbEntity
8
0
100
AcDbCircle
10
375
20
-92.705098312484239
30
285.31695488854609
40
2.5
210
0
220
-0.95105651629515364
230
0.30901699437494745
0
CIRCLE
5
149
100
AcDbEntity
8
0
100
AcDbCircle
10
150
20
-92.705098312484239
30
285.31695488854609
40
15
210
0
220
-0.95105651629515364
230
0.30901699437494745
0
CIRCLE
5
150
100
AcDbEntity
8
0
100
AcDbCircle
10
150
20
-92.705098312484239
30
285.31695488854609
40
15
210
0
220
-0.95105651629515364
230
0.30901699437494745
0
CIRCLE
5
151
100
AcDbEntity
8
0
100
AcDbCircle
10
225
20
-92.705098312484239
30
285.31695488854609
40
10
210
0
220
-0.95105651629515364
230
0.30901699437494745
0
CIRCLE
5
152
100
AcDbEntity
8
0
100
AcDbCircle
10
0
20
-92.705098312484239
30
285.31695488854609
40
25
210
0
220
-0.95105651629515364
230
0.30901699437494745
0
CIRCLE
5
153
100
AcDbEntity
8
0
100
AcDbCircle
10
300
20
-92.705098312484239
30
285.31695488854609
40
5.0000000000000098
210
0
220
-0.95105651629515364
230
0.30901699437494745
0
CIRCLE
5
154
100
AcDbEntity
8
0
100
AcDbCircle
10
75
20
-92.705098312484239
30
285.31695488854609
40
20
210
0
220
-0.95105651629515364
230
0.30901699437494745
0
CIRCLE
5
155
100
AcDbEntity
8
0
100
AcDbCircle
10
225
20
8.3266726846886728e-14
30
375
40
10
210
0
220
-1
230
-2.2204460492503126e-16
0
CIRCLE
5
156
100
AcDbEntity
8
0
100
AcDbCircle
10
0
20
8.3266726846886728e-14
30
375
40
25
210
0
220
-1
230
-2.2204460492503126e-16
0
CIRCLE
5
157
100
AcDbEntity
8
0
100
AcDbCircle
10
75
20
8.3266726846886728e-14
30
375
40
20
210
0
220
-1
230
-2.2204460492503126e-16
0
CIRCLE
5
158
100
AcDbEntity
8
0
100
AcDbCircle
10
300
20
8.3266726846886728e-14
30
375
40
5.0000000000000098
210
0
220
-1
230
-2.2204460492503126e-16
0
CIRCLE
5
159
100
AcDbEntity
8
0
100
AcDbCircle
10
375
20
8.3266726846886728e-14
30
375
40
2.5
210
0
220
-1
230
-2.2204460492503126e-16
0
CIRCLE
5
160
100
AcDbEntity
8
0
100
AcDbCircle
10
150
20
8.3266726846886728e-14
30
375
40
15
210
0
220
-1
230
-2.2204460492503126e-16
0
CIRCLE
5
161
100
AcDbEntity
8
0
100
AcDbCircle
10
150
20
8.3266726846886728e-14
30
375
40
15
210
0
220
-1
230
-2.2204460492503126e-16
0
CIRCLE
5
162
100
AcDbEntity
8
0
100
AcDbCircle
10
225
20
8.3266726846886728e-14
30
375
40
10
210
0
220
-1
230
-2.2204460492503126e-16
0
CIRCLE
5
163
100
AcDbEntity
8
0
100
AcDbCircle
10
0
20
8.3266726846886728e-14
30
375
40
25
210
0
220
-1
230
-2.2204460492503126e-16
0
CIRCLE
5
164
100
AcDbEntity
8
0
100
AcDbCircle
10
300
20
8.3266726846886728e-14
30
375
40
5.0000000000000098
210
0
220
-1
230
-2.2204460492503126e-16
0
CIRCLE
5
165
100
AcDbEntity
8
0
100
AcDbCircle
10
75
20
8.3266726846886728e-14
30
375
40
20
210
0
220
-1
230
-2.2204460492503126e-16
0
CIRCLE
5
166
100
AcDbEntity
8
0
100
AcDbCircle
10
75
20
0
30
75
40
20
210
0
220
0
230
1
0
CIRCLE
5
167
100
AcDbEntity
8
0
100
AcDbCircle
10
300
20
0
30
75
40
5.0000000000000098
210
0
220
0
230
1
0
CIRCLE
5
168
100
AcDbEntity
8
0
100
AcDbCircle
10
0
20
0
30
75
40
25
210
0
220
0
230
1
0
CIRCLE
5
169
100
AcDbEntity
8
0
100
AcDbCircle
10
150
20
0
30
75
40
15
210
0
220
0
230
1
0
CIRCLE
5
170
100
AcDbEntity
8
0
100
AcDbCircle
10
75
20
0
30
75
40
20
210
0
220
0
230
1
0
CIRCLE
5
171
100
AcDbEntity
8
0
100
AcDbCircle
10
225
20
0
30
75
40
10
210
0
220
0
230
1
0
CIRCLE
5
172
100
AcDbEntity
8
0
100
AcDbCircle
10
150
20
0
30
75
40
15
210
0
220
0
230
1
0
CIRCLE
5
173
100
AcDbEntity
8
0
100
AcDbCircle
10
225
20
0
30
75
40
10
210
0
220
0
230
1
0
CIRCLE
5
174
100
AcDbEntity
8
0
100
AcDbCircle
10
0
20
0
30
75
40
25
210
0
220
0
230
1
0
CIRCLE
5
175
100
AcDbEntity
8
0
100
AcDbCircle
10
375
20
0
30
75
40
2.5
210
0
220
0
230
1
0
CIRCLE
5
176
100
AcDbEntity
8
0
100
AcDbCircle
10
300
20
0
30
75
40
5.0000000000000098
210
0
220
0
230
1
0
CIRCLE
5
177
100
AcDbEntity
8
0
100
AcDbCircle
10
375
20
-71.575407187685428
30
226.11271765629868
40
2.5
210
0
220
-0.80901699437494734
230
0.58778525229247314
0
CIRCLE
5
178
100
AcDbEntity
8
0
100
AcDbCircle
10
300
20
-48.152964144015471
30
94.505513300257604
40
5.0000000000000098
210
0
220
-0.30901699437494745
230
0.95105651629515353
0
CIRCLE
5
179
100
AcDbEntity
8
0
100
AcDbCircle
10
0
20
-77.268655234306664
30
148.84406242199205
40
25
210
0
220
-0.58778525229247303
230
0.80901699437494745
0
CIRCLE
5
180
100
AcDbEntity
8
0
100
AcDbCircle
10
0
20
75.000000000000085
30
375
40
25
210
0
220
-1
230
-2.2204460492503126e-16
0
CIRCLE
5
181
100
AcDbEntity
8
0
100
AcDbCircle
10
225
20
-21.375859590347712
30
308.49322946666712
40
10
210
0
220
-0.95105651629515364
230
0.30901699437494745
0
CIRCLE
5
182
100
AcDbEntity
8
0
100
AcDbCircle
10
300
20
-48.152964144015471
30
94.505513300257604
40
5.0000000000000098
210
0
220
-0.30901699437494745
230
0.95105651629515353
0
CIRCLE
5
183
100
AcDbEntity
8
0
100
AcDbCircle
10
0
20
-77.268655234306664
30
148.84406242199205
40
25
210
0
220
-0.58778525229247303
230
0.80901699437494745
0
CIRCLE
5
184
100
AcDbEntity
8
0
100
AcDbCircle
10
375
20
-77.268655234306664
30
148.84406242199205
40
2.5
210
0
220
-0.58778525229247303
230
0.80901699437494745
0
CIRCLE
5
185
100
AcDbEntity
8
0
100
AcDbCircle
10
375
20
75.000000000000085
30
375
40
2.5
210
0
220
-1
230
-2.2204460492503126e-16
0
CIRCLE
5
186
100
AcDbEntity
8
0
100
AcDbCircle
10
300
20
-77.268655234306664
30
148.84406242199205
40
5.0000000000000098
210
0
220
-0.58778525229247303
230
0.80901699437494745
0
CIRCLE
5
187
100
AcDbEntity
8
0
100
AcDbCircle
10
225
20
-77.268655234306664
30
148.84406242199205
40
10
210
0
220
-0.58778525229247303
230
0.80901699437494745
0
CIRCLE
5
188
100
AcDbEntity
8
0
100
AcDbCircle
10
75
20
-77.268655234306664
30
148.84406242199205
40
20
210
0
220
-0.58778525229247303
230
0.80901699437494745
0
CIRCLE
5
189
100
AcDbEntity
8
0
100
AcDbCircle
10
300
20
-21.375859590347712
30
308.49322946666712
40
5.0000000000000098
210
0
220
-0.95105651629515364
230
0.30901699437494745
0
CIRCLE
5
190
100
AcDbEntity
8
0
100
AcDbCircle
10
225
20
-48.152964144015471
30
94.505513300257604
40
10
210
0
220
-0.30901699437494745
230
0.95105651629515353
0
CIRCLE
5
191
100
AcDbEntity
8
0
100
AcDbCircle
10
375
20
-21.375859590347712
30
308.49322946666712
40
2.5
210
0
220
-0.95105651629515364
230
0.30901699437494745
0
CIRCLE
5
192
100
AcDbEntity
8
0
100
AcDbCircle
10
0
20
-21.375859590347712
30
308.49322946666712
40
25
210
0
220
-0.95105651629515364
230
0.30901699437494745
0
CIRCLE
5
193
100
AcDbEntity
8
0
100
AcDbCircle
10
75
20
-71.575407187685428
30
226.11271765629868
40
20
210
0
220
-0.80901699437494734
230
0.58778525229247314
0
CIRCLE
5
194
100
AcDbEntity
8
0
100
AcDbCircle
10
150
20
-71.575407187685428
30
226.11271765629868
40
15
210
0
220
-0.80901699437494734
230
0.58778525229247314
0
CIRCLE
5
195
100
AcDbEntity
8
0
100
AcDbCircle
10
150
20
-21.375859590347712
30
308.49322946666712
40
15
210
0
220
-0.95105651629515364
230
0.30901699437494745
0
CIRCLE
5
196
100
AcDbEntity
8
0
100
AcDbCircle
10
0
20
-71.575407187685428
30
226.11271765629868
40
25
210
0
220
-0.80901699437494734
230
0.58778525229247314
0
CIRCLE
5
197
100
AcDbEntity
8
0
100
AcDbCircle
10
300
20
-71.575407187685428
30
226.11271765629868
40
5.0000000000000098
210
0
220
-0.80901699437494734
230
0.58778525229247314
0
CIRCLE
5
198
100
AcDbEntity
8
0
100
AcDbCircle
10
75
20
-48.152964144015471
30
94.505513300257604
40
20
210
0
220
-0.30901699437494745
230
0.95105651629515353
0
CIRCLE
5
199
100
AcDbEntity
8
0
100
AcDbCircle
10
150
20
-48.152964144015471
30
94.505513300257604
40
15
210
0
220
-0.30901699437494745
230
0.95105651629515353
0
CIRCLE
5
200
100
AcDbEntity
8
0
100
AcDbCircle
10
150
20
-77.268655234306664
30
148.84406242199205
40
15
210
0
220
-0.58778525229247303
230
0.80901699437494745
0
CIRCLE
5
201
100
AcDbEntity
8
0
100
AcDbCircle
10
225
20
75.000000000000085
30
375
40
10
210
0
220
-1
230
-2.2204460492503126e-16
0
CIRCLE
5
202
100
AcDbEntity
8
0
100
AcDbCircle
10
225
20
-48.152964144015471
30
94.505513300257604
40
10
210
0
220
-0.30901699437494745
230
0.95105651629515353
0
CIRCLE
5
203
100
AcDbEntity
8
0
100
AcDbCircle
10
0
20
75.000000000000085
30
375
40
25
210
0
220
-1
230
-2.2204460492503126e-16
0
CIRCLE
5
204
100
AcDbEntity
8
0
100
AcDbCircle
10
0
20
-48.152964144015471
30
94.505513300257604
40
25
210
0
220
-0.30901699437494745
230
0.95105651629515353
0
CIRCLE
5
205
100
AcDbEntity
8
0
100
AcDbCircle
10
300
20
-77.268655234306664
30
148.84406242199205
40
5.0000000000000098
210
0
220
-0.58778525229247303
230
0.80901699437494745
0
CIRCLE
5
206
100
AcDbEntity
8
0
100
AcDbCircle
10
375
20
-48.152964144015471
30
94.505513300257604
40
2.5
210
0
220
-0.30901699437494745
230
0.95105651629515353
0
CIRCLE
5
207
100
AcDbEntity
8
0
100
AcDbCircle
10
225
20
75.000000000000085
30
375
40
10
210
0
220
-1
230
-2.2204460492503126e-16
0
CIRCLE
5
208
100
AcDbEntity
8
0
100
AcDbCircle
10
75
20
-21.375859590347712
30
308.49322946666712
40
20
210
0
220
-0.95105651629515364
230
0.30901699437494745
0
CIRCLE
5
209
100
AcDbEntity
8
0
100
AcDbCircle
10
75
20
-77.268655234306664
30
148.84406242199205
40
20
210
0
220
-0.58778525229247303
230
0.80901699437494745
0
CIRCLE
5
210
100
AcDbEntity
8
0
100
AcDbCircle
10
0
20
-71.575407187685428
30
226.11271765629868
40
25
210
0
220
-0.80901699437494734
230
0.58778525229247314
0
CIRCLE
5
211
100
AcDbEntity
8
0
100
AcDbCircle
10
300
20
75.000000000000085
30
375
40
5.0000000000000098
210
0
220
-1
230
-2.2204460492503126e-16
0
CIRCLE
5
212
100
AcDbEntity
8
0
100
AcDbCircle
10
300
20
-21.375859590347712
30
308.49322946666712
40
5.0000000000000098
210
0
220
-0.95105651629515364
230
0.30901699437494745
0
CIRCLE
5
213
100
AcDbEntity
8
0
100
AcDbCircle
10
75
20
-71.575407187685428
30
226.11271765629868
40
20
210
0
220
-0.80901699437494734
230
0.58778525229247314
0
CIRCLE
5
214
100
AcDbEntity
8
0
100
AcDbCircle
10
150
20
-71.575407187685428
30
226.11271765629868
40
15
210
0
220
-0.80901699437494734
230
0.58778525229247314
0
CIRCLE
5
215
100
AcDbEntity
8
0
100
AcDbCircle
10
75
20
-48.152964144015471
30
94.505513300257604
40
20
210
0
220
-0.30901699437494745
230
0.95105651629515353
0
CIRCLE
5
216
100
AcDbEntity
8
0
100
AcDbCircle
10
225
20
-77.268655234306664
30
148.84406242199205
40
10
210
0
220
-0.58778525229247303
230
0.80901699437494745
0
CIRCLE
5
217
100
AcDbEntity
8
0
100
AcDbCircle
10
300
20
-71.575407187685428
30
226.11271765629868
40
5.0000000000000098
210
0
220
-0.80901699437494734
230
0.58778525229247314
0
CIRCLE
5
218
100
AcDbEntity
8
0
100
AcDbCircle
10
150
20
-48.152964144015471
30
94.505513300257604
40
15
210
0
220
-0.30901699437494745
230
0.95105651629515353
0
CIRCLE
5
219
100
AcDbEntity
8
0
100
AcDbCircle
10
0
20
-48.152964144015471
30
94.505513300257604
40
25
210
0
220
-0.30901699437494745
230
0.95105651629515353
0
CIRCLE
5
220
100
AcDbEntity
8
0
100
AcDbCircle
10
150
20
-77.268655234306664
30
148.84406242199205
40
15
210
0
220
-0.58778525229247303
230
0.80901699437494745
0
CIRCLE
5
221
100
AcDbEntity
8
0
100
AcDbCircle
10
225
20
-71.575407187685428
30
226.11271765629868
40
10
210
0
220
-0.80901699437494734
230
0.58778525229247314
0
CIRCLE
5
222
100
AcDbEntity
8
0
100
AcDbCircle
10
75
20
75.000000000000085
30
375
40
20
210
0
220
-1
230
-2.2204460492503126e-16
0
CIRCLE
5
223
100
AcDbEntity
8
0
100
AcDbCircle
10
300
20
75.000000000000085
30
375
40
5.0000000000000098
210
0
220
-1
230
-2.2204460492503126e-16
0
CIRCLE
5
224
100
AcDbEntity
8
0
100
AcDbCircle
10
75
20
75.000000000000085
30
375
40
20
210
0
220
-1
230
-2.2204460492503126e-16
0
CIRCLE
5
225
100
AcDbEntity
8
0
100
AcDbCircle
10
225
20
-71.575407187685428
30
226.11271765629868
40
10
210
0
220
-0.80901699437494734
230
0.58778525229247314
0
CIRCLE
5
226
100
AcDbEntity
8
0
100
AcDbCircle
10
75
20
-21.375859590347712
30
308.49322946666712
40
20
210
0
220
-0.95105651629515364
230
0.30901699437494745
0
CIRCLE
5
227
100
AcDbEntity
8
0
100
AcDbCircle
10
0
20
-21.375859590347712
30
308.49322946666712
40
25
210
0
220
-0.95105651629515364
230
0.30901699437494745
0
CIRCLE
5
228
100
AcDbEntity
8
0
100
AcDbCircle
10
225
20
-21.375859590347712
30
308.49322946666712
40
10
210
0
220
-0.95105651629515364
230
0.30901699437494745
0
CIRCLE
5
229
100
AcDbEntity
8
0
100
AcDbCircle
10
150
20
-21.375859590347712
30
308.49322946666712
40
15
210
0
220
-0.95105651629515364
230
0.30901699437494745
0
CIRCLE
5
230
100
AcDbEntity
8
0
100
AcDbCircle
10
150
20
75.000000000000085
30
375
40
15
210
0
220
-1
230
-2.2204460492503126e-16
0
CIRCLE
5
231
100
AcDbEntity
8
0
100
AcDbCircle
10
150
20
75.000000000000085
30
375
40
15
210
0
220
-1
230
-2.2204460492503126e-16
0
CIRCLE
5
232
100
AcDbEntity
8
0
100
AcDbCircle
10
150
20
-33.18476131237118
30
209.52033700011313
40
15
210
0
220
-0.58778525229247303
230
0.80901699437494745
0
CIRCLE
5
233
100
AcDbEntity
8
0
100
AcDbCircle
10
150
20
-10.899132609564361
30
270.19661157823418
40
15
210
0
220
-0.80901699437494734
230
0.58778525229247314
0
CIRCLE
5
234
100
AcDbEntity
8
0
100
AcDbCircle
10
75
20
-33.18476131237118
30
209.52033700011313
40
20
210
0
220
-0.58778525229247303
230
0.80901699437494745
0
CIRCLE
5
235
100
AcDbEntity
8
0
100
AcDbCircle
10
75
20
150.00000000000009
30
375
40
20
210
0
220
-1
230
-2.2204460492503126e-16
0
CIRCLE
5
236
100
AcDbEntity
8
0
100
AcDbCircle
10
150
20
-33.18476131237118
30
209.52033700011313
40
15
210
0
220
-0.58778525229247303
230
0.80901699437494745
0
CIRCLE
5
237
100
AcDbEntity
8
0
100
AcDbCircle
10
75
20
49.953379131788807
30
331.6695040447882
40
20
210
0
220
-0.95105651629515364
230
0.30901699437494745
0
CIRCLE
5
238
100
AcDbEntity
8
0
100
AcDbCircle
10
150
20
49.953379131788807
30
331.6695040447882
40
15
210
0
220
-0.95105651629515364
230
0.30901699437494745
0
CIRCLE
5
239
100
AcDbEntity
8
0
100
AcDbCircle
10
0
20
49.953379131788807
30
331.6695040447882
40
25
210
0
220
-0.95105651629515364
230
0.30901699437494745
0
CIRCLE
5
240
100
AcDbEntity
8
0
100
AcDbCircle
10
0
20
-10.899132609564361
30
270.19661157823418
40
25
210
0
220
-0.80901699437494734
230
0.58778525229247314
0
CIRCLE
5
241
100
AcDbEntity
8
0
100
AcDbCircle
10
75
20
-10.899132609564361
30
270.19661157823418
40
20
210
0
220
-0.80901699437494734
230
0.58778525229247314
0
CIRCLE
5
242
100
AcDbEntity
8
0
100
AcDbCircle
10
0
20
150.00000000000009
30
375
40
25
210
0
220
-1
230
-2.2204460492503126e-16
0
CIRCLE
5
243
100
AcDbEntity
8
0
100
AcDbCircle
10
0
20
-33.18476131237118
30
209.52033700011313
40
25
210
0
220
-0.58778525229247303
230
0.80901699437494745
0
CIRCLE
5
244
100
AcDbEntity
8
0
100
AcDbCircle
10
75
20
-33.18476131237118
30
209.52033700011313
40
20
210
0
220
-0.58778525229247303
230
0.80901699437494745
0
CIRCLE
5
245
100
AcDbEntity
8
0
100
AcDbCircle
10
75
20
-10.899132609564361
30
270.19661157823418
40
20
210
0
220
-0.80901699437494734
230
0.58778525229247314
0
CIRCLE
5
246
100
AcDbEntity
8
0
100
AcDbCircle
10
225
20
-33.18476131237118
30
209.52033700011313
40
10
210
0
220
-0.58778525229247303
230
0.80901699437494745
0
CIRCLE
5
247
100
AcDbEntity
8
0
100
AcDbCircle
10
225
20
-24.976689565894404
30
165.83475202239413
40
10
210
0
220
-0.30901699437494745
230
0.95105651629515353
0
CIRCLE
5
248
100
AcDbEntity
8
0
100
AcDbCircle
10
0
20
150.00000000000009
30
375
40
25
210
0
220
-1
230
-2.2204460492503126e-16
0
CIRCLE
5
249
100
AcDbEntity
8
0
100
AcDbCircle
10
75
20
0
30
150
40
20
210
0
220
0
230
1
0
CIRCLE
5
250
100
AcDbEntity
8
0
100
AcDbCircle
10
75
20
150.00000000000009
30
375
40
20
210
0
220
-1
230
-2.2204460492503126e-16
0
CIRCLE
5
251
100
AcDbEntity
8
0
100
AcDbCircle
10
150
20
-24.976689565894404
30
165.83475202239413
40
15
210
0
220
-0.30901699437494745
230
0.95105651629515353
0
CIRCLE
5
252
100
AcDbEntity
8
0
100
AcDbCircle
10
75
20
-24.976689565894404
30
165.83475202239413
40
20
210
0
220
-0.30901699437494745
230
0.95105651629515353
0
CIRCLE
5
253
100
AcDbEntity
8
0
100
AcDbCircle
10
0
20
-33.18476131237118
30
209.52033700011313
40
25
210
0
220
-0.58778525229247303
230
0.80901699437494745
0
CIRCLE
5
254
100
AcDbEntity
8
0
100
AcDbCircle
10
150
20
-24.976689565894404
30
165.83475202239413
40
15
210
0
220
-0.30901699437494745
230
0.95105651629515353
0
CIRCLE
5
255
100
AcDbEntity
8
0
100
AcDbCircle
10
0
20
-24.976689565894404
30
165.83475202239413
40
25
210
0
220
-0.30901699437494745
230
0.95105651629515353
0
CIRCLE
5
256
100
AcDbEntity
8
0
100
AcDbCircle
10
150
20
150.00000000000009
30
375
40
15
210
0
220
-1
230
-2.2204460492503126e-16
0
CIRCLE
5
257
100
AcDbEntity
8
0
100
AcDbCircle
10
0
20
49.953379131788807
30
331.6695040447882
40
25
210
0
220
-0.95105651629515364
230
0.30901699437494745
0
CIRCLE
5
258
100
AcDbEntity
8
0
100
AcDbCircle
10
150
20
150.00000000000009
30
375
40
15
210
0
220
-1
230
-2.2204460492503126e-16
0
CIRCLE
5
259
100
AcDbEntity
8
0
100
AcDbCircle
10
0
20
0
30
150
40
25
210
0
220
0
230
1
0
CIRCLE
5
260
100
AcDbEntity
8
0
100
AcDbCircle
10
150
20
49.953379131788807
30
331.6695040447882
40
15
210
0
220
-0.95105651629515364
230
0.30901699437494745
0
CIRCLE
5
261
100
AcDbEntity
8
0
100
AcDbCircle
10
75
20
49.953379131788807
30
331.6695040447882
40
20
210
0
220
-0.95105651629515364
230
0.30901699437494745
0
CIRCLE
5
262
100
AcDbEntity
8
0
100
AcDbCircle
10
300
20
0
30
150
40
5.0000000000000098
210
0
220
0
230
1
0
CIRCLE
5
263
100
AcDbEntity
8
0
100
AcDbCircle
10
0
20
-10.899132609564361
30
270.19661157823418
40
25
210
0
220
-0.80901699437494734
230
0.58778525229247314
0
CIRCLE
5
264
100
AcDbEntity
8
0
100
AcDbCircle
10
300
20
-33.18476131237118
30
209.52033700011313
40
5.0000000000000098
210
0
220
-0.58778525229247303
230
0.80901699437494745
0
CIRCLE
5
265
100
AcDbEntity
8
0
100
AcDbCircle
10
300
20
150.00000000000009
30
375
40
5.0000000000000098
210
0
220
-1
230
-2.2204460492503126e-16
0
CIRCLE
5
266
100
AcDbEntity
8
0
100
AcDbCircle
10
225
20
-33.18476131237118
30
209.52033700011313
40
10
210
0
220
-0.58778525229247303
230
0.80901699437494745
0
CIRCLE
5
267
100
AcDbEntity
8
0
100
AcDbCircle
10
375
20
-10.899132609564361
30
270.19661157823418
40
2.5
210
0
220
-0.80901699437494734
230
0.58778525229247314
0
CIRCLE
5
268
100
AcDbEntity
8
0
100
AcDbCircle
10
375
20
-33.18476131237118
30
209.52033700011313
40
2.5
210
0
220
-0.58778525229247303
230
0.80901699437494745
0
CIRCLE
5
269
100
AcDbEntity
8
0
100
AcDbCircle
10
225
20
49.953379131788807
30
331.6695040447882
40
10
210
0
220
-0.95105651629515364
230
0.30901699437494745
0
CIRCLE
5
270
100
AcDbEntity
8
0
100
AcDbCircle
10
375
20
-24.976689565894404
30
165.83475202239413
40
2.5
210
0
220
-0.30901699437494745
230
0.95105651629515353
0
CIRCLE
5
271
100
AcDbEntity
8
0
100
AcDbCircle
10
225
20
-24.976689565894404
30
165.83475202239413
40
10
210
0
220
-0.30901699437494745
230
0.95105651629515353
0
CIRCLE
5
272
100
AcDbEntity
8
0
100
AcDbCircle
10
300
20
-24.976689565894404
30
165.83475202239413
40
5.0000000000000098
210
0
220
-0.30901699437494745
230
0.95105651629515353
0
CIRCLE
5
273
100
AcDbEntity
8
0
100
AcDbCircle
10
0
20
0
30
150
40
25
210
0
220
0
230
1
0
CIRCLE
5
274
100
AcDbEntity
8
0
100
AcDbCircle
10
225
20
150.00000000000009
30
375
40
10
210
0
220
-1
230
-2.2204460492503126e-16
0
CIRCLE
5
275
100
AcDbEntity
8
0
100
AcDbCircle
10
150
20
-10.899132609564361
30
270.19661157823418
40
15
210
0
220
-0.80901699437494734
230
0.58778525229247314
0
CIRCLE
5
276
100
AcDbEntity
8
0
100
AcDbCircle
10
225
20
-10.899132609564361
30
270.19661157823418
40
10
210
0
220
-0.80901699437494734
230
0.58778525229247314
0
CIRCLE
5
277
100
AcDbEntity
8
0
100
AcDbCircle
10
300
20
-10.899132609564361
30
270.19661157823418
40
5.0000000000000098
210
0
220
-0.80901699437494734
230
0.58778525229247314
0
CIRCLE
5
278
100
AcDbEntity
8
0
100
AcDbCircle
10
225
20
150.00000000000009
30
375
40
10
210
0
220
-1
230
-2.2204460492503126e-16
0
CIRCLE
5
279
100
AcDbEntity
8
0
100
AcDbCircle
10
0
20
-24.976689565894404
30
165.83475202239413
40
25
210
0
220
-0.30901699437494745
230
0.95105651629515353
0
CIRCLE
5
280
100
AcDbEntity
8
0
100
AcDbCircle
10
225
20
0
30
150
40
10
210
0
220
0
230
1
0
CIRCLE
5
281
100
AcDbEntity
8
0
100
AcDbCircle
10
150
20
0
30
150
40
15
210
0
220
0
230
1
0
CIRCLE
5
282
100
AcDbEntity
8
0
100
AcDbCircle
10
75
20
0
30
150
40
20
210
0
220
0
230
1
0
CIRCLE
5
283
100
AcDbEntity
8
0
100
AcDbCircle
10
150
20
0
30
150
40
15
210
0
220
0
230
1
0
CIRCLE
5
284
100
AcDbEntity
8
0
100
AcDbCircle
10
75
20
-24.976689565894404
30
165.83475202239413
40
20
210
0
220
-0.30901699437494745
230
0.95105651629515353
0
CIRCLE
5
285
100
AcDbEntity
8
0
100
AcDbCircle
10
300
20
-24.976689565894404
30
165.83475202239413
40
5.0000000000000098
210
0
220
-0.30901699437494745
230
0.95105651629515353
0
CIRCLE
5
286
100
AcDbEntity
8
0
100
AcDbCircle
10
300
20
0
30
150
40
5.0000000000000098
210
0
220
0
230
1
0
CIRCLE
5
287
100
AcDbEntity
8
0
100
AcDbCircle
10
300
20
-33.18476131237118
30
209.52033700011313
40
5.0000000000000098
210
0
220
-0.58778525229247303
230
0.80901699437494745
0
CIRCLE
5
288
100
AcDbEntity
8
0
100
AcDbCircle
10
300
20
49.953379131788807
30
331.6695040447882
40
5.0000000000000098
210
0
220
-0.95105651629515364
230
0.30901699437494745
0
CIRCLE
5
289
100
AcDbEntity
8
0
100
AcDbCircle
10
300
20
150.00000000000009
30
375
40
5.0000000000000098
210
0
220
-1
230
-2.2204460492503126e-16
0
CIRCLE
5
290
100
AcDbEntity
8
0
100
AcDbCircle
10
300
20
-10.899132609564361
30
270.19661157823418
40
5.0000000000000098
210
0
220
-0.80901699437494734
230
0.58778525229247314
0
CIRCLE
5
291
100
AcDbEntity
8
0
100
AcDbCircle
10
375
20
49.953379131788807
30
331.6695040447882
40
2.5
210
0
220
-0.95105651629515364
230
0.30901699437494745
0
CIRCLE
5
292
100
AcDbEntity
8
0
100
AcDbCircle
10
225
20
49.953379131788807
30
331.6695040447882
40
10
210
0
220
-0.95105651629515364
230
0.30901699437494745
0
CIRCLE
5
293
100
AcDbEntity
8
0
100
AcDbCircle
10
375
20
0
30
150
40
2.5
210
0
220
0
230
1
0
CIRCLE
5
294
100
AcDbEntity
8
0
100
AcDbCircle
10
225
20
0
30
150
40
10
210
0
220
0
230
1
0
CIRCLE
5
295
100
AcDbEntity
8
0
100
AcDbCircle
10
300
20
49.953379131788807
30
331.6695040447882
40
5.0000000000000098
210
0
220
-0.95105651629515364
230
0.30901699437494745
0
CIRCLE
5
296
100
AcDbEntity
8
0
100
AcDbCircle
10
375
20
150.00000000000009
30
375
40
2.5
210
0
220
-1
230
-2.2204460492503126e-16
0
CIRCLE
5
297
100
AcDbEntity
8
0
100
AcDbCircle
10
225
20
-10.899132609564361
30
270.19661157823418
40
10
210
0
220
-0.80901699437494734
230
0.58778525229247314
0
CIRCLE
5
298
100
AcDbEntity
8
0
100
AcDbCircle
10
225
20
21.375859590347723
30
308.49322946666712
40
10
210
0
220
-0.30901699437494751
230
0.95105651629515375
0
CIRCLE
5
299
100
AcDbEntity
8
0
100
AcDbCircle
10
75
20
21.375859590347723
30
308.49322946666712
40
20
210
0
220
-0.30901699437494751
230
0.95105651629515375
0
CIRCLE
5
300
100
AcDbEntity
8
0
100
AcDbCircle
10
375
20
-1.8004149877733422
30
237.16399074453065
40
2.5
210
0
220
-0.30901699437494745
230
0.95105651629515353
0
CIRCLE
5
301
100
AcDbEntity
8
0
100
AcDbCircle
10
0
20
54.983026531499775
30
330.87288615635521
40
25
210
0
220
-0.58778525229247314
230
0.80901699437494767
0
CIRCLE
5
302
100
AcDbEntity
8
0
100
AcDbCircle
10
150
20
54.983026531499775
30
330.87288615635521
40
15
210
0
220
-0.58778525229247314
230
0.80901699437494767
0
CIRCLE
5
303
100
AcDbEntity
8
0
100
AcDbCircle
10
75
20
-1.8004149877733422
30
237.16399074453065
40
20
210
0
220
-0.30901699437494745
230
0.95105651629515353
0
CIRCLE
5
304
100
AcDbEntity
8
0
100
AcDbCircle
10
300
20
49.77714196855672
30
314.28050550016968
40
5.0000000000000098
210
0
220
-0.80901699437494734
230
0.58778525229247314
0
CIRCLE
5
305
100
AcDbEntity
8
0
100
AcDbCircle
10
150
20
21.375859590347723
30
308.49322946666712
40
15
210
0
220
-0.30901699437494751
230
0.95105651629515375
0
CIRCLE
5
306
100
AcDbEntity
8
0
100
AcDbCircle
10
225
20
54.983026531499775
30
330.87288615635521
40
10
210
0
220
-0.58778525229247314
230
0.80901699437494767
0
CIRCLE
5
307
100
AcDbEntity
8
0
100
AcDbCircle
10
75
20
110.45341654667777
30
358.36439942210507
40
20
210
0
220
-0.80901699437494756
230
0.58778525229247325
0
CIRCLE
5
308
100
AcDbEntity
8
0
100
AcDbCircle
10
150
20
192.61185657606183
30
378.02205320103036
40
15
210
0
220
-0.95105651629515364
230
0.30901699437494745
0
CIRCLE
5
309
100
AcDbEntity
8
0
100
AcDbCircle
10
0
20
21.375859590347723
30
308.49322946666712
40
25
210
0
220
-0.30901699437494751
230
0.95105651629515375
0
CIRCLE
5
310
100
AcDbEntity
8
0
100
AcDbCircle
10
375
20
225.00000000000006
30
374.99999999999994
40
2.5
210
0
220
-1
230
-2.2204460492503126e-16
0
CIRCLE
5
311
100
AcDbEntity
8
0
100
AcDbCircle
10
150
20
110.45341654667777
30
358.36439942210507
40
15
210
0
220
-0.80901699437494756
230
0.58778525229247325
0
CIRCLE
5
312
100
AcDbEntity
8
0
100
AcDbCircle
10
300
20
192.61185657606183
30
378.02205320103036
40
5.0000000000000098
210
0
220
-0.95105651629515364
230
0.30901699437494745
0
CIRCLE
5
313
100
AcDbEntity
8
0
100
AcDbCircle
10
150
20
44.552134168468783
30
379.82246818880361
40
15
210
0
220
-0.30901699437494751
230
0.95105651629515375
0
CIRCLE
5
314
100
AcDbEntity
8
0
100
AcDbCircle
10
75
20
0
30
300
40
20
210
0
220
0
230
1
0
CIRCLE
5
315
100
AcDbEntity
8
0
100
AcDbCircle
10
300
20
10.899132609564308
30
270.19661157823418
40
5.0000000000000098
210
0
220
-0.58778525229247303
230
0.80901699437494745
0
CIRCLE
5
316
100
AcDbEntity
8
0
100
AcDbCircle
10
225
20
0
30
225
40
10
210
0
220
0
230
1
0
CIRCLE
5
317
100
AcDbEntity
8
0
100
AcDbCircle
10
150
20
0
30
375
40
15
210
0
220
0
230
1
0
CIRCLE
5
318
100
AcDbEntity
8
0
100
AcDbCircle
10
225
20
99.066920453435259
30
391.54916073447623
40
10
210
0
220
-0.58778525229247314
230
0.80901699437494767
0
CIRCLE
5
319
100
AcDbEntity
8
0
100
AcDbCircle
10
300
20
99.066920453435259
30
391.54916073447623
40
5.0000000000000098
210
0
220
-0.58778525229247314
230
0.80901699437494767
0
CIRCLE
5
320
100
AcDbEntity
8
0
100
AcDbCircle
10
375
20
99.066920453435259
30
391.54916073447623
40
2.5
210
0
220
-0.58778525229247314
230
0.80901699437494767
0
CIRCLE
5
321
100
AcDbEntity
8
0
100
AcDbCircle
10
375
20
0
30
375
40
2.5
210
0
220
0
230
1
0
CIRCLE
5
322
100
AcDbEntity
8
0
100
AcDbCircle
10
300
20
121.28261785392533
30
354.84577862290928
40
5.0000000000000098
210
0
220
-0.95105651629515364
230
0.30901699437494745
0
CIRCLE
5
323
100
AcDbEntity
8
0
100
AcDbCircle
10
75
20
0
30
375
40
20
210
0
220
0
230
1
0
CIRCLE
5
324
100
AcDbEntity
8
0
100
AcDbCircle
10
225
20
99.066920453435259
30
391.54916073447623
40
10
210
0
220
-0.58778525229247314
230
0.80901699437494767
0
CIRCLE
5
325
100
AcDbEntity
8
0
100
AcDbCircle
10
300
20
121.28261785392533
30
354.84577862290928
40
5.0000000000000098
210
0
220
-0.95105651629515364
230
0.30901699437494745
0
CIRCLE
5
326
100
AcDbEntity
8
0
100
AcDbCircle
10
300
20
225.00000000000006
30
374.99999999999994
40
5.0000000000000098
210
0
220
-1
230
-2.2204460492503126e-16
0
CIRCLE
5
327
100
AcDbEntity
8
0
100
AcDbCircle
10
225
20
44.552134168468783
30
379.82246818880361
40
10
210
0
220
-0.30901699437494751
230
0.95105651629515375
0
CIRCLE
5
328
100
AcDbEntity
8
0
100
AcDbCircle
10
225
20
44.552134168468783
30
379.82246818880361
40
10
210
0
220
-0.30901699437494751
230
0.95105651629515375
0
CIRCLE
5
329
100
AcDbEntity
8
0
100
AcDbCircle
10
150
20
44.552134168468783
30
379.82246818880361
40
15
210
0
220
-0.30901699437494751
230
0.95105651629515375
0
CIRCLE
5
330
100
AcDbEntity
8
0
100
AcDbCircle
10
0
20
49.77714196855672
30
314.28050550016968
40
25
210
0
220
-0.80901699437494734
230
0.58778525229247314
0
CIRCLE
5
331
100
AcDbEntity
8
0
100
AcDbCircle
10
75
20
121.28261785392533
30
354.84577862290928
40
20
210
0
220
-0.95105651629515364
230
0.30901699437494745
0
CIRCLE
5
332
100
AcDbEntity
8
0
100
AcDbCircle
10
225
20
300.00000000000006
30
374.99999999999994
40
10
210
0
220
-1
230
-2.2204460492503126e-16
0
CIRCLE
5
333
100
AcDbEntity
8
0
100
AcDbCircle
10
375
20
0
30
225
40
2.5
210
0
220
0
230
1
0
CIRCLE
5
334
100
AcDbEntity
8
0
100
AcDbCircle
10
150
20
192.61185657606183
30
378.02205320103036
40
15
210
0
220
-0.95105651629515364
230
0.30901699437494745
0
CIRCLE
5
335
100
AcDbEntity
8
0
100
AcDbCircle
10
375
20
171.1296911247988
30
402.44829334404062
40
2.5
210
0
220
-0.80901699437494756
230
0.58778525229247325
0
CIRCLE
5
336
100
AcDbEntity
8
0
100
AcDbCircle
10
150
20
0
30
225
40
15
210
0
220
0
230
1
0
CIRCLE
5
337
100
AcDbEntity
8
0
100
AcDbCircle
10
0
20
300.00000000000006
30
374.99999999999994
40
25
210
0
220
-1
230
-2.2204460492503126e-16
0
CIRCLE
5
338
100
AcDbEntity
8
0
100
AcDbCircle
10
0
20
121.28261785392533
30
354.84577862290928
40
25
210
0
220
-0.95105651629515364
230
0.30901699437494745
0
CIRCLE
5
339
100
AcDbEntity
8
0
100
AcDbCircle
10
225
20
0
30
300
40
10
210
0
220
0
230
1
0
CIRCLE
5
340
100
AcDbEntity
8
0
100
AcDbCircle
10
150
20
121.28261785392533
30
354.84577862290928
40
15
210
0
220
-0.95105651629515364
230
0.30901699437494745
0
CIRCLE
5
341
100
AcDbEntity
8
0
100
AcDbCircle
10
300
20
54.983026531499775
30
330.87288615635521
40
5.0000000000000098
210
0
220
-0.58778525229247314
230
0.80901699437494767
0
CIRCLE
5
342
100
AcDbEntity
8
0
100
AcDbCircle
10
75
20
54.983026531499775
30
330.87288615635521
40
20
210
0
220
-0.58778525229247314
230
0.80901699437494767
0
CIRCLE
5
343
100
AcDbEntity
8
0
100
AcDbCircle
10
0
20
49.77714196855672
30
314.28050550016968
40
25
210
0
220
-0.80901699437494734
230
0.58778525229247314
0
CIRCLE
5
344
100
AcDbEntity
8
0
100
AcDbCircle
10
150
20
171.1296911247988
30
402.44829334404062
40
15
210
0
220
-0.80901699437494756
230
0.58778525229247325
0
CIRCLE
5
345
100
AcDbEntity
8
0
100
AcDbCircle
10
150
20
10.899132609564308
30
270.19661157823418
40
15
210
0
220
-0.58778525229247303
230
0.80901699437494745
0
CIRCLE
5
346
100
AcDbEntity
8
0
100
AcDbCircle
10
75
20
263.94109529819838
30
401.19832777915133
40
20
210
0
220
-0.95105651629515364
230
0.30901699437494745
0
CIRCLE
5
347
100
AcDbEntity
8
0
100
AcDbCircle
10
0
20
263.94109529819838
30
401.19832777915133
40
25
210
0
220
-0.95105651629515364
230
0.30901699437494745
0
CIRCLE
5
348
100
AcDbEntity
8
0
100
AcDbCircle
10
0
20
225.00000000000006
30
374.99999999999994
40
25
210
0
220
-1
230
-2.2204460492503126e-16
0
CIRCLE
5
349
100
AcDbEntity
8
0
100
AcDbCircle
10
375
20
375.00000000000006
30
374.99999999999994
40
2.5
210
0
220
-1
230
-2.2204460492503126e-16
0
CIRCLE
5
350
100
AcDbEntity
8
0
100
AcDbCircle
10
225
20
49.77714196855672
30
314.28050550016968
40
10
210
0
220
-0.80901699437494734
230
0.58778525229247314
0
CIRCLE
5
351
100
AcDbEntity
8
0
100
AcDbCircle
10
75
20
121.28261785392533
30
354.84577862290928
40
20
210
0
220
-0.95105651629515364
230
0.30901699437494745
0
CIRCLE
5
352
100
AcDbEntity
8
0
100
AcDbCircle
10
0
20
-1.8004149877733422
30
237.16399074453065
40
25
210
0
220
-0.30901699437494745
230
0.95105651629515353
0
CIRCLE
5
353
100
AcDbEntity
8
0
100
AcDbCircle
10
300
20
-1.8004149877733422
30
237.16399074453065
40
5.0000000000000098
210
0
220
-0.30901699437494745
230
0.95105651629515353
0
CIRCLE
5
354
100
AcDbEntity
8
0
100
AcDbCircle
10
75
20
49.77714196855672
30
314.28050550016968
40
20
210
0
220
-0.80901699437494734
230
0.58778525229247314
0
CIRCLE
5
355
100
AcDbEntity
8
0
100
AcDbCircle
10
300
20
375.00000000000006
30
374.99999999999994
40
5.0000000000000098
210
0
220
-1
230
-2.2204460492503126e-16
0
CIRCLE
5
356
100
AcDbEntity
8
0
100
AcDbCircle
10
75
20
49.77714196855672
30
314.28050550016968
40
20
210
0
220
-0.80901699437494734
230
0.58778525229247314
0
CIRCLE
5
357
100
AcDbEntity
8
0
100
AcDbCircle
10
225
20
49.77714196855672
30
314.28050550016968
40
10
210
0
220
-0.80901699437494734
230
0.58778525229247314
0
CIRCLE
5
358
100
AcDbEntity
8
0
100
AcDbCircle
10
225
20
225.00000000000006
30
374.99999999999994
40
10
210
0
220
-1
230
-2.2204460492503126e-16
0
CIRCLE
5
359
100
AcDbEntity
8
0
100
AcDbCircle
10
0
20
10.899132609564308
30
270.19661157823418
40
25
210
0
220
-0.58778525229247303
230
0.80901699437494745
0
CIRCLE
5
360
100
AcDbEntity
8
0
100
AcDbCircle
10
375
20
263.94109529819838
30
401.19832777915133
40
2.5
210
0
220
-0.95105651629515364
230
0.30901699437494745
0
CIRCLE
5
361
100
AcDbEntity
8
0
100
AcDbCircle
10
0
20
0
30
225
40
25
210
0
220
0
230
1
0
CIRCLE
5
362
100
AcDbEntity
8
0
100
AcDbCircle
10
300
20
0
30
225
40
5.0000000000000098
210
0
220
0
230
1
0
CIRCLE
5
363
100
AcDbEntity
8
0
100
AcDbCircle
10
75
20
10.899132609564308
30
270.19661157823418
40
20
210
0
220
-0.58778525229247303
230
0.80901699437494745
0
CIRCLE
5
364
100
AcDbEntity
8
0
100
AcDbCircle
10
0
20
110.45341654667777
30
358.36439942210507
40
25
210
0
220
-0.80901699437494756
230
0.58778525229247325
0
CIRCLE
5
365
100
AcDbEntity
8
0
100
AcDbCircle
10
75
20
0
30
225
40
20
210
0
220
0
230
1
0
CIRCLE
5
366
100
AcDbEntity
8
0
100
AcDbCircle
10
300
20
263.94109529819838
30
401.19832777915133
40
5.0000000000000098
210
0
220
-0.95105651629515364
230
0.30901699437494745
0
CIRCLE
5
367
100
AcDbEntity
8
0
100
AcDbCircle
10
300
20
300.00000000000006
30
374.99999999999994
40
5.0000000000000098
210
0
220
-1
230
-2.2204460492503126e-16
0
CIRCLE
5
368
100
AcDbEntity
8
0
100
AcDbCircle
10
300
20
171.1296911247988
30
402.44829334404062
40
5.0000000000000098
210
0
220
-0.80901699437494756
230
0.58778525229247325
0
CIRCLE
5
369
100
AcDbEntity
8
0
100
AcDbCircle
10
300
20
10.899132609564308
30
270.19661157823418
40
5.0000000000000098
210
0
220
-0.58778525229247303
230
0.80901699437494745
0
CIRCLE
5
370
100
AcDbEntity
8
0
100
AcDbCircle
10
150
20
99.066920453435259
30
391.54916073447623
40
15
210
0
220
-0.58778525229247314
230
0.80901699437494767
0
CIRCLE
5
371
100
AcDbEntity
8
0
100
AcDbCircle
10
0
20
110.45341654667777
30
358.36439942210507
40
25
210
0
220
-0.80901699437494756
230
0.58778525229247325
0
CIRCLE
5
372
100
AcDbEntity
8
0
100
AcDbCircle
10
225
20
10.899132609564308
30
270.19661157823418
40
10
210
0
220
-0.58778525229247303
230
0.80901699437494745
0
CIRCLE
5
373
100
AcDbEntity
8
0
100
AcDbCircle
10
75
20
300.00000000000006
30
374.99999999999994
40
20
210
0
220
-1
230
-2.2204460492503126e-16
0
CIRCLE
5
374
100
AcDbEntity
8
0
100
AcDbCircle
10
150
20
225.00000000000006
30
374.99999999999994
40
15
210
0
220
-1
230
-2.2204460492503126e-16
0
CIRCLE
5
375
100
AcDbEntity
8
0
100
AcDbCircle
10
150
20
300.00000000000006
30
374.99999999999994
40
15
210
0
220
-1
230
-2.2204460492503126e-16
0
CIRCLE
5
376
100
AcDbEntity
8
0
100
AcDbCircle
10
75
20
225.00000000000006
30
374.99999999999994
40
20
210
0
220
-1
230
-2.2204460492503126e-16
0
CIRCLE
5
377
100
AcDbEntity
8
0
100
AcDbCircle
10
225
20
0
30
225
40
10
210
0
220
0
230
1
0
CIRCLE
5
378
100
AcDbEntity
8
0
100
AcDbCircle
10
0
20
192.61185657606183
30
378.02205320103036
40
25
210
0
220
-0.95105651629515364
230
0.30901699437494745
0
CIRCLE
5
379
100
AcDbEntity
8
0
100
AcDbCircle
10
75
20
225.00000000000006
30
374.99999999999994
40
20
210
0
220
-1
230
-2.2204460492503126e-16
0
CIRCLE
5
380
100
AcDbEntity
8
0
100
AcDbCircle
10
75
20
0
30
375
40
20
210
0
220
0
230
1
0
CIRCLE
5
381
100
AcDbEntity
8
0
100
AcDbCircle
10
225
20
21.375859590347723
30
308.49322946666712
40
10
210
0
220
-0.30901699437494751
230
0.95105651629515375
0
CIRCLE
5
382
100
AcDbEntity
8
0
100
AcDbCircle
10
0
20
44.552134168468783
30
379.82246818880361
40
25
210
0
220
-0.30901699437494751
230
0.95105651629515375
0
CIRCLE
5
383
100
AcDbEntity
8
0
100
AcDbCircle
10
150
20
375.00000000000006
30
374.99999999999994
40
15
210
0
220
-1
230
-2.2204460492503126e-16
0
CIRCLE
5
384
100
AcDbEntity
8
0
100
AcDbCircle
10
375
20
110.45341654667777
30
358.36439942210507
40
2.5
210
0
220
-0.80901699437494756
230
0.58778525229247325
0
CIRCLE
5
385
100
AcDbEntity
8
0
100
AcDbCircle
10
0
20
192.61185657606183
30
378.02205320103036
40
25
210
0
220
-0.95105651629515364
230
0.30901699437494745
0
CIRCLE
5
386
100
AcDbEntity
8
0
100
AcDbCircle
10
150
20
21.375859590347723
30
308.49322946666712
40
15
210
0
220
-0.30901699437494751
230
0.95105651629515375
0
CIRCLE
5
387
100
AcDbEntity
8
0
100
AcDbCircle
10
150
20
10.899132609564308
30
270.19661157823418
40
15
210
0
220
-0.58778525229247303
230
0.80901699437494745
0
CIRCLE
5
388
100
AcDbEntity
8
0
100
AcDbCircle
10
0
20
300.00000000000006
30
374.99999999999994
40
25
210
0
220
-1
230
-2.2204460492503126e-16
0
CIRCLE
5
389
100
AcDbEntity
8
0
100
AcDbCircle
10
0
20
375.00000000000006
30
374.99999999999994
40
25
210
0
220
-1
230
-2.2204460492503126e-16
0
CIRCLE
5
390
100
AcDbEntity
8
0
100
AcDbCircle
10
75
20
99.066920453435259
30
391.54916073447623
40
20
210
0
220
-0.58778525229247314
230
0.80901699437494767
0
CIRCLE
5
391
100
AcDbEntity
8
0
100
AcDbCircle
10
150
20
49.77714196855672
30
314.28050550016968
40
15
210
0
220
-0.80901699437494734
230
0.58778525229247314
0
CIRCLE
5
392
100
AcDbEntity
8
0
100
AcDbCircle
10
375
20
21.375859590347723
30
308.49322946666712
40
2.5
210
0
220
-0.30901699437494751
230
0.95105651629515375
0
CIRCLE
5
393
100
AcDbEntity
8
0
100
AcDbCircle
10
150
20
99.066920453435259
30
391.54916073447623
40
15
210
0
220
-0.58778525229247314
230
0.80901699437494767
0
CIRCLE
5
394
100
AcDbEntity
8
0
100
AcDbCircle
10
300
20
375.00000000000006
30
374.99999999999994
40
5.0000000000000098
210
0
220
-1
230
-2.2204460492503126e-16
0
CIRCLE
5
395
100
AcDbEntity
8
0
100
AcDbCircle
10
150
20
49.77714196855672
30
314.28050550016968
40
15
210
0
220
-0.80901699437494734
230
0.58778525229247314
0
CIRCLE
5
396
100
AcDbEntity
8
0
100
AcDbCircle
10
150
20
-1.8004149877733422
30
237.16399074453065
40
15
210
0
220
-0.30901699437494745
230
0.95105651629515353
0
CIRCLE
5
397
100
AcDbEntity
8
0
100
AcDbCircle
10
375
20
49.77714196855672
30
314.28050550016968
40
2.5
210
0
220
-0.80901699437494734
230
0.58778525229247314
0
CIRCLE
5
398
100
AcDbEntity
8
0
100
AcDbCircle
10
225
20
-1.8004149877733422
30
237.16399074453065
40
10
210
0
220
-0.30901699437494745
230
0.95105651629515353
0
CIRCLE
5
399
100
AcDbEntity
8
0
100
AcDbCircle
10
300
20
263.94109529819838
30
401.19832777915133
40
5.0000000000000098
210
0
220
-0.95105651629515364
230
0.30901699437494745
0
CIRCLE
5
400
100
AcDbEntity
8
0
100
AcDbCircle
10
300
20
225.00000000000006
30
374.99999999999994
40
5.0000000000000098
210
0
220
-1
230
-2.2204460492503126e-16
0
CIRCLE
5
401
100
AcDbEntity
8
0
100
AcDbCircle
10
375
20
300.00000000000006
30
374.99999999999994
40
2.5
210
0
220
-1
230
-2.2204460492503126e-16
0
CIRCLE
5
402
100
AcDbEntity
8
0
100
AcDbCircle
10
75
20
110.45341654667777
30
358.36439942210507
40
20
210
0
220
-0.80901699437494756
230
0.58778525229247325
0
CIRCLE
5
403
100
AcDbEntity
8
0
100
AcDbCircle
10
0
20
0
30
375
40
25
210
0
220
0
230
1
0
CIRCLE
5
404
100
AcDbEntity
8
0
100
AcDbCircle
10
375
20
121.28261785392533
30
354.84577862290928
40
2.5
210
0
220
-0.95105651629515364
230
0.30901699437494745
0
CIRCLE
5
405
100
AcDbEntity
8
0
100
AcDbCircle
10
225
20
0
30
375
40
10
210
0
220
0
230
1
0
CIRCLE
5
406
100
AcDbEntity
8
0
100
AcDbCircle
10
75
20
44.552134168468783
30
379.82246818880361
40
20
210
0
220
-0.30901699437494751
230
0.95105651629515375
0
CIRCLE
5
407
100
AcDbEntity
8
0
100
AcDbCircle
10
150
20
0
30
375
40
15
210
0
220
0
230
1
0
CIRCLE
5
408
100
AcDbEntity
8
0
100
AcDbCircle
10
225
20
0
30
375
40
10
210
0
220
0
230
1
0
CIRCLE
5
409
100
AcDbEntity
8
0
100
AcDbCircle
10
375
20
10.899132609564308
30
270.19661157823418
40
2.5
210
0
220
-0.58778525229247303
230
0.80901699437494745
0
CIRCLE
5
410
100
AcDbEntity
8
0
100
AcDbCircle
10
300
20
99.066920453435259
30
391.54916073447623
40
5.0000000000000098
210
0
220
-0.58778525229247314
230
0.80901699437494767
0
CIRCLE
5
411
100
AcDbEntity
8
0
100
AcDbCircle
10
300
20
110.45341654667777
30
358.36439942210507
40
5.0000000000000098
210
0
220
-0.80901699437494756
230
0.58778525229247325
0
CIRCLE
5
412
100
AcDbEntity
8
0
100
AcDbCircle
10
375
20
44.552134168468783
30
379.82246818880361
40
2.5
210
0
220
-0.30901699437494751
230
0.95105651629515375
0
CIRCLE
5
413
100
AcDbEntity
8
0
100
AcDbCircle
10
0
20
0
30
300
40
25
210
0
220
0
230
1
0
CIRCLE
5
414
100
AcDbEntity
8
0
100
AcDbCircle
10
0
20
121.28261785392533
30
354.84577862290928
40
25
210
0
220
-0.95105651629515364
230
0.30901699437494745
0
CIRCLE
5
415
100
AcDbEntity
8
0
100
AcDbCircle
10
0
20
99.066920453435259
30
391.54916073447623
40
25
210
0
220
-0.58778525229247314
230
0.80901699437494767
0
CIRCLE
5
416
100
AcDbEntity
8
0
100
AcDbCircle
10
300
20
44.552134168468783
30
379.82246818880361
40
5.0000000000000098
210
0
220
-0.30901699437494751
230
0.95105651629515375
0
CIRCLE
5
417
100
AcDbEntity
8
0
100
AcDbCircle
10
375
20
192.61185657606183
30
378.02205320103036
40
2.5
210
0
220
-0.95105651629515364
230
0.30901699437494745
0
CIRCLE
5
418
100
AcDbEntity
8
0
100
AcDbCircle
10
75
20
54.983026531499775
30
330.87288615635521
40
20
210
0
220
-0.58778525229247314
230
0.80901699437494767
0
CIRCLE
5
419
100
AcDbEntity
8
0
100
AcDbCircle
10
75
20
192.61185657606183
30
378.02205320103036
40
20
210
0
220
-0.95105651629515364
230
0.30901699437494745
0
CIRCLE
5
420
100
AcDbEntity
8
0
100
AcDbCircle
10
0
20
44.552134168468783
30
379.82246818880361
40
25
210
0
220
-0.30901699437494751
230
0.95105651629515375
0
CIRCLE
5
421
100
AcDbEntity
8
0
100
AcDbCircle
10
300
20
-1.8004149877733422
30
237.16399074453065
40
5.0000000000000098
210
0
220
-0.30901699437494745
230
0.95105651629515353
0
CIRCLE
5
422
100
AcDbEntity
8
0
100
AcDbCircle
10
75
20
192.61185657606183
30
378.02205320103036
40
20
210
0
220
-0.95105651629515364
230
0.30901699437494745
0
CIRCLE
5
423
100
AcDbEntity
8
0
100
AcDbCircle
10
300
20
192.61185657606183
30
378.02205320103036
40
5.0000000000000098
210
0
220
-0.95105651629515364
230
0.30901699437494745
0
CIRCLE
5
424
100
AcDbEntity
8
0
100
AcDbCircle
10
300
20
0
30
375
40
5.0000000000000098
210
0
220
0
230
1
0
CIRCLE
5
425
100
AcDbEntity
8
0
100
AcDbCircle
10
300
20
49.77714196855672
30
314.28050550016968
40
5.0000000000000098
210
0
220
-0.80901699437494734
230
0.58778525229247314
0
CIRCLE
5
426
100
AcDbEntity
8
0
100
AcDbCircle
10
75
20
44.552134168468783
30
379.82246818880361
40
20
210
0
220
-0.30901699437494751
230
0.95105651629515375
0
CIRCLE
5
427
100
AcDbEntity
8
0
100
AcDbCircle
10
75
20
99.066920453435259
30
391.54916073447623
40
20
210
0
220
-0.58778525229247314
230
0.80901699437494767
0
CIRCLE
5
428
100
AcDbEntity
8
0
100
AcDbCircle
10
300
20
110.45341654667777
30
358.36439942210507
40
5.0000000000000098
210
0
220
-0.80901699437494756
230
0.58778525229247325
0
CIRCLE
5
429
100
AcDbEntity
8
0
100
AcDbCircle
10
300
20
44.552134168468783
30
379.82246818880361
40
5.0000000000000098
210
0
220
-0.30901699437494751
230
0.95105651629515375
0
CIRCLE
5
430
100
AcDbEntity
8
0
100
AcDbCircle
10
300
20
300.00000000000006
30
374.99999999999994
40
5.0000000000000098
210
0
220
-1
230
-2.2204460492503126e-16
0
CIRCLE
5
431
100
AcDbEntity
8
0
100
AcDbCircle
10
150
20
300.00000000000006
30
374.99999999999994
40
15
210
0
220
-1
230
-2.2204460492503126e-16
0
CIRCLE
5
432
100
AcDbEntity
8
0
100
AcDbCircle
10
150
20
54.983026531499775
30
330.87288615635521
40
15
210
0
220
-0.58778525229247314
230
0.80901699437494767
0
CIRCLE
5
433
100
AcDbEntity
8
0
100
AcDbCircle
10
0
20
99.066920453435259
30
391.54916073447623
40
25
210
0
220
-0.58778525229247314
230
0.80901699437494767
0
CIRCLE
5
434
100
AcDbEntity
8
0
100
AcDbCircle
10
300
20
0
30
375
40
5.0000000000000098
210
0
220
0
230
1
0
CIRCLE
5
435
100
AcDbEntity
8
0
100
AcDbCircle
10
150
20
110.45341654667777
30
358.36439942210507
40
15
210
0
220
-0.80901699437494756
230
0.58778525229247325
0
CIRCLE
5
436
100
AcDbEntity
8
0
100
AcDbCircle
10
300
20
0
30
300
40
5.0000000000000098
210
0
220
0
230
1
0
CIRCLE
5
437
100
AcDbEntity
8
0
100
AcDbCircle
10
0
20
21.375859590347723
30
308.49322946666712
40
25
210
0
220
-0.30901699437494751
230
0.95105651629515375
0
CIRCLE
5
438
100
AcDbEntity
8
0
100
AcDbCircle
10
300
20
54.983026531499775
30
330.87288615635521
40
5.0000000000000098
210
0
220
-0.58778525229247314
230
0.80901699437494767
0
CIRCLE
5
439
100
AcDbEntity
8
0
100
AcDbCircle
10
0
20
0
30
375
40
25
210
0
220
0
230
1
0
CIRCLE
5
440
100
AcDbEntity
8
0
100
AcDbCircle
10
0
20
10.899132609564308
30
270.19661157823418
40
25
210
0
220
-0.58778525229247303
230
0.80901699437494745
0
CIRCLE
5
441
100
AcDbEntity
8
0
100
AcDbCircle
10
75
20
300.00000000000006
30
374.99999999999994
40
20
210
0
220
-1
230
-2.2204460492503126e-16
0
CIRCLE
5
442
100
AcDbEntity
8
0
100
AcDbCircle
10
225
20
110.45341654667777
30
358.36439942210507
40
10
210
0
220
-0.80901699437494756
230
0.58778525229247325
0
CIRCLE
5
443
100
AcDbEntity
8
0
100
AcDbCircle
10
150
20
375.00000000000006
30
374.99999999999994
40
15
210
0
220
-1
230
-2.2204460492503126e-16
0
CIRCLE
5
444
100
AcDbEntity
8
0
100
AcDbCircle
10
225
20
10.899132609564308
30
270.19661157823418
40
10
210
0
220
-0.58778525229247303
230
0.80901699437494745
0
CIRCLE
5
445
100
AcDbEntity
8
0
100
AcDbCircle
10
300
20
0
30
300
40
5.0000000000000098
210
0
220
0
230
1
0
CIRCLE
5
446
100
AcDbEntity
8
0
100
AcDbCircle
10
75
20
-1.8004149877733422
30
237.16399074453065
40
20
210
0
220
-0.30901699437494745
230
0.95105651629515353
0
CIRCLE
5
447
100
AcDbEntity
8
0
100
AcDbCircle
10
375
20
54.983026531499775
30
330.87288615635521
40
2.5
210
0
220
-0.58778525229247314
230
0.80901699437494767
0
CIRCLE
5
448
100
AcDbEntity
8
0
100
AcDbCircle
10
75
20
171.1296911247988
30
402.44829334404062
40
20
210
0
220
-0.80901699437494756
230
0.58778525229247325
0
CIRCLE
5
449
100
AcDbEntity
8
0
100
AcDbCircle
10
0
20
0
30
300
40
25
210
0
220
0
230
1
0
CIRCLE
5
450
100
AcDbEntity
8
0
100
AcDbCircle
10
0
20
171.1296911247988
30
402.44829334404062
40
25
210
0
220
-0.80901699437494756
230
0.58778525229247325
0
CIRCLE
5
451
100
AcDbEntity
8
0
100
AcDbCircle
10
150
20
-1.8004149877733422
30
237.16399074453065
40
15
210
0
220
-0.30901699437494745
230
0.95105651629515353
0
CIRCLE
5
452
100
AcDbEntity
8
0
100
AcDbCircle
10
75
20
375.00000000000006
30
374.99999999999994
40
20
210
0
220
-1
230
-2.2204460492503126e-16
0
CIRCLE
5
453
100
AcDbEntity
8
0
100
AcDbCircle
10
300
20
21.375859590347723
30
308.49322946666712
40
5.0000000000000098
210
0
220
-0.30901699437494751
230
0.95105651629515375
0
CIRCLE
5
454
100
AcDbEntity
8
0
100
AcDbCircle
10
0
20
54.983026531499775
30
330.87288615635521
40
25
210
0
220
-0.58778525229247314
230
0.80901699437494767
0
CIRCLE
5
455
100
AcDbEntity
8
0
100
AcDbCircle
10
225
20
121.28261785392533
30
354.84577862290928
40
10
210
0
220
-0.95105651629515364
230
0.30901699437494745
0
CIRCLE
5
456
100
AcDbEntity
8
0
100
AcDbCircle
10
375
20
0
30
300
40
2.5
210
0
220
0
230
1
0
CIRCLE
5
457
100
AcDbEntity
8
0
100
AcDbCircle
10
75
20
375.00000000000006
30
374.99999999999994
40
20
210
0
220
-1
230
-2.2204460492503126e-16
0
CIRCLE
5
458
100
AcDbEntity
8
0
100
AcDbCircle
10
150
20
0
30
225
40
15
210
0
220
0
230
1
0
CIRCLE
5
459
100
AcDbEntity
8
0
100
AcDbCircle
10
75
20
0
30
225
40
20
210
0
220
0
230
1
0
CIRCLE
5
460
100
AcDbEntity
8
0
100
AcDbCircle
10
75
20
21.375859590347723
30
308.49322946666712
40
20
210
0
220
-0.30901699437494751
230
0.95105651629515375
0
CIRCLE
5
461
100
AcDbEntity
8
0
100
AcDbCircle
10
75
20
263.94109529819838
30
401.19832777915133
40
20
210
0
220
-0.95105651629515364
230
0.30901699437494745
0
CIRCLE
5
462
100
AcDbEntity
8
0
100
AcDbCircle
10
150
20
0
30
300
40
15
210
0
220
0
230
1
0
CIRCLE
5
463
100
AcDbEntity
8
0
100
AcDbCircle
10
0
20
0
30
225
40
25
210
0
220
0
230
1
0
CIRCLE
5
464
100
AcDbEntity
8
0
100
AcDbCircle
10
0
20
375.00000000000006
30
374.99999999999994
40
25
210
0
220
-1
230
-2.2204460492503126e-16
0
CIRCLE
5
465
100
AcDbEntity
8
0
100
AcDbCircle
10
300
20
21.375859590347723
30
308.49322946666712
40
5.0000000000000098
210
0
220
-0.30901699437494751
230
0.95105651629515375
0
CIRCLE
5
466
100
AcDbEntity
8
0
100
AcDbCircle
10
0
20
-1.8004149877733422
30
237.16399074453065
40
25
210
0
220
-0.30901699437494745
230
0.95105651629515353
0
CIRCLE
5
467
100
AcDbEntity
8
0
100
AcDbCircle
10
225
20
54.983026531499775
30
330.87288615635521
40
10
210
0
220
-0.58778525229247314
230
0.80901699437494767
0
CIRCLE
5
468
100
AcDbEntity
8
0
100
AcDbCircle
10
0
20
263.94109529819838
30
401.19832777915133
40
25
210
0
220
-0.95105651629515364
230
0.30901699437494745
0
CIRCLE
5
469
100
AcDbEntity
8
0
100
AcDbCircle
10
150
20
263.94109529819838
30
401.19832777915133
40
15
210
0
220
-0.95105651629515364
230
0.30901699437494745
0
CIRCLE
5
470
100
AcDbEntity
8
0
100
AcDbCircle
10
225
20
192.61185657606183
30
378.02205320103036
40
10
210
0
220
-0.95105651629515364
230
0.30901699437494745
0
CIRCLE
5
471
100
AcDbEntity
8
0
100
AcDbCircle
10
225
20
171.1296911247988
30
402.44829334404062
40
10
210
0
220
-0.80901699437494756
230
0.58778525229247325
0
CIRCLE
5
472
100
AcDbEntity
8
0
100
AcDbCircle
10
75
20
10.899132609564308
30
270.19661157823418
40
20
210
0
220
-0.58778525229247303
230
0.80901699437494745
0
CIRCLE
5
473
100
AcDbEntity
8
0
100
AcDbCircle
10
75
20
171.1296911247988
30
402.44829334404062
40
20
210
0
220
-0.80901699437494756
230
0.58778525229247325
0
CIRCLE
5
474
100
AcDbEntity
8
0
100
AcDbCircle
10
75
20
0
30
300
40
20
210
0
220
0
230
1
0
CIRCLE
5
475
100
AcDbEntity
8
0
100
AcDbCircle
10
225
20
263.94109529819838
30
401.19832777915133
40
10
210
0
220
-0.95105651629515364
230
0.30901699437494745
0
CIRCLE
5
476
100
AcDbEntity
8
0
100
AcDbCircle
10
150
20
225.00000000000006
30
374.99999999999994
40
15
210
0
220
-1
230
-2.2204460492503126e-16
0
CIRCLE
5
477
100
AcDbEntity
8
0
100
AcDbCircle
10
150
20
171.1296911247988
30
402.44829334404062
40
15
210
0
220
-0.80901699437494756
230
0.58778525229247325
0
CIRCLE
5
478
100
AcDbEntity
8
0
100
AcDbCircle
10
225
20
0
30
300
40
10
210
0
220
0
230
1
0
CIRCLE
5
479
100
AcDbEntity
8
0
100
AcDbCircle
10
150
20
263.94109529819838
30
401.19832777915133
40
15
210
0
220
-0.95105651629515364
230
0.30901699437494745
0
CIRCLE
5
480
100
AcDbEntity
8
0
100
AcDbCircle
10
225
20
263.94109529819838
30
401.19832777915133
40
10
210
0
220
-0.95105651629515364
230
0.30901699437494745
0
CIRCLE
5
481
100
AcDbEntity
8
0
100
AcDbCircle
10
0
20
171.1296911247988
30
402.44829334404062
40
25
210
0
220
-0.80901699437494756
230
0.58778525229247325
0
CIRCLE
5
482
100
AcDbEntity
8
0
100
AcDbCircle
10
225
20
225.00000000000006
30
374.99999999999994
40
10
210
0
220
-1
230
-2.2204460492503126e-16
0
CIRCLE
5
483
100
AcDbEntity
8
0
100
AcDbCircle
10
225
20
375.00000000000006
30
374.99999999999994
40
10
210
0
220
-1
230
-2.2204460492503126e-16
0
CIRCLE
5
484
100
AcDbEntity
8
0
100
AcDbCircle
10
225
20
375.00000000000006
30
374.99999999999994
40
10
210
0
220
-1
230
-2.2204460492503126e-16
0
CIRCLE
5
485
100
AcDbEntity
8
0
100
AcDbCircle
10
225
20
171.1296911247988
30
402.44829334404062
40
10
210
0
220
-0.80901699437494756
230
0.58778525229247325
0
CIRCLE
5
486
100
AcDbEntity
8
0
100
AcDbCircle
10
225
20
300.00000000000006
30
374.99999999999994
40
10
210
0
220
-1
230
-2.2204460492503126e-16
0
CIRCLE
5
487
100
AcDbEntity
8
0
100
AcDbCircle
10
150
20
0
30
300
40
15
210
0
220
0
230
1
0
CIRCLE
5
488
100
AcDbEntity
8
0
100
AcDbCircle
10
225
20
-1.8004149877733422
30
237.16399074453065
40
10
210
0
220
-0.30901699437494745
230
0.95105651629515353
0
CIRCLE
5
489
100
AcDbEntity
8
0
100
AcDbCircle
10
225
20
121.28261785392533
30
354.84577862290928
40
10
210
0
220
-0.95105651629515364
230
0.30901699437494745
0
CIRCLE
5
490
100
AcDbEntity
8
0
100
AcDbCircle
10
0
20
225.00000000000006
30
374.99999999999994
40
25
210
0
220
-1
230
-2.2204460492503126e-16
0
CIRCLE
5
491
100
AcDbEntity
8
0
100
AcDbCircle
10
150
20
121.28261785392533
30
354.84577862290928
40
15
210
0
220
-0.95105651629515364
230
0.30901699437494745
0
CIRCLE
5
492
100
AcDbEntity
8
0
100
AcDbCircle
10
225
20
192.61185657606183
30
378.02205320103036
40
10
210
0
220
-0.95105651629515364
230
0.30901699437494745
0
CIRCLE
5
493
100
AcDbEntity
8
0
100
AcDbCircle
10
300
20
171.1296911247988
30
402.44829334404062
40
5.0000000000000098
210
0
220
-0.80901699437494756
230
0.58778525229247325
0
CIRCLE
5
494
100
AcDbEntity
8
0
100
AcDbCircle
10
300
20
0
30
225
40
5.0000000000000098
210
0
220
0
230
1
0
CIRCLE
5
495
100
AcDbEntity
8
0
100
AcDbCircle
10
225
20
110.45341654667777
30
358.36439942210507
40
10
210
0
220
-0.80901699437494756
230
0.58778525229247325
0
ENDSEC
0
SECTION
2
OBJECTS
0
DICTIONARY
5
C
100
AcDbDictionary
3
ACAD_GROUP
350
D
3
ACAD_MLINESTYLE
350
17
0
DICTIONARY
5
D
100
AcDbDictionary
0
DICTIONARY
5
1A
330
C
100
AcDbDictionary
0
DICTIONARY
5
17
100
AcDbDictionary
0
ENDSEC
0
EOF
