0
SECTION
2
HEADER
9
$INSUNITS
70
4
9
$ACADVER
1
AC1014
9
$HANDSEED
5
FFFF
0
ENDSEC
0
SECTION
2
TABLES
0
TABLE
2
VPORT
5
8
100
AcDbSymbolTable
0
ENDTAB
0
TABLE
2
LTYPE
5
5
100
AcDbSymbolTable
0
LTYPE
5
14
100
AcDbSymbolTableRecord
100
AcDbLinetypeTableRecord
2
BYBLOCK
70
0
0
LTYPE
5
15
100
AcDbSymbolTableRecord
100
AcDbLinetypeTableRecord
2
BYLAYER
70
0
0
ENDTAB
0
TABLE
2
LAYER
5
2
100
AcDbSymbolTable
70
2
0
LAYER
5
50
100
AcDbSymbolTableRecord
100
AcDbLayerTableRecord
2
0
70
0
6
CONTINUOUS
0
ENDTAB
0
TABLE
2
STYLE
5
3
100
AcDbSymbolTable
70
1
0
STYLE
5
11
100
AcDbSymbolTableRecord
100
AcDbTextStyleTableRecord
2
STANDARD
70
0
0
ENDTAB
0
TABLE
2
VIEW
5
6
100
AcDbSymbolTable
70
0
0
ENDTAB
0
TABLE
2
UCS
5
7
100
AcDbSymbolTable
70
0
0
ENDTAB
0
TABLE
2
APPID
5
9
100
AcDbSymbolTable
70
2
0
APPID
5
12
100
AcDbSymbolTableRecord
100
AcDbRegAppTableRecord
2
ACAD
70
0
0
ENDTAB
0
TABLE
2
DIMSTYLE
5
A
100
AcDbSymbolTable
70
1
0
ENDTAB
0
TABLE
2
BLOCK_RECORD
5
1
100
AcDbSymbolTable
70
1
0
BLOCK_RECORD
5
1F
100
AcDbSymbolTableRecord
100
AcDbBlockTableRecord
2
*MODEL_SPACE
0
BLOCK_RECORD
5
1B
100
AcDbSymbolTableRecord
100
AcDbBlockTableRecord
2
*PAPER_SPACE
0
ENDTAB
0
ENDSEC
0
SECTION
2
BLOCKS
0
BLOCK
5
20
100
AcDbEntity
100
AcDbBlockBegin
2
*MODEL_SPACE
0
ENDBLK
5
21
100
AcDbEntity
100
AcDbBlockEnd
0
BLOCK
5
1C
100
AcDbEntity
100
AcDbBlockBegin
2
*PAPER_SPACE
0
ENDBLK
5
1D
100
AcDbEntity
100
AcDbBlockEnd
0
ENDSEC
0
SECTION
2
ENTITIES
0
CIRCLE
5
100
100
AcDbEntity
8
0
100
AcDbCircle
10
0
20
0
30
0
40
15
210
0
220
0
230
1
0
LINE
5
101
100
AcDbEntity
8
0
100
AcDbLine
10
25
20
0
30
0
11
50
21
0
31
0
0
ARC
5
102
100
AcDbEntity
8
0
100
AcDbCircle
10
87.5
20
-2.5
30
-1.7763568394002505e-14
40
12.747548783981962
210
0
220
-7.1054273576010019e-15
230
1
100
AcDbArc
50
11.309932474020195
51
168.6900675259798
0
ELLIPSE
5
103
100
AcDbEntity
8
0
100
AcDbEllipse
10
135
20
0
30
0
11
-10
21
0
31
0.0
40
0.5
41
0
42
6.2831853071795862
0
SPLINE
5
104
100
AcDbEntity
8
0
100
AcDbSpline
70
4
71
5
72
36
73
30
74
0
42
0.000000001
43
0.0000000001
44
0.0000000001
40
0
40
0
40
0
40
0
40
0
40
0
40
0.040000000000000001
40
0.080000000000000002
40
0.12
40
0.16
40
0.20000000000000001
40
0.24000000000000002
40
0.28000000000000003
40
0.32000000000000001
40
0.35999999999999999
40
0.39999999999999997
40
0.43999999999999995
40
0.47999999999999993
40
0.51999999999999991
40
0.55999999999999994
40
0.59999999999999998
40
0.64000000000000001
40
0.68000000000000005
40
0.72000000000000008
40
0.76000000000000012
40
0.80000000000000016
40
0.84000000000000019
40
0.88000000000000023
40
0.92000000000000026
40
0.9600000000000003
40
1
40
1
40
1
40
1
40
1
40
1
41
1
41
1
41
1
41
1
41
1
41
1
41
1
41
1
41
1
41
1
41
1
41
1
41
1
41
1
41
1
41
1
41
1
41
1
41
1
41
1
41
1
41
1
41
1
41
1
41
1
41
1
41
1
41
1
41
1
41
1
10
175
20
0
30
0
10
175.20000000001392
20
3.35071391643663
30
0
10
175.60000000003777
20
9.5639016371810346
30
0
10
176.20000000006166
20
17.418964041594499
30
0
10
177.00000000007054
20
24.955287187341717
30
0
10
178.00000000005522
20
29.547256424405127
30
0
10
179.00000000002558
20
29.589679127497099
30
0
10
179.99999999999721
20
25.703146043531582
30
0
10
180.99999999998019
20
18.983564065984169
30
0
10
181.99999999997684
20
11.140781671996251
30
0
10
182.9999999999834
20
4.1083032032522304
30
0
10
183.99999999999338
20
-0.34483512153258411
30
0
10
185.00000000000139
20
-1.0037634448106239
30
0
10
186.00000000000361
20
2.3974425608999663
30
0
10
187.00000000000091
20
8.7722907306970139
30
0
10
187.99999999999685
20
16.227709269300988
30
0
10
188.99999999999525
20
22.602557439098717
30
0
10
189.99999999999864
20
26.003763444810545
30
0
10
191.00000000000739
20
25.34483512153404
30
0
10
192.00000000001739
20
20.891696796750448
30
0
10
193.00000000002299
20
13.859218328006797
30
0
10
194.00000000001884
20
6.0164359340180651
30
0
10
195.00000000000256
20
-0.70314604353139765
30
0
10
195.99999999997584
20
-4.5896791274998812
30
0
10
196.99999999994876
20
-4.5472564244107554
30
0
10
197.99999999993446
20
0.044712812651026897
30
0
10
198.79999999994351
20
7.5810359583991946
30
0
10
199.39999999996547
20
15.436098362815116
30
0
10
199.79999999998728
20
21.649286083561961
30
0
10
200
20
25
30
0
0
LWPOLYLINE
5
105
100
AcDbEntity
8
0
100
AcDbPolyline
90
6
70
1
43
0.0
10
226.90598923241495
20
-4.4408920985006262e-15
10
238.45299461620749
20
20
10
261.54700538379251
20
20.000000000000007
10
273.09401076758502
20
-4.4408920985006262e-15
10
261.54700538379251
20
-20.000000000000018
10
238.45299461620749
20
-20.000000000000018
0
LWPOLYLINE
5
106
100
AcDbEntity
8
0
100
AcDbPolyline
90
4
70
1
43
0.0
10
350
20
0
10
300
20
0
10
300
20
50
10
350
20
50
0
SPLINE
5
107
100
AcDbEntity
8
0
100
AcDbSpline
70
12
71
2
41
1
41
3
41
1
72
6
73
3
74
0
42
0.000000001
43
0.0000000001
44
0.0000000001
40
0
40
0
40
0
40
8.4852813742385695
40
8.4852813742385695
40
8.4852813742385695
10
400
20
0
30
0
10
430
20
40
30
0
10
460
20
0
30
0
0
LWPOLYLINE
5
108
100
AcDbEntity
8
0
100
AcDbPolyline
90
4
70
1
43
0.0
10
520
20
10
10
580
20
10
42
-0.99999999999999989
10
580
20
-10
10
520
20
-10
42
-0.99999999999999989
0
LWPOLYLINE
5
109
100
AcDbEntity
8
0
100
AcDbPolyline
90
8
70
1
43
0.0
10
653.62210094928741
20
8.8199180364608765
10
653.62210094928741
20
0
10
654.94542956352234
20
0
10
654.94542956352234
20
8.8199180364608765
10
658.25375139713287
20
8.8199180364608765
10
658.25375139713287
20
10
10
650.32742157578468
20
10
10
650.32742157578468
20
8.8199180364608765
0
LINE
5
110
100
AcDbEntity
8
0
100
AcDbLine
10
659.45429727435112
20
0
30
0
11
659.45429727435112
21
10
31
0
0
LINE
5
111
100
AcDbEntity
8
0
100
AcDbLine
10
659.45429727435112
20
10
30
0
11
660.68212807178497
21
10
31
0
0
LINE
5
112
100
AcDbEntity
8
0
100
AcDbLine
10
660.68212807178497
20
10
30
0
11
660.68212807178497
21
6.4120054244995117
31
0
0
SPLINE
5
113
100
AcDbEntity
8
0
100
AcDbSpline
70
0
71
3
72
9
73
5
74
0
42
0.000000001
43
0.0000000001
44
0.0000000001
40
0
40
0
40
0
40
0
40
0.12258681159048643
40
0.2448619966436904
40
0.2448619966436904
40
0.2448619966436904
40
0.2448619966436904
10
660.68212807178497
20
6.4120054244995117
30
0
10
660.98710204955023
20
6.7024781450155499
30
0
10
661.59627473420619
20
7.2826851786537574
30
0
10
662.43331071082991
20
7.3662055652638516
30
0
10
662.85129606723785
20
7.4079126119613647
30
0
0
SPLINE
5
114
100
AcDbEntity
8
0
100
AcDbSpline
70
0
71
3
72
9
73
5
74
0
42
0.000000001
43
0.0000000001
44
0.0000000001
40
0
40
0
40
0
40
0
40
0.07562157937975604
40
0.14449224529675136
40
0.14449224529675136
40
0.14449224529675136
40
0.14449224529675136
10
662.85129606723785
20
7.4079126119613647
30
0
10
663.10567471545164
20
7.3973478944690454
30
0
10
663.59172304104118
20
7.3771615962733232
30
0
10
664.03728587765499
20
7.1831814548591044
30
0
10
664.24965858459473
20
7.090722918510437
30
0
0
SPLINE
5
115
100
AcDbEntity
8
0
100
AcDbSpline
70
0
71
3
72
9
73
5
74
0
42
0.000000001
43
0.0000000001
44
0.0000000001
40
0
40
0
40
0
40
0
40
0.063387614275921531
40
0.12376571081045813
40
0.12376571081045813
40
0.12376571081045813
40
0.12376571081045813
10
664.24965858459473
20
7.090722918510437
30
0
10
664.43230164012687
20
6.977270919678058
30
0
10
664.7889162224983
20
6.7557533970712722
30
0
10
664.99726653586731
20
6.3917597035776899
30
0
10
665.09890854358673
20
6.2141883373260498
30
0
0
SPLINE
5
116
100
AcDbEntity
8
0
100
AcDbSpline
70
0
71
3
72
9
73
5
74
0
42
0.000000001
43
0.0000000001
44
0.0000000001
40
0
40
0
40
0
40
0
40
0.071187767141159722
40
0.16519808403287772
40
0.16519808403287772
40
0.16519808403287772
40
0.16519808403287772
10
665.09890854358673
20
6.2141883373260498
30
0
10
665.17315872092638
20
5.9874484690926284
30
0
10
665.34546342338035
20
5.4612767220317329
30
0
10
665.35135429149409
20
4.9064578141161803
30
0
10
665.3547066450119
20
4.5907235145568848
30
0
0
LINE
5
117
100
AcDbEntity
8
0
100
AcDbLine
10
665.3547066450119
20
4.5907235145568848
30
0
11
665.3547066450119
21
0
31
0
0
LINE
5
118
100
AcDbEntity
8
0
100
AcDbLine
10
665.3547066450119
20
0
30
0
11
664.12687599658966
21
0
31
0
0
LINE
5
119
100
AcDbEntity
8
0
100
AcDbLine
10
664.12687599658966
20
0
30
0
11
664.12687599658966
21
4.5907235145568848
31
0
0
SPLINE
5
120
100
AcDbEntity
8
0
100
AcDbSpline
70
0
71
3
72
9
73
5
74
0
42
0.000000001
43
0.0000000001
44
0.0000000001
40
0
40
0
40
0
40
0
40
0.080176262608718768
40
0.14233991388320605
40
0.14233991388320605
40
0.14233991388320605
40
0.14233991388320605
10
664.12687599658966
20
4.5907235145568848
30
0
10
664.12049435764754
20
4.8646133244621268
30
0
10
664.10916479565628
20
5.3508601347638152
30
0
10
663.84374609923327
20
5.7547259871719056
30
0
10
663.72783064842224
20
5.9311050176620483
30
0
0
SPLINE
5
121
100
AcDbEntity
8
0
100
AcDbSpline
70
0
71
3
72
9
73
5
74
0
42
0.000000001
43
0.0000000001
44
0.0000000001
40
0
40
0
40
0
40
0
40
0.057539436234014807
40
0.12310066172088216
40
0.12310066172088216
40
0.12310066172088216
40
0.12310066172088216
10
663.72783064842224
20
5.9311050176620483
30
0
10
663.57396410544766
20
6.0533223152620703
30
0
10
663.24477990593903
20
6.3147956836682546
30
0
10
662.82335301750459
20
6.3381667942027251
30
0
10
662.59890854358673
20
6.3506138324737549
30
0
0
SPLINE
5
122
100
AcDbEntity
8
0
100
AcDbSpline
70
0
71
3
72
9
73
5
74
0
42
0.000000001
43
0.0000000001
44
0.0000000001
40
0
40
0
40
0
40
0
40
0.053421057240275495
40
0.10747527851959959
40
0.10747527851959959
40
0.10747527851959959
40
0.10747527851959959
10
662.59890854358673
20
6.3506138324737549
30
0
10
662.41924130805785
20
6.338543109219108
30
0
10
662.05777736150083
20
6.3142585965054954
30
0
10
661.73476381207092
20
6.1500955826484827
30
0
10
661.572305560112
20
6.0675305128097534
30
0
0
SPLINE
5
123
100
AcDbEntity
8
0
100
AcDbSpline
70
0
71
3
72
9
73
5
74
0
42
0.000000001
43
0.0000000001
44
0.0000000001
40
0
40
0
40
0
40
0
40
0.05298648236995341
40
0.10429670469930226
40
0.10429670469930226
40
0.10429670469930226
40
0.10429670469930226
10
661.572305560112
20
6.0675305128097534
30
0
10
661.42408840928147
20
5.9661205114490903
30
0
10
661.13234304857565
20
5.7665086766489999
30
0
10
660.96774360868903
20
5.4539190476674202
30
0
10
660.88676661252975
20
5.3001362085342407
30
0
0
SPLINE
5
124
100
AcDbEntity
8
0
100
AcDbSpline
70
0
71
3
72
9
73
5
74
0
42
0.000000001
43
0.0000000001
44
0.0000000001
40
0
40
0
40
0
40
0
40
0.059648147368968236
40
0.1358773301312744
40
0.1358773301312744
40
0.1358773301312744
40
0.1358773301312744
10
660.88676661252975
20
5.3001362085342407
30
0
10
660.82730673034507
20
5.1093746301006613
30
0
10
660.69185826467503
20
4.6748234309016841
30
0
10
660.68562501604197
20
4.2189288534260534
30
0
10
660.68212807178497
20
3.963165283203125
30
0
0
LINE
5
125
100
AcDbEntity
8
0
100
AcDbLine
10
660.68212807178509
20
3.963165283203125
30
0
11
660.68212807178497
21
0
31
0
0
LINE
5
126
100
AcDbEntity
8
0
100
AcDbLine
10
660.68212807178497
20
0
30
0
11
659.45429727435112
21
0
31
0
0
LWPOLYLINE
5
127
100
AcDbEntity
8
0
100
AcDbPolyline
90
4
70
1
43
0.0
10
667.23055899143219
20
10
10
667.23055899143219
20
8.5879945755004883
10
668.45838993787766
20
8.5879945755004883
10
668.45838993787766
20
10
0
LWPOLYLINE
5
128
100
AcDbEntity
8
0
100
AcDbPolyline
90
4
70
1
43
0.0
10
667.23055899143219
20
7.2442018985748291
10
667.23055899143219
20
0
10
668.45838993787766
20
0
10
668.45838993787766
20
7.2442018985748291
0
LINE
5
129
100
AcDbEntity
8
0
100
AcDbLine
10
669.83628895133734
20
2.1623468399047852
30
0
11
671.05047717690468
21
2.3533427715301514
31
0
0
SPLINE
5
130
100
AcDbEntity
8
0
100
AcDbSpline
70
0
71
3
72
9
73
5
74
0
42
0.000000001
43
0.0000000001
44
0.0000000001
40
0
40
0
40
0
40
0
40
0.067304393008918897
40
0.12781423788693538
40
0.12781423788693538
40
0.12781423788693538
40
0.12781423788693538
10
671.05047717690468
20
2.3533427715301514
30
0
10
671.09527537625593
20
2.1281773514624969
30
0
10
671.18034928380939
20
1.7005775280657454
30
0
10
671.47877406692658
20
1.3843569976755887
30
0
10
671.62005439400673
20
1.2346518039703369
30
0
0
SPLINE
5
131
100
AcDbEntity
8
0
100
AcDbSpline
70
0
71
3
72
9
73
5
74
0
42
0.000000001
43
0.0000000001
44
0.0000000001
40
0
40
0
40
0
40
0
40
0.063155181618534728
40
0.13839351615468004
40
0.13839351615468004
40
0.13839351615468004
40
0.13839351615468004
10
671.62005439400673
20
1.2346518039703369
30
0
10
671.80176249541364
20
1.1214751685586899
30
0
10
672.19994396561162
20
0.8734683998381132
30
0
10
672.67050635112469
20
0.85556957290128022
30
0
10
672.9263299703598
20
0.84583878517150879
30
0
0
SPLINE
5
132
100
AcDbEntity
8
0
100
AcDbSpline
70
0
71
3
72
9
73
5
74
0
42
0.000000001
43
0.0000000001
44
0.0000000001
40
0
40
0
40
0
40
0
40
0.074171504256804202
40
0.13209425904072236
40
0.13209425904072236
40
0.13209425904072236
40
0.13209425904072236
10
672.9263299703598
20
0.84583878517150879
30
0
10
673.17871396338705
20
0.85164399366230992
30
0
10
673.62819219477399
20
0.86198266377360611
30
0
10
674.01279791224738
20
1.0902291896880123
30
0
10
674.18144583702087
20
1.1903142929077148
30
0
0
SPLINE
5
133
100
AcDbEntity
8
0
100
AcDbSpline
70
0
71
3
72
9
73
5
74
0
42
0.000000001
43
0.0000000001
44
0.0000000001
40
0
40
0
40
0
40
0
40
0.048408280956297317
40
0.092998510372171439
40
0.092998510372171439
40
0.092998510372171439
40
0.092998510372171439
10
674.18144583702087
20
1.1903142929077148
30
0
10
674.30075814131328
20
1.3066846206858451
30
0
10
674.52997236559645
20
1.5302469311231404
30
0
10
674.57103467152342
20
1.8468385510611962
30
0
10
674.59072291851044
20
1.9986355304718018
30
0
0
SPLINE
5
134
100
AcDbEntity
8
0
100
AcDbSpline
70
0
71
3
72
9
73
5
74
0
42
0.000000001
43
0.0000000001
44
0.0000000001
40
0
40
0
40
0
40
0
40
0.038258922887553039
40
0.077457943140584615
40
0.077457943140584615
40
0.077457943140584615
40
0.077457943140584615
10
674.59072291851044
20
1.9986355304718018
30
0
10
674.57494106119202
20
2.1304145110966144
30
0
10
674.54298955512343
20
2.3972105424005097
30
0
10
674.33463598539583
20
2.5673677751609647
30
0
10
674.22919481992722
20
2.6534789800643921
30
0
0
SPLINE
5
135
100
AcDbEntity
8
0
100
AcDbSpline
70
0
71
3
72
9
73
5
74
0
42
0.000000001
43
0.0000000001
44
0.0000000001
40
0
40
0
40
0
40
0
40
0.047762670491161473
40
0.13246562117119623
40
0.13246562117119623
40
0.13246562117119623
40
0.13246562117119623
10
674.22919481992722
20
2.6534789800643921
30
0
10
674.08371959017495
20
2.7188081134994571
30
0
10
673.68025666659946
20
2.8999927950103688
30
0
10
673.2495116989619
20
3.0034336641096129
30
0
10
672.97407895326614
20
3.0695772171020508
30
0
0
SPLINE
5
136
100
AcDbEntity
8
0
100
AcDbSpline
70
0
71
3
72
9
73
5
74
0
42
0.000000001
43
0.0000000001
44
0.0000000001
40
0
40
0
40
0
40
0
40
0.11868253179711219
40
0.19649384654460178
40
0.19649384654460178
40
0.19649384654460178
40
0.19649384654460178
10
672.97407895326614
20
3.0695772171020508
30
0
10
672.58977229293521
20
3.1658439816020643
30
0
10
671.95350431990096
20
3.3252257083362711
30
0
10
671.34328354269212
20
3.5647618798457192
30
0
10
671.10163688659668
20
3.6596179008483887
30
0
0
SPLINE
5
137
100
AcDbEntity
8
0
100
AcDbSpline
70
0
71
3
72
9
73
5
74
0
42
0.000000001
43
0.0000000001
44
0.0000000001
40
0
40
0
40
0
40
0
40
0.054633361394137797
40
0.10605525041118452
40
0.10605525041118452
40
0.10605525041118452
40
0.10605525041118452
10
671.10163688659668
20
3.6596179008483887
30
0
10
670.93967499276505
20
3.7482241225071911
30
0
10
670.62527169102668
20
3.9202280919905985
30
0
10
670.41319532050409
20
4.2086995940949752
30
0
10
670.310368090868
20
4.3485677242279053
30
0
0
SPLINE
5
138
100
AcDbEntity
8
0
100
AcDbSpline
70
0
71
3
72
9
73
5
74
0
42
0.000000001
43
0.0000000001
44
0.0000000001
40
0
40
0
40
0
40
0
40
0.050517375102378026
40
0.10186492129073335
40
0.10186492129073335
40
0.10186492129073335
40
0.10186492129073335
10
670.310368090868
20
4.3485677242279053
30
0
10
670.23178269621337
20
4.4997738110572509
30
0
10
670.07332048346257
20
4.8046708113930015
30
0
10
670.05178358796104
20
5.1476919419973211
30
0
10
670.04092738032341
20
5.3206002712249756
30
0
0
SPLINE
5
139
100
AcDbEntity
8
0
100
AcDbSpline
70
0
71
3
72
9
73
5
74
0
42
0.000000001
43
0.0000000001
44
0.0000000001
40
0
40
0
40
0
40
0
40
0.046968656397910237
40
0.093126653167772716
40
0.093126653167772716
40
0.093126653167772716
40
0.093126653167772716
10
670.04092738032341
20
5.3206002712249756
30
0
10
670.04983866444081
20
5.478443254025783
30
0
10
670.06750742758879
20
5.7914049148773721
30
0
10
670.19796040855397
20
6.0763610881434049
30
0
10
670.26261910796165
20
6.2175989151000977
30
0
0
SPLINE
5
140
100
AcDbEntity
8
0
100
AcDbSpline
70
0
71
3
72
9
73
5
74
0
42
0.000000001
43
0.0000000001
44
0.0000000001
40
0
40
0
40
0
40
0
40
0.045956604513632641
40
0.091962501098677527
40
0.091962501098677527
40
0.091962501098677527
40
0.091962501098677527
10
670.26261910796165
20
6.2175989151000977
30
0
10
670.34322958998132
20
6.3493594594721419
30
0
10
670.50453701509991
20
6.6130218717589786
30
0
10
670.74567095551276
20
6.8063981810363785
30
0
10
670.86630254983902
20
6.9031381607055664
30
0
0
SPLINE
5
141
100
AcDbEntity
8
0
100
AcDbSpline
70
0
71
3
72
9
73
5
74
0
42
0.000000001
43
0.0000000001
44
0.0000000001
40
0
40
0
40
0
40
0
40
0.039078434237786591
40
0.086233112290701477
40
0.086233112290701477
40
0.086233112290701477
40
0.086233112290701477
10
670.86630254983902
20
6.9031381607055664
30
0
10
670.9770056014753
20
6.9727783305734272
30
0
10
671.22129043194161
20
7.1264510328013975
30
0
10
671.49672444177213
20
7.2135999291163477
30
0
10
671.64733946323395
20
7.2612553834915161
30
0
0
SPLINE
5
142
100
AcDbEntity
8
0
100
AcDbSpline
70
0
71
3
72
9
73
5
74
0
42
0.000000001
43
0.0000000001
44
0.0000000001
40
0
40
0
40
0
40
0
40
0.052412040437253588
40
0.1073605508866078
40
0.1073605508866078
40
0.1073605508866078
40
0.1073605508866078
10
671.64733946323395
20
7.2612553834915161
30
0
10
671.81730113413414
20
7.3040235974967924
30
0
10
672.16544973634882
20
7.3916297845052856
30
0
10
672.5243559865919
20
7.4024001833436959
30
0
10
672.70804882049561
20
7.4079126119613647
30
0
0
SPLINE
5
143
100
AcDbEntity
8
0
100
AcDbSpline
70
0
71
3
72
9
73
5
74
0
42
0.000000001
43
0.0000000001
44
0.0000000001
40
0
40
0
40
0
40
0
40
0.080299821178205999
40
0.1523556898345359
40
0.1523556898345359
40
0.1523556898345359
40
0.1523556898345359
10
672.70804882049561
20
7.4079126119613647
30
0
10
672.97706811846308
20
7.4000855564895893
30
0
10
673.48748794405253
20
7.3852350074064352
30
0
10
673.97483303247998
20
7.2339135659261755
30
0
10
674.20532047748566
20
7.1623468399047852
30
0
0
SPLINE
5
144
100
AcDbEntity
8
0
100
AcDbSpline
70
0
71
3
72
9
73
5
74
0
42
0.000000001
43
0.0000000001
44
0.0000000001
40
0
40
0
40
0
40
0
40
0.063037455081291577
40
0.11731127866853588
40
0.11731127866853588
40
0.11731127866853588
40
0.11731127866853588
10
674.20532047748566
20
7.1623468399047852
30
0
10
674.40151306111841
20
7.0792228381611286
30
0
10
674.76662302346654
20
6.9245309502982888
30
0
10
675.03344453444765
20
6.6324173963704682
30
0
10
675.15688896179199
20
6.4972716569900513
30
0
0
SPLINE
5
145
100
AcDbEntity
8
0
100
AcDbSpline
70
0
71
3
72
9
73
5
74
0
42
0.000000001
43
0.0000000001
44
0.0000000001
40
0
40
0
40
0
40
0
40
0.05545840022226322
40
0.12072701214833834
40
0.12072701214833834
40
0.12072701214833834
40
0.12072701214833834
10
675.15688896179199
20
6.4972716569900513
30
0
10
675.25248726381187
20
6.3374109481563865
30
0
10
675.46059455365571
20
5.9894112644284707
30
0
10
675.53797447073521
20
5.5907167923253329
30
0
10
675.57980835437775
20
5.3751707077026367
30
0
0
LINE
5
146
100
AcDbEntity
8
0
100
AcDbLine
10
675.57980835437763
20
5.3751707077026367
30
0
11
674.37926322221756
21
5.2114599943161011
31
0
0
SPLINE
5
147
100
AcDbEntity
8
0
100
AcDbSpline
70
0
71
3
72
9
73
5
74
0
42
0.000000001
43
0.0000000001
44
0.0000000001
40
0
40
0
40
0
40
0
40
0.05228585680510963
40
0.10124972275332689
40
0.10124972275332689
40
0.10124972275332689
40
0.10124972275332689
10
674.37926322221756
20
5.2114599943161011
30
0
10
674.34130746038636
20
5.3858212755799704
30
0
10
674.26780746254497
20
5.7234657642738291
30
0
10
674.02338531467262
20
5.9668733103840186
30
0
10
673.90518397092819
20
6.0845839977264404
30
0
0
SPLINE
5
148
100
AcDbEntity
8
0
100
AcDbSpline
70
0
71
3
72
9
73
5
74
0
42
0.000000001
43
0.0000000001
44
0.0000000001
40
0
40
0
40
0
40
0
40
0.052851283026459639
40
0.11685697742957483
40
0.11685697742957483
40
0.11685697742957483
40
0.11685697742957483
10
673.90518397092819
20
6.0845839977264404
30
0
10
673.75130884896589
20
6.1758855600500944
30
0
10
673.41108282937955
20
6.3777581352607733
30
0
10
673.01414119092374
20
6.391071194508112
30
0
10
672.79672563076019
20
6.3983631134033203
30
0
0
SPLINE
5
149
100
AcDbEntity
8
0
100
AcDbSpline
70
0
71
3
72
9
73
5
74
0
42
0.000000001
43
0.0000000001
44
0.0000000001
40
0
40
0
40
0
40
0
40
0.072812588986902085
40
0.12543439414627333
40
0.12543439414627333
40
0.12543439414627333
40
0.12543439414627333
10
672.79672563076019
20
6.3983631134033203
30
0
10
672.54962578061043
20
6.3963723314740939
30
0
10
672.12394636955742
20
6.3929428074227692
30
0
10
671.74734789387628
20
6.1997415132494362
30
0
10
671.58935859799385
20
6.1186903715133667
30
0
0
SPLINE
5
150
100
AcDbEntity
8
0
100
AcDbSpline
70
0
71
3
72
9
73
5
74
0
42
0.000000001
43
0.0000000001
44
0.0000000001
40
0
40
0
40
0
40
0
40
0.040701494609188392
40
0.076975094511969128
40
0.076975094511969128
40
0.076975094511969128
40
0.076975094511969128
10
671.58935859799385
20
6.1186903715133667
30
0
10
671.48401870196369
20
6.0254949026122517
30
0
10
671.28479878312123
20
5.8492426520344267
30
0
10
671.24607756363798
20
5.5872897260198346
30
0
10
671.22783064842224
20
5.4638475179672241
30
0
0
SPLINE
5
151
100
AcDbEntity
8
0
100
AcDbSpline
70
0
71
3
72
9
73
5
74
0
42
0.000000001
43
0.0000000001
44
0.0000000001
40
0
40
0
40
0
40
0
40
0.022988955279932097
40
0.046194512296039048
40
0.046194512296039048
40
0.046194512296039048
40
0.046194512296039048
10
671.22783064842224
20
5.4638475179672241
30
0
10
671.23419990384718
20
5.3861077023121222
30
0
10
671.24699842576615
20
5.2298956071367382
30
0
10
671.33412912781796
20
5.0995731415102217
30
0
10
671.37789875268936
20
5.0341063737869263
30
0
0
SPLINE
5
152
100
AcDbEntity
8
0
100
AcDbSpline
70
0
71
3
72
9
73
5
74
0
42
0.000000001
43
0.0000000001
44
0.0000000001
40
0
40
0
40
0
40
0
40
0.02642147909848569
40
0.057849836476920061
40
0.057849836476920061
40
0.057849836476920061
40
0.057849836476920061
10
671.37789875268936
20
5.0341063737869263
30
0
10
671.43901284067385
20
4.9694768941670446
30
0
10
671.5728221547987
20
4.8279706289930848
30
0
10
671.75149747909643
20
4.7493808125272876
30
0
10
671.84856727719307
20
4.706684947013855
30
0
0
SPLINE
5
153
100
AcDbEntity
8
0
100
AcDbSpline
70
0
71
3
72
9
73
5
74
0
42
0.000000001
43
0.0000000001
44
0.0000000001
40
0
40
0
40
0
40
0
40
0.038027106175858659
40
0.11291632542266597
40
0.11291632542266597
40
0.11291632542266597
40
0.11291632542266597
10
671.84856727719307
20
4.706684947013855
30
0
10
671.96947367292626
20
4.6685858534949887
30
0
10
672.32848878870061
20
4.5554557714374644
30
0
10
672.69203635785834
20
4.4577241418089333
30
0
10
672.9331511259079
20
4.3929058313369751
30
0
0
SPLINE
5
154
100
AcDbEntity
8
0
100
AcDbSpline
70
0
71
3
72
9
73
5
74
0
42
0.000000001
43
0.0000000001
44
0.0000000001
40
0
40
0
40
0
40
0
40
0.1150254167506687
40
0.19059220039576422
40
0.19059220039576422
40
0.19059220039576422
40
0.19059220039576422
10
672.9331511259079
20
4.3929058313369751
30
0
10
673.304013521402
20
4.2944144737852596
30
0
10
673.91851666338562
20
4.1312185029639839
30
0
10
674.51466120243231
20
3.9107438945935771
30
0
10
674.75102305412292
20
3.8233292102813721
30
0
0
SPLINE
5
155
100
AcDbEntity
8
0
100
AcDbSpline
70
0
71
3
72
9
73
5
74
0
42
0.000000001
43
0.0000000001
44
0.0000000001
40
0
40
0
40
0
40
0
40
0.053404135174128509
40
0.10443927516964685
40
0.10443927516964685
40
0.10443927516964685
40
0.10443927516964685
10
674.75102305412292
20
3.8233292102813721
30
0
10
674.91228452272605
20
3.7427117163462187
30
0
10
675.22765393819896
20
3.585052902002952
30
0
10
675.45046591863252
20
3.3120992254079407
30
0
10
675.55934488773346
20
3.178718090057373
30
0
0
SPLINE
5
156
100
AcDbEntity
8
0
100
AcDbSpline
70
0
71
3
72
9
73
5
74
0
42
0.000000001
43
0.0000000001
44
0.0000000001
40
0
40
0
40
0
40
0
40
0.052263346131337082
40
0.11036774954961094
40
0.11036774954961094
40
0.11036774954961094
40
0.11036774954961094
10
675.55934488773346
20
3.178718090057373
30
0
10
675.64483016235613
20
3.0241936812868553
30
0
10
675.82535471882113
20
2.6978749032348648
30
0
10
675.84324263583767
20
2.3247014406338806
30
0
10
675.8526599407196
20
2.1282398700714111
30
0
0
SPLINE
5
157
100
AcDbEntity
8
0
100
AcDbSpline
70
0
71
3
72
9
73
5
74
0
42
0.000000001
43
0.0000000001
44
0.0000000001
40
0
40
0
40
0
40
0
40
0.060269626304864467
40
0.12239539859084268
40
0.12239539859084268
40
0.12239539859084268
40
0.12239539859084268
10
675.8526599407196
20
2.1282398700714111
30
0
10
675.83685359516824
20
1.9252573798913519
30
0
10
675.80475411019324
20
1.513041072677499
30
0
10
675.59898668078336
20
1.1541827702559071
30
0
10
675.49454271793365
20
0.97203254699707031
30
0
0
SPLINE
5
158
100
AcDbEntity
8
0
100
AcDbSpline
70
0
71
3
72
9
73
5
74
0
42
0.000000001
43
0.0000000001
44
0.0000000001
40
0
40
0
40
0
40
0
40
0.065007399631442808
40
0.13453981565169698
40
0.13453981565169698
40
0.13453981565169698
40
0.13453981565169698
10
675.49454271793365
20
0.97203254699707031
30
0
10
675.35838603006243
20
0.79996810114975503
30
0
10
675.07659509872519
20
0.44386219696416429
30
0
10
674.67082652925671
20
0.23892821182910362
30
0
10
674.46111857891083
20
0.13301491737365723
30
0
0
SPLINE
5
159
100
AcDbEntity
8
0
100
AcDbSpline
70
0
71
3
72
9
73
5
74
0
42
0.000000001
43
0.0000000001
44
0.0000000001
40
0
40
0
40
0
40
0
40
0.075326988441107356
40
0.1564988783934563
40
0.1564988783934563
40
0.1564988783934563
40
0.1564988783934563
10
674.46111857891083
20
0.13301491737365723
30
0
10
674.22368133057398
20
0.0465030171649361
30
0
10
673.73038319371062
20
-0.13323356371452988
30
0
10
673.20543043953398
20
-0.15330222026028961
30
0
10
672.9331511259079
20
-0.1637113094329834
30
0
0
SPLINE
5
160
100
AcDbEntity
8
0
100
AcDbSpline
70
0
71
3
72
9
73
5
74
0
42
0.000000001
43
0.0000000001
44
0.0000000001
40
0
40
0
40
0
40
0
40
0.12526462656851903
40
0.22617008617105366
40
0.22617008617105366
40
0.22617008617105366
40
0.22617008617105366
10
672.9331511259079
20
-0.1637113094329834
30
0
10
672.50769868609507
20
-0.1517048880279126
30
0
10
671.73952799329766
20
-0.13002683383034563
30
0
10
671.07673898219321
20
0.25233140756179884
30
0
10
670.7810366153717
20
0.42291998863220215
30
0
0
SPLINE
5
161
100
AcDbEntity
8
0
100
AcDbSpline
70
0
71
3
72
9
73
5
74
0
42
0.000000001
43
0.0000000001
44
0.0000000001
40
0
40
0
40
0
40
0
40
0.09475037415371089
40
0.20139101611646931
40
0.20139101611646931
40
0.20139101611646931
40
0.20139101611646931
10
670.7810366153717
20
0.42291998863220215
30
0
10
670.55500255357845
20
0.65228792643640343
30
0
10
670.07456931214722
20
1.1398072895155442
30
0
10
669.91878167563175
20
1.8083433755668032
30
0
10
669.83628895133734
20
2.1623468399047852
30
0
0
LWPOLYLINE
5
162
100
AcDbEntity
8
0
100
AcDbPolyline
90
4
70
1
43
0.0
10
681.20054543018341
20
10
10
681.20054543018341
20
8.5879945755004883
10
682.42837637662888
20
8.5879945755004883
10
682.42837637662888
20
10
0
LWPOLYLINE
5
163
100
AcDbEntity
8
0
100
AcDbPolyline
90
4
70
1
43
0.0
10
681.20054543018341
20
7.2442018985748291
10
681.20054543018341
20
0
10
682.42837637662888
20
0
10
682.42837637662888
20
7.2442018985748291
0
LINE
5
164
100
AcDbEntity
8
0
100
AcDbLine
10
683.80627539008856
20
2.1623468399047852
30
0
11
685.0204636156559
21
2.3533427715301514
31
0
0
SPLINE
5
165
100
AcDbEntity
8
0
100
AcDbSpline
70
0
71
3
72
9
73
5
74
0
42
0.000000001
43
0.0000000001
44
0.0000000001
40
0
40
0
40
0
40
0
40
0.067304393008918897
40
0.12781423788693538
40
0.12781423788693538
40
0.12781423788693538
40
0.12781423788693538
10
685.0204636156559
20
2.3533427715301514
30
0
10
685.06526181500715
20
2.1281773514624969
30
0
10
685.15033572256061
20
1.7005775280657454
30
0
10
685.4487605056778
20
1.3843569976755887
30
0
10
685.59004083275795
20
1.2346518039703369
30
0
0
SPLINE
5
166
100
AcDbEntity
8
0
100
AcDbSpline
70
0
71
3
72
9
73
5
74
0
42
0.000000001
43
0.0000000001
44
0.0000000001
40
0
40
0
40
0
40
0
40
0.063155181618534728
40
0.13839351615468004
40
0.13839351615468004
40
0.13839351615468004
40
0.13839351615468004
10
685.59004083275795
20
1.2346518039703369
30
0
10
685.77174893416486
20
1.1214751685586899
30
0
10
686.16993040436284
20
0.8734683998381132
30
0
10
686.64049278987591
20
0.85556957290128022
30
0
10
686.89631640911102
20
0.84583878517150879
30
0
0
SPLINE
5
167
100
AcDbEntity
8
0
100
AcDbSpline
70
0
71
3
72
9
73
5
74
0
42
0.000000001
43
0.0000000001
44
0.0000000001
40
0
40
0
40
0
40
0
40
0.074171504256804202
40
0.13209425904072236
40
0.13209425904072236
40
0.13209425904072236
40
0.13209425904072236
10
686.89631640911102
20
0.84583878517150879
30
0
10
687.14870040213827
20
0.85164399366230992
30
0
10
687.59817863352521
20
0.86198266377360611
30
0
10
687.9827843509986
20
1.0902291896880123
30
0
10
688.15143227577209
20
1.1903142929077148
30
0
0
SPLINE
5
168
100
AcDbEntity
8
0
100
AcDbSpline
70
0
71
3
72
9
73
5
74
0
42
0.000000001
43
0.0000000001
44
0.0000000001
40
0
40
0
40
0
40
0
40
0.048408280956297317
40
0.092998510372171439
40
0.092998510372171439
40
0.092998510372171439
40
0.092998510372171439
10
688.15143227577209
20
1.1903142929077148
30
0
10
688.2707445800645
20
1.3066846206858451
30
0
10
688.49995880434767
20
1.5302469311231404
30
0
10
688.54102111027464
20
1.8468385510611962
30
0
10
688.56070935726166
20
1.9986355304718018
30
0
0
SPLINE
5
169
100
AcDbEntity
8
0
100
AcDbSpline
70
0
71
3
72
9
73
5
74
0
42
0.000000001
43
0.0000000001
44
0.0000000001
40
0
40
0
40
0
40
0
40
0.038258922887553039
40
0.077457943140584615
40
0.077457943140584615
40
0.077457943140584615
40
0.077457943140584615
10
688.56070935726166
20
1.9986355304718018
30
0
10
688.54492749994324
20
2.1304145110966144
30
0
10
688.51297599387465
20
2.3972105424005097
30
0
10
688.30462242414706
20
2.5673677751609647
30
0
10
688.19918125867844
20
2.6534789800643921
30
0
0
SPLINE
5
170
100
AcDbEntity
8
0
100
AcDbSpline
70
0
71
3
72
9
73
5
74
0
42
0.000000001
43
0.0000000001
44
0.0000000001
40
0
40
0
40
0
40
0
40
0.047762670491161473
40
0.13246562117119623
40
0.13246562117119623
40
0.13246562117119623
40
0.13246562117119623
10
688.19918125867844
20
2.6534789800643921
30
0
10
688.05370602892617
20
2.7188081134994571
30
0
10
687.65024310535068
20
2.8999927950103688
30
0
10
687.21949813771312
20
3.0034336641096129
30
0
10
686.94406539201736
20
3.0695772171020508
30
0
0
SPLINE
5
171
100
AcDbEntity
8
0
100
AcDbSpline
70
0
71
3
72
9
73
5
74
0
42
0.000000001
43
0.0000000001
44
0.0000000001
40
0
40
0
40
0
40
0
40
0.11868253179711219
40
0.19649384654460178
40
0.19649384654460178
40
0.19649384654460178
40
0.19649384654460178
10
686.94406539201736
20
3.0695772171020508
30
0
10
686.55975873168643
20
3.1658439816020643
30
0
10
685.92349075865218
20
3.3252257083362711
30
0
10
685.31326998144334
20
3.5647618798457192
30
0
10
685.0716233253479
20
3.6596179008483887
30
0
0
SPLINE
5
172
100
AcDbEntity
8
0
100
AcDbSpline
70
0
71
3
72
9
73
5
74
0
42
0.000000001
43
0.0000000001
44
0.0000000001
40
0
40
0
40
0
40
0
40
0.054633361394137797
40
0.10605525041118452
40
0.10605525041118452
40
0.10605525041118452
40
0.10605525041118452
10
685.0716233253479
20
3.6596179008483887
30
0
10
684.90966143151627
20
3.7482241225071911
30
0
10
684.5952581297779
20
3.9202280919905985
30
0
10
684.38318175925531
20
4.2086995940949752
30
0
10
684.28035452961922
20
4.3485677242279053
30
0
0
SPLINE
5
173
100
AcDbEntity
8
0
100
AcDbSpline
70
0
71
3
72
9
73
5
74
0
42
0.000000001
43
0.0000000001
44
0.0000000001
40
0
40
0
40
0
40
0
40
0.050517375102378026
40
0.10186492129073335
40
0.10186492129073335
40
0.10186492129073335
40
0.10186492129073335
10
684.28035452961922
20
4.3485677242279053
30
0
10
684.20176913496459
20
4.4997738110572509
30
0
10
684.04330692221379
20
4.8046708113930015
30
0
10
684.02177002671226
20
5.1476919419973211
30
0
10
684.01091381907463
20
5.3206002712249756
30
0
0
SPLINE
5
174
100
AcDbEntity
8
0
100
AcDbSpline
70
0
71
3
72
9
73
5
74
0
42
0.000000001
43
0.0000000001
44
0.0000000001
40
0
40
0
40
0
40
0
40
0.046968656397910237
40
0.093126653167772716
40
0.093126653167772716
40
0.093126653167772716
40
0.093126653167772716
10
684.01091381907463
20
5.3206002712249756
30
0
10
684.01982510319203
20
5.478443254025783
30
0
10
684.03749386634001
20
5.7914049148773721
30
0
10
684.16794684730519
20
6.0763610881434049
30
0
10
684.23260554671288
20
6.2175989151000977
30
0
0
SPLINE
5
175
100
AcDbEntity
8
0
100
AcDbSpline
70
0
71
3
72
9
73
5
74
0
42
0.000000001
43
0.0000000001
44
0.0000000001
40
0
40
0
40
0
40
0
40
0.045956604513632641
40
0.091962501098677527
40
0.091962501098677527
40
0.091962501098677527
40
0.091962501098677527
10
684.23260554671288
20
6.2175989151000977
30
0
10
684.31321602873254
20
6.3493594594721419
30
0
10
684.47452345385113
20
6.6130218717589786
30
0
10
684.71565739426399
20
6.8063981810363785
30
0
10
684.83628898859024
20
6.9031381607055664
30
0
0
SPLINE
5
176
100
AcDbEntity
8
0
100
AcDbSpline
70
0
71
3
72
9
73
5
74
0
42
0.000000001
43
0.0000000001
44
0.0000000001
40
0
40
0
40
0
40
0
40
0.039078434237786591
40
0.086233112290701477
40
0.086233112290701477
40
0.086233112290701477
40
0.086233112290701477
10
684.83628898859024
20
6.9031381607055664
30
0
10
684.94699204022652
20
6.9727783305734272
30
0
10
685.19127687069283
20
7.1264510328013975
30
0
10
685.46671088052335
20
7.2135999291163477
30
0
10
685.61732590198517
20
7.2612553834915161
30
0
0
SPLINE
5
177
100
AcDbEntity
8
0
100
AcDbSpline
70
0
71
3
72
9
73
5
74
0
42
0.000000001
43
0.0000000001
44
0.0000000001
40
0
40
0
40
0
40
0
40
0.052412040437253588
40
0.1073605508866078
40
0.1073605508866078
40
0.1073605508866078
40
0.1073605508866078
10
685.61732590198517
20
7.2612553834915161
30
0
10
685.78728757288536
20
7.3040235974967924
30
0
10
686.13543617510004
20
7.3916297845052856
30
0
10
686.49434242534312
20
7.4024001833436959
30
0
10
686.67803525924683
20
7.4079126119613647
30
0
0
SPLINE
5
178
100
AcDbEntity
8
0
100
AcDbSpline
70
0
71
3
72
9
73
5
74
0
42
0.000000001
43
0.0000000001
44
0.0000000001
40
0
40
0
40
0
40
0
40
0.080299821178205999
40
0.1523556898345359
40
0.1523556898345359
40
0.1523556898345359
40
0.1523556898345359
10
686.67803525924683
20
7.4079126119613647
30
0
10
686.9470545572143
20
7.4000855564895893
30
0
10
687.45747438280375
20
7.3852350074064352
30
0
10
687.9448194712312
20
7.2339135659261755
30
0
10
688.17530691623688
20
7.1623468399047852
30
0
0
SPLINE
5
179
100
AcDbEntity
8
0
100
AcDbSpline
70
0
71
3
72
9
73
5
74
0
42
0.000000001
43
0.0000000001
44
0.0000000001
40
0
40
0
40
0
40
0
40
0.063037455081291577
40
0.11731127866853588
40
0.11731127866853588
40
0.11731127866853588
40
0.11731127866853588
10
688.17530691623688
20
7.1623468399047852
30
0
10
688.37149949986963
20
7.0792228381611286
30
0
10
688.73660946221776
20
6.9245309502982888
30
0
10
689.00343097319887
20
6.6324173963704682
30
0
10
689.12687540054321
20
6.4972716569900513
30
0
0
SPLINE
5
180
100
AcDbEntity
8
0
100
AcDbSpline
70
0
71
3
72
9
73
5
74
0
42
0.000000001
43
0.0000000001
44
0.0000000001
40
0
40
0
40
0
40
0
40
0.05545840022226322
40
0.12072701214833834
40
0.12072701214833834
40
0.12072701214833834
40
0.12072701214833834
10
689.12687540054321
20
6.4972716569900513
30
0
10
689.22247370256309
20
6.3374109481563865
30
0
10
689.43058099240693
20
5.9894112644284707
30
0
10
689.50796090948643
20
5.5907167923253329
30
0
10
689.54979479312897
20
5.3751707077026367
30
0
0
LINE
5
181
100
AcDbEntity
8
0
100
AcDbLine
10
689.54979479312885
20
5.3751707077026367
30
0
11
688.34924966096878
21
5.2114599943161011
31
0
0
SPLINE
5
182
100
AcDbEntity
8
0
100
AcDbSpline
70
0
71
3
72
9
73
5
74
0
42
0.000000001
43
0.0000000001
44
0.0000000001
40
0
40
0
40
0
40
0
40
0.05228585680510963
40
0.10124972275332689
40
0.10124972275332689
40
0.10124972275332689
40
0.10124972275332689
10
688.34924966096878
20
5.2114599943161011
30
0
10
688.31129389913758
20
5.3858212755799704
30
0
10
688.23779390129619
20
5.7234657642738291
30
0
10
687.99337175342384
20
5.9668733103840186
30
0
10
687.87517040967941
20
6.0845839977264404
30
0
0
SPLINE
5
183
100
AcDbEntity
8
0
100
AcDbSpline
70
0
71
3
72
9
73
5
74
0
42
0.000000001
43
0.0000000001
44
0.0000000001
40
0
40
0
40
0
40
0
40
0.052851283026459639
40
0.11685697742957483
40
0.11685697742957483
40
0.11685697742957483
40
0.11685697742957483
10
687.87517040967941
20
6.0845839977264404
30
0
10
687.72129528771711
20
6.1758855600500944
30
0
10
687.38106926813077
20
6.3777581352607733
30
0
10
686.98412762967496
20
6.391071194508112
30
0
10
686.76671206951141
20
6.3983631134033203
30
0
0
SPLINE
5
184
100
AcDbEntity
8
0
100
AcDbSpline
70
0
71
3
72
9
73
5
74
0
42
0.000000001
43
0.0000000001
44
0.0000000001
40
0
40
0
40
0
40
0
40
0.072812588986902085
40
0.12543439414627333
40
0.12543439414627333
40
0.12543439414627333
40
0.12543439414627333
10
686.76671206951141
20
6.3983631134033203
30
0
10
686.51961221936165
20
6.3963723314740939
30
0
10
686.09393280830864
20
6.3929428074227692
30
0
10
685.7173343326275
20
6.1997415132494362
30
0
10
685.55934503674507
20
6.1186903715133667
30
0
0
SPLINE
5
185
100
AcDbEntity
8
0
100
AcDbSpline
70
0
71
3
72
9
73
5
74
0
42
0.000000001
43
0.0000000001
44
0.0000000001
40
0
40
0
40
0
40
0
40
0.040701494609188392
40
0.076975094511969128
40
0.076975094511969128
40
0.076975094511969128
40
0.076975094511969128
10
685.55934503674507
20
6.1186903715133667
30
0
10
685.45400514071491
20
6.0254949026122517
30
0
10
685.25478522187245
20
5.8492426520344267
30
0
10
685.2160640023892
20
5.5872897260198346
30
0
10
685.19781708717346
20
5.4638475179672241
30
0
0
SPLINE
5
186
100
AcDbEntity
8
0
100
AcDbSpline
70
0
71
3
72
9
73
5
74
0
42
0.000000001
43
0.0000000001
44
0.0000000001
40
0
40
0
40
0
40
0
40
0.022988955279932097
40
0.046194512296039048
40
0.046194512296039048
40
0.046194512296039048
40
0.046194512296039048
10
685.19781708717346
20
5.4638475179672241
30
0
10
685.2041863425984
20
5.3861077023121222
30
0
10
685.21698486451737
20
5.2298956071367382
30
0
10
685.30411556656918
20
5.0995731415102217
30
0
10
685.34788519144058
20
5.0341063737869263
30
0
0
SPLINE
5
187
100
AcDbEntity
8
0
100
AcDbSpline
70
0
71
3
72
9
73
5
74
0
42
0.000000001
43
0.0000000001
44
0.0000000001
40
0
40
0
40
0
40
0
40
0.02642147909848569
40
0.057849836476920061
40
0.057849836476920061
40
0.057849836476920061
40
0.057849836476920061
10
685.34788519144058
20
5.0341063737869263
30
0
10
685.40899927942507
20
4.9694768941670446
30
0
10
685.54280859354992
20
4.8279706289930848
30
0
10
685.72148391784765
20
4.7493808125272876
30
0
10
685.81855371594429
20
4.706684947013855
30
0
0
SPLINE
5
188
100
AcDbEntity
8
0
100
AcDbSpline
70
0
71
3
72
9
73
5
74
0
42
0.000000001
43
0.0000000001
44
0.0000000001
40
0
40
0
40
0
40
0
40
0.038027106175858659
40
0.11291632542266597
40
0.11291632542266597
40
0.11291632542266597
40
0.11291632542266597
10
685.81855371594429
20
4.706684947013855
30
0
10
685.93946011167748
20
4.6685858534949887
30
0
10
686.29847522745183
20
4.5554557714374644
30
0
10
686.66202279660956
20
4.4577241418089333
30
0
10
686.90313756465912
20
4.3929058313369751
30
0
0
SPLINE
5
189
100
AcDbEntity
8
0
100
AcDbSpline
70
0
71
3
72
9
73
5
74
0
42
0.000000001
43
0.0000000001
44
0.0000000001
40
0
40
0
40
0
40
0
40
0.1150254167506687
40
0.19059220039576422
40
0.19059220039576422
40
0.19059220039576422
40
0.19059220039576422
10
686.90313756465912
20
4.3929058313369751
30
0
10
687.27399996015322
20
4.2944144737852596
30
0
10
687.88850310213684
20
4.1312185029639839
30
0
10
688.48464764118353
20
3.9107438945935771
30
0
10
688.72100949287415
20
3.8233292102813721
30
0
0
SPLINE
5
190
100
AcDbEntity
8
0
100
AcDbSpline
70
0
71
3
72
9
73
5
74
0
42
0.000000001
43
0.0000000001
44
0.0000000001
40
0
40
0
40
0
40
0
40
0.053404135174128509
40
0.10443927516964685
40
0.10443927516964685
40
0.10443927516964685
40
0.10443927516964685
10
688.72100949287415
20
3.8233292102813721
30
0
10
688.88227096147727
20
3.7427117163462187
30
0
10
689.19764037695018
20
3.585052902002952
30
0
10
689.42045235738374
20
3.3120992254079407
30
0
10
689.52933132648468
20
3.178718090057373
30
0
0
SPLINE
5
191
100
AcDbEntity
8
0
100
AcDbSpline
70
0
71
3
72
9
73
5
74
0
42
0.000000001
43
0.0000000001
44
0.0000000001
40
0
40
0
40
0
40
0
40
0.052263346131337082
40
0.11036774954961094
40
0.11036774954961094
40
0.11036774954961094
40
0.11036774954961094
10
689.52933132648468
20
3.178718090057373
30
0
10
689.61481660110735
20
3.0241936812868553
30
0
10
689.79534115757235
20
2.6978749032348648
30
0
10
689.81322907458889
20
2.3247014406338806
30
0
10
689.82264637947083
20
2.1282398700714111
30
0
0
SPLINE
5
192
100
AcDbEntity
8
0
100
AcDbSpline
70
0
71
3
72
9
73
5
74
0
42
0.000000001
43
0.0000000001
44
0.0000000001
40
0
40
0
40
0
40
0
40
0.060269626304864467
40
0.12239539859084268
40
0.12239539859084268
40
0.12239539859084268
40
0.12239539859084268
10
689.82264637947083
20
2.1282398700714111
30
0
10
689.80684003391946
20
1.9252573798913519
30
0
10
689.77474054894446
20
1.513041072677499
30
0
10
689.56897311953458
20
1.1541827702559071
30
0
10
689.46452915668488
20
0.97203254699707031
30
0
0
SPLINE
5
193
100
AcDbEntity
8
0
100
AcDbSpline
70
0
71
3
72
9
73
5
74
0
42
0.000000001
43
0.0000000001
44
0.0000000001
40
0
40
0
40
0
40
0
40
0.065007399631442808
40
0.13453981565169698
40
0.13453981565169698
40
0.13453981565169698
40
0.13453981565169698
10
689.46452915668488
20
0.97203254699707031
30
0
10
689.32837246881365
20
0.79996810114975503
30
0
10
689.04658153747641
20
0.44386219696416429
30
0
10
688.64081296800794
20
0.23892821182910362
30
0
10
688.43110501766205
20
0.13301491737365723
30
0
0
SPLINE
5
194
100
AcDbEntity
8
0
100
AcDbSpline
70
0
71
3
72
9
73
5
74
0
42
0.000000001
43
0.0000000001
44
0.0000000001
40
0
40
0
40
0
40
0
40
0.075326988441107356
40
0.1564988783934563
40
0.1564988783934563
40
0.1564988783934563
40
0.1564988783934563
10
688.43110501766205
20
0.13301491737365723
30
0
10
688.1936677693252
20
0.0465030171649361
30
0
10
687.70036963246184
20
-0.13323356371452988
30
0
10
687.1754168782852
20
-0.15330222026028961
30
0
10
686.90313756465912
20
-0.1637113094329834
30
0
0
SPLINE
5
195
100
AcDbEntity
8
0
100
AcDbSpline
70
0
71
3
72
9
73
5
74
0
42
0.000000001
43
0.0000000001
44
0.0000000001
40
0
40
0
40
0
40
0
40
0.12526462656851903
40
0.22617008617105366
40
0.22617008617105366
40
0.22617008617105366
40
0.22617008617105366
10
686.90313756465912
20
-0.1637113094329834
30
0
10
686.47768512484629
20
-0.1517048880279126
30
0
10
685.70951443204888
20
-0.13002683383034563
30
0
10
685.04672542094443
20
0.25233140756179884
30
0
10
684.75102305412292
20
0.42291998863220215
30
0
0
SPLINE
5
196
100
AcDbEntity
8
0
100
AcDbSpline
70
0
71
3
72
9
73
5
74
0
42
0.000000001
43
0.0000000001
44
0.0000000001
40
0
40
0
40
0
40
0
40
0.09475037415371089
40
0.20139101611646931
40
0.20139101611646931
40
0.20139101611646931
40
0.20139101611646931
10
684.75102305412292
20
0.42291998863220215
30
0
10
684.52498899232967
20
0.65228792643640343
30
0
10
684.04455575089844
20
1.1398072895155442
30
0
10
683.88876811438297
20
1.8083433755668032
30
0
10
683.80627539008856
20
2.1623468399047852
30
0
0
LWPOLYLINE
5
197
100
AcDbEntity
8
0
100
AcDbPolyline
90
8
70
1
43
0.0
10
697.86493837833405
20
8.8199180364608765
10
697.86493837833405
20
0
10
699.18826699256897
20
0
10
699.18826699256897
20
8.8199180364608765
10
702.4965888261795
20
8.8199180364608765
10
702.4965888261795
20
10
10
694.57025900483131
20
10
10
694.57025900483131
20
8.8199180364608765
0
LWPOLYLINE
5
198
100
AcDbEntity
8
0
100
AcDbPolyline
90
12
70
1
43
0.0
10
703.88130933046341
20
10
10
703.88130933046341
20
0
10
711.34379267692566
20
0
10
711.34379267692566
20
1.1800813674926758
10
705.20463809370995
20
1.1800813674926758
10
705.20463809370995
20
4.5839017629623413
10
710.73669791221619
20
4.5839017629623413
10
710.73669791221619
20
5.7571625709533691
10
705.20463809370995
20
5.7571625709533691
10
705.20463809370995
20
8.8199180364608765
10
711.11186861991882
20
8.8199180364608765
10
711.11186861991882
20
10
0
LINE
5
199
100
AcDbEntity
8
0
100
AcDbLine
10
712.1555250370875
20
0
30
0
11
716.02319210767746
21
5.2114599943161011
31
0
0
LINE
5
200
100
AcDbEntity
8
0
100
AcDbLine
10
716.02319210767746
20
5.2114599943161011
30
0
11
712.61255096644163
21
10
31
0
0
LINE
5
201
100
AcDbEntity
8
0
100
AcDbLine
10
712.61255096644163
20
10
30
0
11
714.18826729059219
21
10
31
0
0
LINE
5
202
100
AcDbEntity
8
0
100
AcDbLine
10
714.18826729059219
20
10
30
0
11
716.00272834300995
21
7.4351978302001953
31
0
0
SPLINE
5
203
100
AcDbEntity
8
0
100
AcDbSpline
70
0
71
3
72
9
73
5
74
0
42
0.000000001
43
0.0000000001
44
0.0000000001
40
0
40
0
40
0
40
0
40
0.085615241605650039
40
0.14685974575741564
40
0.14685974575741564
40
0.14685974575741564
40
0.14685974575741564
10
716.00272834300995
20
7.4351978302001953
30
0
10
716.1676763651559
20
7.2021443534980456
30
0
10
716.45061926342066
20
6.8023770492835967
30
0
10
716.70256950333044
20
6.3824769371851309
30
0
10
716.80763959884644
20
6.2073671817779541
30
0
0
SPLINE
5
204
100
AcDbEntity
8
0
100
AcDbSpline
70
0
71
3
72
9
73
5
74
0
42
0.000000001
43
0.0000000001
44
0.0000000001
40
0
40
0
40
0
40
0
40
0.066643975135243574
40
0.13874921505398863
40
0.13874921505398863
40
0.13874921505398863
40
0.13874921505398863
10
716.80763959884644
20
6.2073671817779541
30
0
10
716.92695602823528
20
6.3948616714177593
30
0
10
717.17536649425494
20
6.7852152361875486
30
0
10
717.45407119079437
20
7.1545730328268373
30
0
10
717.59890854358673
20
7.3465210199356079
30
0
0
LINE
5
205
100
AcDbEntity
8
0
100
AcDbLine
10
717.59890854358684
20
7.3465210199356079
30
0
11
719.61118698120117
21
10
31
0
0
LINE
5
206
100
AcDbEntity
8
0
100
AcDbLine
10
719.61118698120117
20
10
30
0
11
721.05047762393951
21
10
31
0
0
LINE
5
207
100
AcDbEntity
8
0
100
AcDbLine
10
721.05047762393951
20
10
30
0
11
717.53751695156097
21
5.2864938974380493
31
0
0
LINE
5
208
100
AcDbEntity
8
0
100
AcDbLine
10
717.53751695156097
20
5.2864938974380493
30
0
11
721.32332861423492
21
0
31
0
0
LINE
5
209
100
AcDbEntity
8
0
100
AcDbLine
10
721.32332861423492
20
0
30
0
11
719.68622088432312
21
0
31
0
0
LINE
5
210
100
AcDbEntity
8
0
100
AcDbLine
10
719.68622088432312
20
0
30
0
11
717.16916739940643
21
3.5675311088562012
31
0
0
SPLINE
5
211
100
AcDbEntity
8
0
100
AcDbSpline
70
0
71
3
72
9
73
5
74
0
42
0.000000001
43
0.0000000001
44
0.0000000001
40
0
40
0
40
0
40
0
40
0.038594512629977415
40
0.07984631515680482
40
0.07984631515680482
40
0.07984631515680482
40
0.07984631515680482
10
717.16916739940643
20
3.5675311088562012
30
0
10
717.09694319181108
20
3.6740051236572402
30
0
10
716.94752203194548
20
3.894284048366623
30
0
10
716.80581646424139
20
4.1196059564940759
30
0
10
716.73260569572449
20
4.2360162734985352
30
0
0
SPLINE
5
212
100
AcDbEntity
8
0
100
AcDbSpline
70
0
71
3
72
9
73
5
74
0
42
0.000000001
43
0.0000000001
44
0.0000000001
40
0
40
0
40
0
40
0
40
0.054229178518621149
40
0.088945752463272285
40
0.088945752463272285
40
0.088945752463272285
40
0.088945752463272285
10
716.73260569572449
20
4.2360162734985352
30
0
10
716.63831208221745
20
4.0817662597655868
30
0
10
716.48365334249547
20
3.8287680784592615
30
0
10
716.3192747613657
20
3.581994202201777
30
0
10
716.25511586666107
20
3.4856754541397095
30
0
0
LINE
5
213
100
AcDbEntity
8
0
100
AcDbLine
10
716.25511586666107
20
3.4856754541397095
30
0
11
713.7448838353157
21
0
31
0
0
LINE
5
214
100
AcDbEntity
8
0
100
AcDbLine
10
713.7448838353157
20
0
30
0
11
712.1555250370875
21
0
31
0
0
LWPOLYLINE
5
215
100
AcDbEntity
8
0
100
AcDbPolyline
90
8
70
1
43
0.0
10
725.03410637378693
20
8.8199180364608765
10
725.03410637378693
20
0
10
726.35743498802185
20
0
10
726.35743498802185
20
8.8199180364608765
10
729.66575682163239
20
8.8199180364608765
10
729.66575682163239
20
10
10
721.73942700028419
20
10
10
721.73942700028419
20
8.8199180364608765
0
ENDSEC
0
SECTION
2
OBJECTS
0
DICTIONARY
5
C
100
AcDbDictionary
3
ACAD_GROUP
350
D
3
ACAD_MLINESTYLE
350
17
0
DICTIONARY
5
D
100
AcDbDictionary
0
DICTIONARY
5
1A
330
C
100
AcDbDictionary
0
DICTIONARY
5
17
100
AcDbDictionary
0
ENDSEC
0
EOF
