0
SECTION
2
HEADER
9
$INSUNITS
70
4
9
$ACADVER
1
AC1014
9
$HANDSEED
5
FFFF
0
ENDSEC
0
SECTION
2
TABLES
0
TABLE
2
VPORT
5
8
100
AcDbSymbolTable
0
ENDTAB
0
TABLE
2
LTYPE
5
5
100
AcDbSymbolTable
0
LTYPE
5
14
100
AcDbSymbolTableRecord
100
AcDbLinetypeTableRecord
2
BYBLOCK
70
0
0
LTYPE
5
15
100
AcDbSymbolTableRecord
100
AcDbLinetypeTableRecord
2
BYLAYER
70
0
0
ENDTAB
0
TABLE
2
LAYER
5
2
100
AcDbSymbolTable
70
2
0
LAYER
5
50
100
AcDbSymbolTableRecord
100
AcDbLayerTableRecord
2
0
70
0
6
CONTINUOUS
0
ENDTAB
0
TABLE
2
STYLE
5
3
100
AcDbSymbolTable
70
1
0
STYLE
5
11
100
AcDbSymbolTableRecord
100
AcDbTextStyleTableRecord
2
STANDARD
70
0
0
ENDTAB
0
TABLE
2
VIEW
5
6
100
AcDbSymbolTable
70
0
0
ENDTAB
0
TABLE
2
UCS
5
7
100
AcDbSymbolTable
70
0
0
ENDTAB
0
TABLE
2
APPID
5
9
100
AcDbSymbolTable
70
2
0
APPID
5
12
100
AcDbSymbolTableRecord
100
AcDbRegAppTableRecord
2
ACAD
70
0
0
ENDTAB
0
TABLE
2
DIMSTYLE
5
A
100
AcDbSymbolTable
70
1
0
ENDTAB
0
TABLE
2
BLOCK_RECORD
5
1
100
AcDbSymbolTable
70
1
0
BLOCK_RECORD
5
1F
100
AcDbSymbolTableRecord
100
AcDbBlockTableRecord
2
*MODEL_SPACE
0
BLOCK_RECORD
5
1B
100
AcDbSymbolTableRecord
100
AcDbBlockTableRecord
2
*PAPER_SPACE
0
ENDTAB
0
ENDSEC
0
SECTION
2
BLOCKS
0
BLOCK
5
20
100
AcDbEntity
100
AcDbBlockBegin
2
*MODEL_SPACE
0
ENDBLK
5
21
100
AcDbEntity
100
AcDbBlockEnd
0
BLOCK
5
1C
100
AcDbEntity
100
AcDbBlockBegin
2
*PAPER_SPACE
0
ENDBLK
5
1D
100
AcDbEntity
100
AcDbBlockEnd
0
ENDSEC
0
SECTION
2
ENTITIES
0
CIRCLE
5
100
100
AcDbEntity
8
0
100
AcDbCircle
10
0
20
0
30
0
40
15
210
0
220
0
230
1
0
LINE
5
101
100
AcDbEntity
8
0
100
AcDbLine
10
25
20
0
30
0
11
50
21
0
31
0
0
ARC
5
102
100
AcDbEntity
8
0
100
AcDbCircle
10
87.5
20
-2.5
30
-1.7763568394002505e-14
40
12.747548783981962
210
0
220
-7.1054273576010019e-15
230
1
100
AcDbArc
50
11.309932474020195
51
168.6900675259798
0
ELLIPSE
5
103
100
AcDbEntity
8
0
100
AcDbEllipse
10
135
20
0
30
0
11
-10
21
0
31
0.0
40
0.5
41
0
42
6.2831853071795862
0
SPLINE
5
104
100
AcDbEntity
8
0
100
AcDbSpline
70
4
71
5
72
36
73
30
74
0
42
0.000000001
43
0.0000000001
44
0.0000000001
40
0
40
0
40
0
40
0
40
0
40
0
40
0.040000000000000001
40
0.080000000000000002
40
0.12
40
0.16
40
0.20000000000000001
40
0.24000000000000002
40
0.28000000000000003
40
0.32000000000000001
40
0.35999999999999999
40
0.39999999999999997
40
0.43999999999999995
40
0.47999999999999993
40
0.51999999999999991
40
0.55999999999999994
40
0.59999999999999998
40
0.64000000000000001
40
0.68000000000000005
40
0.72000000000000008
40
0.76000000000000012
40
0.80000000000000016
40
0.84000000000000019
40
0.88000000000000023
40
0.92000000000000026
40
0.9600000000000003
40
1
40
1
40
1
40
1
40
1
40
1
41
1
41
1
41
1
41
1
41
1
41
1
41
1
41
1
41
1
41
1
41
1
41
1
41
1
41
1
41
1
41
1
41
1
41
1
41
1
41
1
41
1
41
1
41
1
41
1
41
1
41
1
41
1
41
1
41
1
41
1
10
175
20
0
30
0
10
175.20000000001392
20
3.35071391643663
30
0
10
175.60000000003777
20
9.5639016371810346
30
0
10
176.20000000006166
20
17.418964041594499
30
0
10
177.00000000007054
20
24.955287187341717
30
0
10
178.00000000005522
20
29.547256424405127
30
0
10
179.00000000002558
20
29.589679127497099
30
0
10
179.99999999999721
20
25.703146043531582
30
0
10
180.99999999998019
20
18.983564065984169
30
0
10
181.99999999997684
20
11.140781671996251
30
0
10
182.9999999999834
20
4.1083032032522304
30
0
10
183.99999999999338
20
-0.34483512153258411
30
0
10
185.00000000000139
20
-1.0037634448106239
30
0
10
186.00000000000361
20
2.3974425608999663
30
0
10
187.00000000000091
20
8.7722907306970139
30
0
10
187.99999999999685
20
16.227709269300988
30
0
10
188.99999999999525
20
22.602557439098717
30
0
10
189.99999999999864
20
26.003763444810545
30
0
10
191.00000000000739
20
25.34483512153404
30
0
10
192.00000000001739
20
20.891696796750448
30
0
10
193.00000000002299
20
13.859218328006797
30
0
10
194.00000000001884
20
6.0164359340180651
30
0
10
195.00000000000256
20
-0.70314604353139765
30
0
10
195.99999999997584
20
-4.5896791274998812
30
0
10
196.99999999994876
20
-4.5472564244107554
30
0
10
197.99999999993446
20
0.044712812651026897
30
0
10
198.79999999994351
20
7.5810359583991946
30
0
10
199.39999999996547
20
15.436098362815116
30
0
10
199.79999999998728
20
21.649286083561961
30
0
10
200
20
25
30
0
0
LWPOLYLINE
5
105
100
AcDbEntity
8
0
100
AcDbPolyline
90
6
70
1
43
0.0
10
226.90598923241495
20
-4.4408920985006262e-15
10
238.45299461620749
20
20
10
261.54700538379251
20
20.000000000000007
10
273.09401076758502
20
-4.4408920985006262e-15
10
261.54700538379251
20
-20.000000000000018
10
238.45299461620749
20
-20.000000000000018
0
LWPOLYLINE
5
106
100
AcDbEntity
8
0
100
AcDbPolyline
90
4
70
1
43
0.0
10
350
20
0
10
300
20
0
10
300
20
50
10
350
20
50
0
SPLINE
5
107
100
AcDbEntity
8
0
100
AcDbSpline
70
12
71
2
41
1
41
3
41
1
72
6
73
3
74
0
42
0.000000001
43
0.0000000001
44
0.0000000001
40
0
40
0
40
0
40
8.4852813742385695
40
8.4852813742385695
40
8.4852813742385695
10
400
20
0
30
0
10
430
20
40
30
0
10
460
20
0
30
0
0
LWPOLYLINE
5
108
100
AcDbEntity
8
0
100
AcDbPolyline
90
4
70
1
43
0.0
10
520
20
10
10
580
20
10
42
-0.99999999999999989
10
580
20
-10
10
520
20
-10
42
-0.99999999999999989
0
ENDSEC
0
SECTION
2
OBJECTS
0
DICTIONARY
5
C
100
AcDbDictionary
3
ACAD_GROUP
350
D
3
ACAD_MLINESTYLE
350
17
0
DICTIONARY
5
D
100
AcDbDictionary
0
DICTIONARY
5
1A
330
C
100
AcDbDictionary
0
DICTIONARY
5
17
100
AcDbDictionary
0
ENDSEC
0
EOF
