  0
SECTION
  2
HEADER
  9
$ACADVER
  1
AC1024
  9
$ACADMAINTVER
 70
6
  9
$DWGCODEPAGE
  3
ANSI_1252
  9
$LASTSAVEDBY
  1
ezdxf
  9
$INSBASE
 10
0.0
 20
0.0
 30
0.0
  9
$EXTMIN
 10
-100
 20
-100
 30
-100
  9
$EXTMAX
 10
100
 20
100
 30
100
  9
$LIMMIN
 10
0.0
 20
0.0
  9
$LIMMAX
 10
420.0
 20
297.0
  9
$ORTHOMODE
 70
0
  9
$REGENMODE
 70
1
  9
$FILLMODE
 70
1
  9
$QTEXTMODE
 70
0
  9
$MIRRTEXT
 70
1
  9
$LTSCALE
 40
1.0
  9
$ATTMODE
 70
1
  9
$TEXTSIZE
 40
2.5
  9
$TRACEWID
 40
1.0
  9
$TEXTSTYLE
  7
Standard
  9
$CLAYER
  8
0
  9
$CELTYPE
  6
ByLayer
  9
$CECOLOR
 62
256
  9
$CELTSCALE
 40
1.0
  9
$DISPSILH
 70
0
  9
$DIMSCALE
 40
1.0
  9
$DIMASZ
 40
2.5
  9
$DIMEXO
 40
0.625
  9
$DIMDLI
 40
3.75
  9
$DIMRND
 40
0.0
  9
$DIMDLE
 40
0.0
  9
$DIMEXE
 40
1.25
  9
$DIMTP
 40
0.0
  9
$DIMTM
 40
0.0
  9
$DIMTXT
 40
2.5
  9
$DIMCEN
 40
2.5
  9
$DIMTSZ
 40
0.0
  9
$DIMTOL
 70
0
  9
$DIMLIM
 70
0
  9
$DIMTIH
 70
0
  9
$DIMTOH
 70
0
  9
$DIMSE1
 70
0
  9
$DIMSE2
 70
0
  9
$DIMTAD
 70
1
  9
$DIMZIN
 70
8
  9
$DIMBLK
  1

  9
$DIMASO
 70
1
  9
$DIMSHO
 70
1
  9
$DIMPOST
  1

  9
$DIMAPOST
  1

  9
$DIMALT
 70
0
  9
$DIMALTD
 70
3
  9
$DIMALTF
 40
0.03937007874
  9
$DIMLFAC
 40
1.0
  9
$DIMTOFL
 70
1
  9
$DIMTVP
 40
0.0
  9
$DIMTIX
 70
0
  9
$DIMSOXD
 70
0
  9
$DIMSAH
 70
0
  9
$DIMBLK1
  1

  9
$DIMBLK2
  1

  9
$DIMSTYLE
  2
ISO-25
  9
$DIMCLRD
 70
0
  9
$DIMCLRE
 70
0
  9
$DIMCLRT
 70
0
  9
$DIMTFAC
 40
1.0
  9
$DIMGAP
 40
0.625
  9
$DIMJUST
 70
0
  9
$DIMSD1
 70
0
  9
$DIMSD2
 70
0
  9
$DIMTOLJ
 70
0
  9
$DIMTZIN
 70
8
  9
$DIMALTZ
 70
0
  9
$DIMALTTZ
 70
0
  9
$DIMUPT
 70
0
  9
$DIMDEC
 70
2
  9
$DIMTDEC
 70
2
  9
$DIMALTU
 70
2
  9
$DIMALTTD
 70
3
  9
$DIMTXSTY
  7
Standard
  9
$DIMAUNIT
 70
0
  9
$DIMADEC
 70
0
  9
$DIMALTRND
 40
0.0
  9
$DIMAZIN
 70
0
  9
$DIMDSEP
 70
44
  9
$DIMATFIT
 70
3
  9
$DIMFRAC
 70
0
  9
$DIMLDRBLK
  1

  9
$DIMLUNIT
 70
2
  9
$DIMLWD
 70
-2
  9
$DIMLWE
 70
-2
  9
$DIMTMOVE
 70
0
  9
$DIMFXL
 40
1.0
  9
$DIMFXLON
 70
0
  9
$DIMJOGANG
 40
0.785398163397
  9
$DIMTFILL
 70
0
  9
$DIMTFILLCLR
 70
0
  9
$DIMARCSYM
 70
0
  9
$DIMLTYPE
  6

  9
$DIMLTEX1
  6

  9
$DIMLTEX2
  6

  9
$DIMTXTDIRECTION
 70
0
  9
$LUNITS
 70
2
  9
$LUPREC
 70
4
  9
$SKETCHINC
 40
1.0
  9
$FILLETRAD
 40
10.0
  9
$AUNITS
 70
0
  9
$AUPREC
 70
2
  9
$MENU
  1
.
  9
$ELEVATION
 40
0.0
  9
$PELEVATION
 40
0.0
  9
$THICKNESS
 40
0.0
  9
$LIMCHECK
 70
0
  9
$CHAMFERA
 40
0.0
  9
$CHAMFERB
 40
0.0
  9
$CHAMFERC
 40
0.0
  9
$CHAMFERD
 40
0.0
  9
$SKPOLY
 70
0
  9
$TDCREATE
 40
2459229.6093055555
  9
$TDUCREATE
 40
2458532.153996898
  9
$TDUPDATE
 40
2459229.6093055555
  9
$TDUUPDATE
 40
2458532.1544311
  9
$TDINDWG
 40
0.0
  9
$TDUSRTIMER
 40
0.0
  9
$USRTIMER
 70
1
  9
$ANGBASE
 50
0.0
  9
$ANGDIR
 70
0
  9
$PDMODE
 70
0
  9
$PDSIZE
 40
0.0
  9
$PLINEWID
 40
0.0
  9
$SPLFRAME
 70
0
  9
$SPLINETYPE
 70
6
  9
$SPLINESEGS
 70
8
  9
$HANDSEED
  5
A2
  9
$SURFTAB1
 70
6
  9
$SURFTAB2
 70
6
  9
$SURFTYPE
 70
6
  9
$SURFU
 70
6
  9
$SURFV
 70
6
  9
$UCSBASE
  2

  9
$UCSNAME
  2

  9
$UCSORG
 10
0.0
 20
0.0
 30
0.0
  9
$UCSXDIR
 10
1.0
 20
0.0
 30
0.0
  9
$UCSYDIR
 10
0.0
 20
1.0
 30
0.0
  9
$UCSORTHOREF
  2

  9
$UCSORTHOVIEW
 70
0
  9
$UCSORGTOP
 10
0.0
 20
0.0
 30
0.0
  9
$UCSORGBOTTOM
 10
0.0
 20
0.0
 30
0.0
  9
$UCSORGLEFT
 10
0.0
 20
0.0
 30
0.0
  9
$UCSORGRIGHT
 10
0.0
 20
0.0
 30
0.0
  9
$UCSORGFRONT
 10
0.0
 20
0.0
 30
0.0
  9
$UCSORGBACK
 10
0.0
 20
0.0
 30
0.0
  9
$PUCSBASE
  2

  9
$PUCSNAME
  2

  9
$PUCSORG
 10
0.0
 20
0.0
 30
0.0
  9
$PUCSXDIR
 10
1.0
 20
0.0
 30
0.0
  9
$PUCSYDIR
 10
0.0
 20
1.0
 30
0.0
  9
$PUCSORTHOREF
  2

  9
$PUCSORTHOVIEW
 70
0
  9
$PUCSORGTOP
 10
0.0
 20
0.0
 30
0.0
  9
$PUCSORGBOTTOM
 10
0.0
 20
0.0
 30
0.0
  9
$PUCSORGLEFT
 10
0.0
 20
0.0
 30
0.0
  9
$PUCSORGRIGHT
 10
0.0
 20
0.0
 30
0.0
  9
$PUCSORGFRONT
 10
0.0
 20
0.0
 30
0.0
  9
$PUCSORGBACK
 10
0.0
 20
0.0
 30
0.0
  9
$USERI1
 70
0
  9
$USERI2
 70
0
  9
$USERI3
 70
0
  9
$USERI4
 70
0
  9
$USERI5
 70
0
  9
$USERR1
 40
0.0
  9
$USERR2
 40
0.0
  9
$USERR3
 40
0.0
  9
$USERR4
 40
0.0
  9
$USERR5
 40
0.0
  9
$WORLDVIEW
 70
1
  9
$SHADEDGE
 70
3
  9
$SHADEDIF
 70
70
  9
$TILEMODE
 70
1
  9
$MAXACTVP
 70
64
  9
$PINSBASE
 10
0.0
 20
0.0
 30
0.0
  9
$PLIMCHECK
 70
0
  9
$PEXTMIN
 10
1e+20
 20
1e+20
 30
1e+20
  9
$PEXTMAX
 10
-1e+20
 20
-1e+20
 30
-1e+20
  9
$PLIMMIN
 10
0.0
 20
0.0
  9
$PLIMMAX
 10
420.0
 20
297.0
  9
$UNITMODE
 70
0
  9
$VISRETAIN
 70
1
  9
$PLINEGEN
 70
0
  9
$PSLTSCALE
 70
1
  9
$TREEDEPTH
 70
3020
  9
$CMLSTYLE
  2
Standard
  9
$CMLJUST
 70
0
  9
$CMLSCALE
 40
20.0
  9
$PROXYGRAPHICS
 70
1
  9
$MEASUREMENT
 70
1
  9
$CELWEIGHT
370
-1
  9
$ENDCAPS
280
0
  9
$JOINSTYLE
280
0
  9
$LWDISPLAY
290
0
  9
$INSUNITS
 70
13
  9
$HYPERLINKBASE
  1

  9
$STYLESHEET
  1

  9
$XEDIT
290
1
  9
$CEPSNTYPE
380
0
  9
$PSTYLEMODE
290
1
  9
$FINGERPRINTGUID
  2
4EDA5724-56A8-11EB-92AE-645D8679ECA2
  9
$VERSIONGUID
  2
4EDB0595-56A8-11EB-AB00-645D8679ECA2
  9
$EXTNAMES
290
1
  9
$PSVPSCALE
 40
0.0
  9
$OLESTARTUP
290
0
  9
$SORTENTS
280
127
  9
$INDEXCTL
280
0
  9
$HIDETEXT
280
1
  9
$XCLIPFRAME
280
2
  9
$HALOGAP
280
0
  9
$OBSCOLOR
 70
257
  9
$OBSLTYPE
280
0
  9
$INTERSECTIONDISPLAY
280
0
  9
$INTERSECTIONCOLOR
 70
257
  9
$DIMASSOC
280
2
  9
$PROJECTNAME
  1

  9
$CAMERADISPLAY
290
0
  9
$LENSLENGTH
 40
50.0
  9
$CAMERAHEIGHT
 40
0.0
  9
$STEPSPERSEC
 40
24.0
  9
$STEPSIZE
 40
100.0
  9
$3DDWFPREC
 40
2.0
  9
$PSOLWIDTH
 40
0.005
  9
$PSOLHEIGHT
 40
0.08
  9
$LOFTANG1
 40
1.570796326795
  9
$LOFTANG2
 40
1.570796326795
  9
$LOFTMAG1
 40
0.0
  9
$LOFTMAG2
 40
0.0
  9
$LOFTPARAM
 70
7
  9
$LOFTNORMALS
280
1
  9
$LATITUDE
 40
37.795
  9
$LONGITUDE
 40
-122.394
  9
$NORTHDIRECTION
 40
0.0
  9
$TIMEZONE
 70
-8000
  9
$LIGHTGLYPHDISPLAY
280
1
  9
$TILEMODELIGHTSYNCH
280
1
  9
$CMATERIAL
347
20
  9
$SOLIDHIST
280
0
  9
$SHOWHIST
280
1
  9
$DWFFRAME
280
2
  9
$DGNFRAME
280
2
  9
$REALWORLDSCALE
290
1
  9
$INTERFERECOLOR
 62
256
  9
$CSHADOW
280
0
  9
$SHADOWPLANELOCATION
 40
0.0
  0
ENDSEC
  0
SECTION
  2
CLASSES
  0
CLASS
  1
ACDBDICTIONARYWDFLT
  2
AcDbDictionaryWithDefault
  3
ObjectDBX Classes
 90
0
 91
0
280
0
281
0
  0
CLASS
  1
SUN
  2
AcDbSun
  3
SCENEOE
 90
1153
 91
0
280
0
281
0
  0
CLASS
  1
VISUALSTYLE
  2
AcDbVisualStyle
  3
ObjectDBX Classes
 90
4095
 91
0
280
0
281
0
  0
CLASS
  1
MATERIAL
  2
AcDbMaterial
  3
ObjectDBX Classes
 90
1153
 91
0
280
0
281
0
  0
CLASS
  1
SCALE
  2
AcDbScale
  3
ObjectDBX Classes
 90
1153
 91
0
280
0
281
0
  0
CLASS
  1
TABLESTYLE
  2
AcDbTableStyle
  3
ObjectDBX Classes
 90
4095
 91
0
280
0
281
0
  0
CLASS
  1
MLEADERSTYLE
  2
AcDbMLeaderStyle
  3
ACDB_MLEADERSTYLE_CLASS
 90
4095
 91
0
280
0
281
0
  0
CLASS
  1
DICTIONARYVAR
  2
AcDbDictionaryVar
  3
ObjectDBX Classes
 90
0
 91
0
280
0
281
0
  0
CLASS
  1
CELLSTYLEMAP
  2
AcDbCellStyleMap
  3
ObjectDBX Classes
 90
1152
 91
0
280
0
281
0
  0
CLASS
  1
MENTALRAYRENDERSETTINGS
  2
AcDbMentalRayRenderSettings
  3
SCENEOE
 90
1024
 91
0
280
0
281
0
  0
CLASS
  1
ACDBDETAILVIEWSTYLE
  2
AcDbDetailViewStyle
  3
ObjectDBX Classes
 90
1025
 91
0
280
0
281
0
  0
CLASS
  1
ACDBSECTIONVIEWSTYLE
  2
AcDbSectionViewStyle
  3
ObjectDBX Classes
 90
1025
 91
0
280
0
281
0
  0
CLASS
  1
RASTERVARIABLES
  2
AcDbRasterVariables
  3
ISM
 90
0
 91
0
280
0
281
0
  0
CLASS
  1
ACDBPLACEHOLDER
  2
AcDbPlaceHolder
  3
ObjectDBX Classes
 90
0
 91
0
280
0
281
0
  0
CLASS
  1
LAYOUT
  2
AcDbLayout
  3
ObjectDBX Classes
 90
0
 91
0
280
0
281
0
  0
ENDSEC
  0
SECTION
  2
TABLES
  0
TABLE
  2
VPORT
  5
8
330
0
100
AcDbSymbolTable
 70
1
  0
VPORT
  5
23
330
8
100
AcDbSymbolTableRecord
100
AcDbViewportTableRecord
  2
*Active
 70
0
 10
0.0
 20
0.0
 11
1.0
 21
1.0
 12
70.0
 22
50.0
 13
0.0
 23
0.0
 14
0.5
 24
0.5
 15
0.5
 25
0.5
 16
0.0
 26
0.0
 36
1.0
 17
0.0
 27
0.0
 37
0.0
 40
1.0
 41
1.34
 42
50.0
 43
0.0
 44
0.0
 50
0.0
 51
0.0
 71
0
 72
1000
 73
1
 74
3
 75
0
 76
0
 77
0
 78
0
281
0
 65
0
146
0.0
  0
ENDTAB
  0
TABLE
  2
LTYPE
  5
2
330
0
100
AcDbSymbolTable
 70
3
  0
LTYPE
  5
24
330
2
100
AcDbSymbolTableRecord
100
AcDbLinetypeTableRecord
  2
ByBlock
 70
0
  3

 72
65
 73
0
 40
0.0
  0
LTYPE
  5
25
330
2
100
AcDbSymbolTableRecord
100
AcDbLinetypeTableRecord
  2
ByLayer
 70
0
  3

 72
65
 73
0
 40
0.0
  0
LTYPE
  5
26
330
2
100
AcDbSymbolTableRecord
100
AcDbLinetypeTableRecord
  2
Continuous
 70
0
  3

 72
65
 73
0
 40
0.0
  0
ENDTAB
  0
TABLE
  2
LAYER
  5
1
330
0
100
AcDbSymbolTable
 70
2
  0
LAYER
  5
27
330
1
100
AcDbSymbolTableRecord
100
AcDbLayerTableRecord
  2
0
 70
0
 62
7
  6
Continuous
370
-3
390
13
347
21
  0
LAYER
  5
28
330
1
100
AcDbSymbolTableRecord
100
AcDbLayerTableRecord
  2
Defpoints
 70
0
 62
7
  6
Continuous
290
0
370
-3
390
13
347
21
  0
ENDTAB
  0
TABLE
  2
STYLE
  5
5
330
0
100
AcDbSymbolTable
 70
1
  0
STYLE
  5
29
330
5
100
AcDbSymbolTableRecord
100
AcDbTextStyleTableRecord
  2
Standard
 70
0
 40
0.0
 41
1.0
 50
0.0
 71
0
 42
2.5
  3
txt
  4

  0
ENDTAB
  0
TABLE
  2
VIEW
  5
7
330
0
100
AcDbSymbolTable
 70
0
  0
ENDTAB
  0
TABLE
  2
UCS
  5
6
330
0
100
AcDbSymbolTable
 70
0
  0
ENDTAB
  0
TABLE
  2
APPID
  5
3
330
0
100
AcDbSymbolTable
 70
2
  0
APPID
  5
2A
330
3
100
AcDbSymbolTableRecord
100
AcDbRegAppTableRecord
  2
ACAD
 70
0
  0
APPID
  5
A1
330
3
100
AcDbSymbolTableRecord
100
AcDbRegAppTableRecord
  2
HATCHBACKGROUNDCOLOR
 70
0
  0
ENDTAB
  0
TABLE
  2
DIMSTYLE
  5
4
330
0
100
AcDbSymbolTable
 70
1
100
AcDbDimStyleTable
  0
DIMSTYLE
105
2B
330
4
100
AcDbSymbolTableRecord
100
AcDbDimStyleTableRecord
  2
Standard
 70
0
 40
1.0
 41
2.5
 42
0.625
 43
3.75
 44
1.25
 45
0.0
 46
0.0
 47
0.0
 48
0.0
 49
2.5
140
2.5
141
2.5
142
0.0
143
0.03937007874
144
1.0
145
0.0
146
1.0
147
0.625
148
0.0
 69
0
 70
0
 71
0
 72
0
 73
0
 74
0
 75
0
 76
0
 77
1
 78
8
 79
0
170
0
171
3
172
1
173
0
174
0
175
0
176
0
177
0
178
0
179
0
271
0
272
2
273
2
274
3
275
0
276
0
277
2
278
44
279
0
280
0
281
0
282
0
283
0
284
8
285
0
286
0
288
0
289
3
290
0
371
-2
372
-2
  0
ENDTAB
  0
TABLE
  2
BLOCK_RECORD
  5
9
330
0
100
AcDbSymbolTable
 70
2
  0
BLOCK_RECORD
  5
17
330
9
100
AcDbSymbolTableRecord
100
AcDbBlockTableRecord
  2
*Model_Space
340
1A
 70
0
280
1
281
0
  0
BLOCK_RECORD
  5
1B
330
9
100
AcDbSymbolTableRecord
100
AcDbBlockTableRecord
  2
*Paper_Space
340
1E
 70
0
280
1
281
0
  0
ENDTAB
  0
ENDSEC
  0
SECTION
  2
BLOCKS
  0
BLOCK
  5
18
330
17
100
AcDbEntity
  8
0
100
AcDbBlockBegin
  2
*Model_Space
 70
0
 10
0.0
 20
0.0
 30
0.0
  3
*Model_Space
  1

  0
ENDBLK
  5
19
330
17
100
AcDbEntity
  8
0
100
AcDbBlockEnd
  0
BLOCK
  5
1C
330
1B
100
AcDbEntity
  8
0
100
AcDbBlockBegin
  2
*Paper_Space
 70
0
 10
0.0
 20
0.0
 30
0.0
  3
*Paper_Space
  1

  0
ENDBLK
  5
1D
330
1B
100
AcDbEntity
  8
0
100
AcDbBlockEnd
  0
ENDSEC
  0
SECTION
  2
ENTITIES
  0
CIRCLE
  5
2D
330
17
100
AcDbEntity
  8
0
100
AcDbCircle
 10
0.0
 20
0.0
 30
0.0
 40
0.015
  0
LINE
  5
2E
330
17
100
AcDbEntity
  8
0
100
AcDbLine
 10
0.025
 20
0.0
 30
0.0
 11
0.05
 21
0.0
 31
0.0
  0
ARC
  5
2F
330
17
100
AcDbEntity
  8
0
100
AcDbCircle
 10
0.08750000000000001
 20
-0.0025
 30
-1.7763568394002505e-17
 40
0.012747548783981962
100
AcDbArc
 50
11.309932474020195
 51
168.6900675259798
  0
ELLIPSE
  5
30
330
17
100
AcDbEntity
  8
0
100
AcDbEllipse
 10
0.135
 20
0.0
 30
0.0
 11
-0.01
 21
0.0
 31
0.0
 40
0.5
 41
0.0
 42
6.283185307179586
  0
SPLINE
  5
31
330
17
100
AcDbEntity
  8
0
100
AcDbSpline
 70
0
 71
5
 72
36
 73
30
 74
0
 40
0.0
 40
0.0
 40
0.0
 40
0.0
 40
0.0
 40
0.0
 40
0.04
 40
0.08
 40
0.12
 40
0.16
 40
0.2
 40
0.24000000000000002
 40
0.28
 40
0.32
 40
0.36
 40
0.39999999999999997
 40
0.43999999999999995
 40
0.4799999999999999
 40
0.5199999999999999
 40
0.5599999999999999
 40
0.6
 40
0.64
 40
0.68
 40
0.7200000000000001
 40
0.7600000000000001
 40
0.8000000000000002
 40
0.8400000000000002
 40
0.8800000000000002
 40
0.9200000000000003
 40
0.9600000000000003
 40
1.0
 40
1.0
 40
1.0
 40
1.0
 40
1.0
 40
1.0
 10
0.17500000000000002
 20
0.0
 30
0.0
 10
0.17520000000001393
 20
0.00335071391643663
 30
0.0
 10
0.17560000000003778
 20
0.009563901637181035
 30
0.0
 10
0.17620000000006167
 20
0.0174189640415945
 30
0.0
 10
0.17700000000007055
 20
0.024955287187341718
 30
0.0
 10
0.17800000000005523
 20
0.029547256424405127
 30
0.0
 10
0.17900000000002558
 20
0.0295896791274971
 30
0.0
 10
0.17999999999999722
 20
0.025703146043531584
 30
0.0
 10
0.1809999999999802
 20
0.018983564065984167
 30
0.0
 10
0.18199999999997685
 20
0.011140781671996251
 30
0.0
 10
0.1829999999999834
 20
0.004108303203252231
 30
0.0
 10
0.1839999999999934
 20
-0.0003448351215325841
 30
0.0
 10
0.18500000000000139
 20
-0.0010037634448106238
 30
0.0
 10
0.1860000000000036
 20
0.0023974425608999663
 30
0.0
 10
0.18700000000000092
 20
0.008772290730697014
 30
0.0
 10
0.18799999999999684
 20
0.016227709269300988
 30
0.0
 10
0.18899999999999526
 20
0.022602557439098718
 30
0.0
 10
0.18999999999999864
 20
0.026003763444810545
 30
0.0
 10
0.19100000000000739
 20
0.02534483512153404
 30
0.0
 10
0.1920000000000174
 20
0.020891696796750448
 30
0.0
 10
0.193000000000023
 20
0.013859218328006797
 30
0.0
 10
0.19400000000001885
 20
0.006016435934018065
 30
0.0
 10
0.19500000000000256
 20
-0.0007031460435313976
 30
0.0
 10
0.19599999999997583
 20
-0.0045896791274998815
 30
0.0
 10
0.19699999999994877
 20
-0.004547256424410755
 30
0.0
 10
0.19799999999993445
 20
4.47128126510269e-05
 30
0.0
 10
0.19879999999994352
 20
0.007581035958399195
 30
0.0
 10
0.19939999999996547
 20
0.015436098362815117
 30
0.0
 10
0.1997999999999873
 20
0.02164928608356196
 30
0.0
 10
0.2
 20
0.025
 30
0.0
  0
LWPOLYLINE
  5
32
330
17
100
AcDbEntity
  8
0
100
AcDbPolyline
 90
6
 70
1
 10
0.22690598923241495
 20
-4.440892098500626e-18
 10
0.2384529946162075
 20
0.02
 10
0.2615470053837925
 20
0.020000000000000007
 10
0.27309401076758505
 20
-4.440892098500626e-18
 10
0.2615470053837925
 20
-0.020000000000000018
 10
0.2384529946162075
 20
-0.020000000000000018
  0
LWPOLYLINE
  5
33
330
17
100
AcDbEntity
  8
0
100
AcDbPolyline
 90
4
 70
1
 10
0.35000000000000003
 20
0.0
 10
0.3
 20
0.0
 10
0.3
 20
0.05
 10
0.35000000000000003
 20
0.05
  0
SPLINE
  5
34
330
17
100
AcDbEntity
  8
0
100
AcDbSpline
 70
0
 71
2
 72
6
 73
3
 74
0
 40
0.0
 40
0.0
 40
0.0
 40
8.48528137423857
 40
8.48528137423857
 40
8.48528137423857
 10
0.4
 20
0.0
 30
0.0
 10
0.43
 20
0.04
 30
0.0
 10
0.46
 20
0.0
 30
0.0
  0
LWPOLYLINE
  5
35
330
17
100
AcDbEntity
  8
0
100
AcDbPolyline
 90
4
 70
1
 10
0.52
 20
0.01
 10
0.58
 20
0.01
 42
-0.0009999999999999998
 10
0.58
 20
-0.01
 10
0.52
 20
-0.01
 42
-0.0009999999999999998
  0
LWPOLYLINE
  5
36
330
17
100
AcDbEntity
  8
0
100
AcDbPolyline
 90
8
 70
1
 10
0.6536221009492874
 20
0.008819918036460877
 10
0.6536221009492874
 20
0.0
 10
0.6549454295635223
 20
0.0
 10
0.6549454295635223
 20
0.008819918036460877
 10
0.6582537513971329
 20
0.008819918036460877
 10
0.6582537513971329
 20
0.01
 10
0.6503274215757847
 20
0.01
 10
0.6503274215757847
 20
0.008819918036460877
  0
LINE
  5
37
330
17
100
AcDbEntity
  8
0
100
AcDbLine
 10
0.6594542972743511
 20
0.0
 30
0.0
 11
0.6594542972743511
 21
0.01
 31
0.0
  0
LINE
  5
38
330
17
100
AcDbEntity
  8
0
100
AcDbLine
 10
0.6594542972743511
 20
0.01
 30
0.0
 11
0.660682128071785
 21
0.01
 31
0.0
  0
LINE
  5
39
330
17
100
AcDbEntity
  8
0
100
AcDbLine
 10
0.660682128071785
 20
0.01
 30
0.0
 11
0.660682128071785
 21
0.006412005424499512
 31
0.0
  0
SPLINE
  5
3A
330
17
100
AcDbEntity
  8
0
100
AcDbSpline
 70
0
 71
3
 72
9
 73
5
 74
0
 40
0.0
 40
0.0
 40
0.0
 40
0.0
 40
0.12258681159048643
 40
0.2448619966436904
 40
0.2448619966436904
 40
0.2448619966436904
 40
0.2448619966436904
 10
0.660682128071785
 20
0.006412005424499512
 30
0.0
 10
0.6609871020495502
 20
0.00670247814501555
 30
0.0
 10
0.6615962747342062
 20
0.007282685178653757
 30
0.0
 10
0.6624333107108299
 20
0.007366205565263852
 30
0.0
 10
0.6628512960672379
 20
0.007407912611961365
 30
0.0
  0
SPLINE
  5
3B
330
17
100
AcDbEntity
  8
0
100
AcDbSpline
 70
0
 71
3
 72
9
 73
5
 74
0
 40
0.0
 40
0.0
 40
0.0
 40
0.0
 40
0.07562157937975604
 40
0.14449224529675136
 40
0.14449224529675136
 40
0.14449224529675136
 40
0.14449224529675136
 10
0.6628512960672379
 20
0.007407912611961365
 30
0.0
 10
0.6631056747154517
 20
0.007397347894469045
 30
0.0
 10
0.6635917230410412
 20
0.007377161596273323
 30
0.0
 10
0.664037285877655
 20
0.007183181454859105
 30
0.0
 10
0.6642496585845947
 20
0.007090722918510437
 30
0.0
  0
SPLINE
  5
3C
330
17
100
AcDbEntity
  8
0
100
AcDbSpline
 70
0
 71
3
 72
9
 73
5
 74
0
 40
0.0
 40
0.0
 40
0.0
 40
0.0
 40
0.06338761427592153
 40
0.12376571081045813
 40
0.12376571081045813
 40
0.12376571081045813
 40
0.12376571081045813
 10
0.6642496585845947
 20
0.007090722918510437
 30
0.0
 10
0.6644323016401269
 20
0.006977270919678058
 30
0.0
 10
0.6647889162224984
 20
0.006755753397071272
 30
0.0
 10
0.6649972665358673
 20
0.00639175970357769
 30
0.0
 10
0.6650989085435868
 20
0.00621418833732605
 30
0.0
  0
SPLINE
  5
3D
330
17
100
AcDbEntity
  8
0
100
AcDbSpline
 70
0
 71
3
 72
9
 73
5
 74
0
 40
0.0
 40
0.0
 40
0.0
 40
0.0
 40
0.07118776714115972
 40
0.16519808403287772
 40
0.16519808403287772
 40
0.16519808403287772
 40
0.16519808403287772
 10
0.6650989085435868
 20
0.00621418833732605
 30
0.0
 10
0.6651731587209264
 20
0.005987448469092629
 30
0.0
 10
0.6653454634233804
 20
0.005461276722031733
 30
0.0
 10
0.6653513542914941
 20
0.00490645781411618
 30
0.0
 10
0.665354706645012
 20
0.004590723514556885
 30
0.0
  0
LINE
  5
3E
330
17
100
AcDbEntity
  8
0
100
AcDbLine
 10
0.665354706645012
 20
0.004590723514556885
 30
0.0
 11
0.665354706645012
 21
0.0
 31
0.0
  0
LINE
  5
3F
330
17
100
AcDbEntity
  8
0
100
AcDbLine
 10
0.665354706645012
 20
0.0
 30
0.0
 11
0.6641268759965897
 21
0.0
 31
0.0
  0
LINE
  5
40
330
17
100
AcDbEntity
  8
0
100
AcDbLine
 10
0.6641268759965897
 20
0.0
 30
0.0
 11
0.6641268759965897
 21
0.004590723514556885
 31
0.0
  0
SPLINE
  5
41
330
17
100
AcDbEntity
  8
0
100
AcDbSpline
 70
0
 71
3
 72
9
 73
5
 74
0
 40
0.0
 40
0.0
 40
0.0
 40
0.0
 40
0.08017626260871877
 40
0.14233991388320605
 40
0.14233991388320605
 40
0.14233991388320605
 40
0.14233991388320605
 10
0.6641268759965897
 20
0.004590723514556885
 30
0.0
 10
0.6641204943576475
 20
0.004864613324462127
 30
0.0
 10
0.6641091647956563
 20
0.005350860134763815
 30
0.0
 10
0.6638437460992332
 20
0.0057547259871719054
 30
0.0
 10
0.6637278306484222
 20
0.005931105017662049
 30
0.0
  0
SPLINE
  5
42
330
17
100
AcDbEntity
  8
0
100
AcDbSpline
 70
0
 71
3
 72
9
 73
5
 74
0
 40
0.0
 40
0.0
 40
0.0
 40
0.0
 40
0.05753943623401481
 40
0.12310066172088216
 40
0.12310066172088216
 40
0.12310066172088216
 40
0.12310066172088216
 10
0.6637278306484222
 20
0.005931105017662049
 30
0.0
 10
0.6635739641054477
 20
0.006053322315262071
 30
0.0
 10
0.663244779905939
 20
0.006314795683668255
 30
0.0
 10
0.6628233530175046
 20
0.006338166794202725
 30
0.0
 10
0.6625989085435867
 20
0.006350613832473755
 30
0.0
  0
SPLINE
  5
43
330
17
100
AcDbEntity
  8
0
100
AcDbSpline
 70
0
 71
3
 72
9
 73
5
 74
0
 40
0.0
 40
0.0
 40
0.0
 40
0.0
 40
0.053421057240275495
 40
0.10747527851959959
 40
0.10747527851959959
 40
0.10747527851959959
 40
0.10747527851959959
 10
0.6625989085435867
 20
0.006350613832473755
 30
0.0
 10
0.6624192413080578
 20
0.006338543109219108
 30
0.0
 10
0.6620577773615008
 20
0.006314258596505496
 30
0.0
 10
0.661734763812071
 20
0.006150095582648483
 30
0.0
 10
0.661572305560112
 20
0.006067530512809754
 30
0.0
  0
SPLINE
  5
44
330
17
100
AcDbEntity
  8
0
100
AcDbSpline
 70
0
 71
3
 72
9
 73
5
 74
0
 40
0.0
 40
0.0
 40
0.0
 40
0.0
 40
0.05298648236995341
 40
0.10429670469930226
 40
0.10429670469930226
 40
0.10429670469930226
 40
0.10429670469930226
 10
0.661572305560112
 20
0.006067530512809754
 30
0.0
 10
0.6614240884092815
 20
0.005966120511449091
 30
0.0
 10
0.6611323430485757
 20
0.005766508676649
 30
0.0
 10
0.660967743608689
 20
0.00545391904766742
 30
0.0
 10
0.6608867666125298
 20
0.005300136208534241
 30
0.0
  0
SPLINE
  5
45
330
17
100
AcDbEntity
  8
0
100
AcDbSpline
 70
0
 71
3
 72
9
 73
5
 74
0
 40
0.0
 40
0.0
 40
0.0
 40
0.0
 40
0.059648147368968236
 40
0.1358773301312744
 40
0.1358773301312744
 40
0.1358773301312744
 40
0.1358773301312744
 10
0.6608867666125298
 20
0.005300136208534241
 30
0.0
 10
0.6608273067303451
 20
0.005109374630100662
 30
0.0
 10
0.660691858264675
 20
0.004674823430901684
 30
0.0
 10
0.660685625016042
 20
0.004218928853426053
 30
0.0
 10
0.660682128071785
 20
0.003963165283203125
 30
0.0
  0
LINE
  5
46
330
17
100
AcDbEntity
  8
0
100
AcDbLine
 10
0.6606821280717851
 20
0.003963165283203125
 30
0.0
 11
0.660682128071785
 21
0.0
 31
0.0
  0
LINE
  5
47
330
17
100
AcDbEntity
  8
0
100
AcDbLine
 10
0.660682128071785
 20
0.0
 30
0.0
 11
0.6594542972743511
 21
0.0
 31
0.0
  0
LWPOLYLINE
  5
48
330
17
100
AcDbEntity
  8
0
100
AcDbPolyline
 90
4
 70
1
 10
0.6672305589914322
 20
0.01
 10
0.6672305589914322
 20
0.008587994575500489
 10
0.6684583899378777
 20
0.008587994575500489
 10
0.6684583899378777
 20
0.01
  0
LWPOLYLINE
  5
49
330
17
100
AcDbEntity
  8
0
100
AcDbPolyline
 90
4
 70
1
 10
0.6672305589914322
 20
0.00724420189857483
 10
0.6672305589914322
 20
0.0
 10
0.6684583899378777
 20
0.0
 10
0.6684583899378777
 20
0.00724420189857483
  0
LINE
  5
4A
330
17
100
AcDbEntity
  8
0
100
AcDbLine
 10
0.6698362889513374
 20
0.0021623468399047854
 30
0.0
 11
0.6710504771769047
 21
0.0023533427715301514
 31
0.0
  0
SPLINE
  5
4B
330
17
100
AcDbEntity
  8
0
100
AcDbSpline
 70
0
 71
3
 72
9
 73
5
 74
0
 40
0.0
 40
0.0
 40
0.0
 40
0.0
 40
0.0673043930089189
 40
0.12781423788693538
 40
0.12781423788693538
 40
0.12781423788693538
 40
0.12781423788693538
 10
0.6710504771769047
 20
0.0023533427715301514
 30
0.0
 10
0.6710952753762559
 20
0.002128177351462497
 30
0.0
 10
0.6711803492838094
 20
0.0017005775280657454
 30
0.0
 10
0.6714787740669266
 20
0.0013843569976755888
 30
0.0
 10
0.6716200543940067
 20
0.001234651803970337
 30
0.0
  0
SPLINE
  5
4C
330
17
100
AcDbEntity
  8
0
100
AcDbSpline
 70
0
 71
3
 72
9
 73
5
 74
0
 40
0.0
 40
0.0
 40
0.0
 40
0.0
 40
0.06315518161853473
 40
0.13839351615468004
 40
0.13839351615468004
 40
0.13839351615468004
 40
0.13839351615468004
 10
0.6716200543940067
 20
0.001234651803970337
 30
0.0
 10
0.6718017624954137
 20
0.0011214751685586898
 30
0.0
 10
0.6721999439656117
 20
0.0008734683998381132
 30
0.0
 10
0.6726705063511247
 20
0.0008555695729012803
 30
0.0
 10
0.6729263299703598
 20
0.0008458387851715088
 30
0.0
  0
SPLINE
  5
4D
330
17
100
AcDbEntity
  8
0
100
AcDbSpline
 70
0
 71
3
 72
9
 73
5
 74
0
 40
0.0
 40
0.0
 40
0.0
 40
0.0
 40
0.0741715042568042
 40
0.13209425904072236
 40
0.13209425904072236
 40
0.13209425904072236
 40
0.13209425904072236
 10
0.6729263299703598
 20
0.0008458387851715088
 30
0.0
 10
0.673178713963387
 20
0.0008516439936623099
 30
0.0
 10
0.673628192194774
 20
0.0008619826637736061
 30
0.0
 10
0.6740127979122474
 20
0.0010902291896880123
 30
0.0
 10
0.6741814458370209
 20
0.0011903142929077148
 30
0.0
  0
SPLINE
  5
4E
330
17
100
AcDbEntity
  8
0
100
AcDbSpline
 70
0
 71
3
 72
9
 73
5
 74
0
 40
0.0
 40
0.0
 40
0.0
 40
0.0
 40
0.04840828095629732
 40
0.09299851037217144
 40
0.09299851037217144
 40
0.09299851037217144
 40
0.09299851037217144
 10
0.6741814458370209
 20
0.0011903142929077148
 30
0.0
 10
0.6743007581413133
 20
0.0013066846206858452
 30
0.0
 10
0.6745299723655964
 20
0.0015302469311231405
 30
0.0
 10
0.6745710346715235
 20
0.0018468385510611962
 30
0.0
 10
0.6745907229185104
 20
0.001998635530471802
 30
0.0
  0
SPLINE
  5
4F
330
17
100
AcDbEntity
  8
0
100
AcDbSpline
 70
0
 71
3
 72
9
 73
5
 74
0
 40
0.0
 40
0.0
 40
0.0
 40
0.0
 40
0.03825892288755304
 40
0.07745794314058461
 40
0.07745794314058461
 40
0.07745794314058461
 40
0.07745794314058461
 10
0.6745907229185104
 20
0.001998635530471802
 30
0.0
 10
0.6745749410611921
 20
0.0021304145110966144
 30
0.0
 10
0.6745429895551235
 20
0.00239721054240051
 30
0.0
 10
0.6743346359853959
 20
0.0025673677751609646
 30
0.0
 10
0.6742291948199273
 20
0.002653478980064392
 30
0.0
  0
SPLINE
  5
50
330
17
100
AcDbEntity
  8
0
100
AcDbSpline
 70
0
 71
3
 72
9
 73
5
 74
0
 40
0.0
 40
0.0
 40
0.0
 40
0.0
 40
0.04776267049116147
 40
0.13246562117119623
 40
0.13246562117119623
 40
0.13246562117119623
 40
0.13246562117119623
 10
0.6742291948199273
 20
0.002653478980064392
 30
0.0
 10
0.674083719590175
 20
0.0027188081134994573
 30
0.0
 10
0.6736802566665995
 20
0.002899992795010369
 30
0.0
 10
0.6732495116989619
 20
0.003003433664109613
 30
0.0
 10
0.6729740789532661
 20
0.0030695772171020507
 30
0.0
  0
SPLINE
  5
51
330
17
100
AcDbEntity
  8
0
100
AcDbSpline
 70
0
 71
3
 72
9
 73
5
 74
0
 40
0.0
 40
0.0
 40
0.0
 40
0.0
 40
0.11868253179711219
 40
0.19649384654460178
 40
0.19649384654460178
 40
0.19649384654460178
 40
0.19649384654460178
 10
0.6729740789532661
 20
0.0030695772171020507
 30
0.0
 10
0.6725897722929353
 20
0.003165843981602064
 30
0.0
 10
0.671953504319901
 20
0.003325225708336271
 30
0.0
 10
0.6713432835426921
 20
0.0035647618798457193
 30
0.0
 10
0.6711016368865967
 20
0.003659617900848389
 30
0.0
  0
SPLINE
  5
52
330
17
100
AcDbEntity
  8
0
100
AcDbSpline
 70
0
 71
3
 72
9
 73
5
 74
0
 40
0.0
 40
0.0
 40
0.0
 40
0.0
 40
0.0546333613941378
 40
0.10605525041118452
 40
0.10605525041118452
 40
0.10605525041118452
 40
0.10605525041118452
 10
0.6711016368865967
 20
0.003659617900848389
 30
0.0
 10
0.6709396749927651
 20
0.003748224122507191
 30
0.0
 10
0.6706252716910267
 20
0.003920228091990599
 30
0.0
 10
0.6704131953205041
 20
0.004208699594094975
 30
0.0
 10
0.670310368090868
 20
0.004348567724227905
 30
0.0
  0
SPLINE
  5
53
330
17
100
AcDbEntity
  8
0
100
AcDbSpline
 70
0
 71
3
 72
9
 73
5
 74
0
 40
0.0
 40
0.0
 40
0.0
 40
0.0
 40
0.050517375102378026
 40
0.10186492129073335
 40
0.10186492129073335
 40
0.10186492129073335
 40
0.10186492129073335
 10
0.670310368090868
 20
0.004348567724227905
 30
0.0
 10
0.6702317826962134
 20
0.004499773811057251
 30
0.0
 10
0.6700733204834626
 20
0.004804670811393002
 30
0.0
 10
0.670051783587961
 20
0.0051476919419973215
 30
0.0
 10
0.6700409273803234
 20
0.005320600271224976
 30
0.0
  0
SPLINE
  5
54
330
17
100
AcDbEntity
  8
0
100
AcDbSpline
 70
0
 71
3
 72
9
 73
5
 74
0
 40
0.0
 40
0.0
 40
0.0
 40
0.0
 40
0.04696865639791024
 40
0.09312665316777272
 40
0.09312665316777272
 40
0.09312665316777272
 40
0.09312665316777272
 10
0.6700409273803234
 20
0.005320600271224976
 30
0.0
 10
0.6700498386644408
 20
0.005478443254025783
 30
0.0
 10
0.6700675074275888
 20
0.005791404914877372
 30
0.0
 10
0.670197960408554
 20
0.006076361088143405
 30
0.0
 10
0.6702626191079617
 20
0.006217598915100098
 30
0.0
  0
SPLINE
  5
55
330
17
100
AcDbEntity
  8
0
100
AcDbSpline
 70
0
 71
3
 72
9
 73
5
 74
0
 40
0.0
 40
0.0
 40
0.0
 40
0.0
 40
0.04595660451363264
 40
0.09196250109867753
 40
0.09196250109867753
 40
0.09196250109867753
 40
0.09196250109867753
 10
0.6702626191079617
 20
0.006217598915100098
 30
0.0
 10
0.6703432295899814
 20
0.006349359459472142
 30
0.0
 10
0.6705045370150999
 20
0.0066130218717589785
 30
0.0
 10
0.6707456709555127
 20
0.0068063981810363786
 30
0.0
 10
0.670866302549839
 20
0.0069031381607055665
 30
0.0
  0
SPLINE
  5
56
330
17
100
AcDbEntity
  8
0
100
AcDbSpline
 70
0
 71
3
 72
9
 73
5
 74
0
 40
0.0
 40
0.0
 40
0.0
 40
0.0
 40
0.03907843423778659
 40
0.08623311229070148
 40
0.08623311229070148
 40
0.08623311229070148
 40
0.08623311229070148
 10
0.670866302549839
 20
0.0069031381607055665
 30
0.0
 10
0.6709770056014753
 20
0.006972778330573428
 30
0.0
 10
0.6712212904319417
 20
0.007126451032801398
 30
0.0
 10
0.6714967244417721
 20
0.0072135999291163475
 30
0.0
 10
0.671647339463234
 20
0.007261255383491517
 30
0.0
  0
SPLINE
  5
57
330
17
100
AcDbEntity
  8
0
100
AcDbSpline
 70
0
 71
3
 72
9
 73
5
 74
0
 40
0.0
 40
0.0
 40
0.0
 40
0.0
 40
0.05241204043725359
 40
0.1073605508866078
 40
0.1073605508866078
 40
0.1073605508866078
 40
0.1073605508866078
 10
0.671647339463234
 20
0.007261255383491517
 30
0.0
 10
0.6718173011341342
 20
0.007304023597496792
 30
0.0
 10
0.6721654497363488
 20
0.007391629784505286
 30
0.0
 10
0.6725243559865919
 20
0.007402400183343696
 30
0.0
 10
0.6727080488204956
 20
0.007407912611961365
 30
0.0
  0
SPLINE
  5
58
330
17
100
AcDbEntity
  8
0
100
AcDbSpline
 70
0
 71
3
 72
9
 73
5
 74
0
 40
0.0
 40
0.0
 40
0.0
 40
0.0
 40
0.080299821178206
 40
0.1523556898345359
 40
0.1523556898345359
 40
0.1523556898345359
 40
0.1523556898345359
 10
0.6727080488204956
 20
0.007407912611961365
 30
0.0
 10
0.6729770681184631
 20
0.0074000855564895895
 30
0.0
 10
0.6734874879440526
 20
0.007385235007406435
 30
0.0
 10
0.67397483303248
 20
0.0072339135659261755
 30
0.0
 10
0.6742053204774857
 20
0.0071623468399047855
 30
0.0
  0
SPLINE
  5
59
330
17
100
AcDbEntity
  8
0
100
AcDbSpline
 70
0
 71
3
 72
9
 73
5
 74
0
 40
0.0
 40
0.0
 40
0.0
 40
0.0
 40
0.06303745508129158
 40
0.11731127866853588
 40
0.11731127866853588
 40
0.11731127866853588
 40
0.11731127866853588
 10
0.6742053204774857
 20
0.0071623468399047855
 30
0.0
 10
0.6744015130611184
 20
0.007079222838161129
 30
0.0
 10
0.6747666230234666
 20
0.006924530950298289
 30
0.0
 10
0.6750334445344477
 20
0.006632417396370468
 30
0.0
 10
0.675156888961792
 20
0.0064972716569900515
 30
0.0
  0
SPLINE
  5
5A
330
17
100
AcDbEntity
  8
0
100
AcDbSpline
 70
0
 71
3
 72
9
 73
5
 74
0
 40
0.0
 40
0.0
 40
0.0
 40
0.0
 40
0.05545840022226322
 40
0.12072701214833834
 40
0.12072701214833834
 40
0.12072701214833834
 40
0.12072701214833834
 10
0.675156888961792
 20
0.0064972716569900515
 30
0.0
 10
0.6752524872638119
 20
0.006337410948156387
 30
0.0
 10
0.6754605945536557
 20
0.0059894112644284705
 30
0.0
 10
0.6755379744707353
 20
0.005590716792325333
 30
0.0
 10
0.6755798083543778
 20
0.005375170707702637
 30
0.0
  0
LINE
  5
5B
330
17
100
AcDbEntity
  8
0
100
AcDbLine
 10
0.6755798083543777
 20
0.005375170707702637
 30
0.0
 11
0.6743792632222175
 21
0.0052114599943161016
 31
0.0
  0
SPLINE
  5
5C
330
17
100
AcDbEntity
  8
0
100
AcDbSpline
 70
0
 71
3
 72
9
 73
5
 74
0
 40
0.0
 40
0.0
 40
0.0
 40
0.0
 40
0.05228585680510963
 40
0.10124972275332689
 40
0.10124972275332689
 40
0.10124972275332689
 40
0.10124972275332689
 10
0.6743792632222175
 20
0.0052114599943161016
 30
0.0
 10
0.6743413074603863
 20
0.00538582127557997
 30
0.0
 10
0.674267807462545
 20
0.00572346576427383
 30
0.0
 10
0.6740233853146727
 20
0.005966873310384019
 30
0.0
 10
0.6739051839709282
 20
0.006084583997726441
 30
0.0
  0
SPLINE
  5
5D
330
17
100
AcDbEntity
  8
0
100
AcDbSpline
 70
0
 71
3
 72
9
 73
5
 74
0
 40
0.0
 40
0.0
 40
0.0
 40
0.0
 40
0.05285128302645964
 40
0.11685697742957483
 40
0.11685697742957483
 40
0.11685697742957483
 40
0.11685697742957483
 10
0.6739051839709282
 20
0.006084583997726441
 30
0.0
 10
0.673751308848966
 20
0.006175885560050095
 30
0.0
 10
0.6734110828293796
 20
0.006377758135260774
 30
0.0
 10
0.6730141411909237
 20
0.006391071194508112
 30
0.0
 10
0.6727967256307602
 20
0.00639836311340332
 30
0.0
  0
SPLINE
  5
5E
330
17
100
AcDbEntity
  8
0
100
AcDbSpline
 70
0
 71
3
 72
9
 73
5
 74
0
 40
0.0
 40
0.0
 40
0.0
 40
0.0
 40
0.07281258898690209
 40
0.12543439414627333
 40
0.12543439414627333
 40
0.12543439414627333
 40
0.12543439414627333
 10
0.6727967256307602
 20
0.00639836311340332
 30
0.0
 10
0.6725496257806104
 20
0.006396372331474094
 30
0.0
 10
0.6721239463695574
 20
0.00639294280742277
 30
0.0
 10
0.6717473478938762
 20
0.006199741513249436
 30
0.0
 10
0.6715893585979938
 20
0.0061186903715133665
 30
0.0
  0
SPLINE
  5
5F
330
17
100
AcDbEntity
  8
0
100
AcDbSpline
 70
0
 71
3
 72
9
 73
5
 74
0
 40
0.0
 40
0.0
 40
0.0
 40
0.0
 40
0.04070149460918839
 40
0.07697509451196913
 40
0.07697509451196913
 40
0.07697509451196913
 40
0.07697509451196913
 10
0.6715893585979938
 20
0.0061186903715133665
 30
0.0
 10
0.6714840187019637
 20
0.006025494902612252
 30
0.0
 10
0.6712847987831212
 20
0.005849242652034427
 30
0.0
 10
0.671246077563638
 20
0.005587289726019835
 30
0.0
 10
0.6712278306484223
 20
0.005463847517967225
 30
0.0
  0
SPLINE
  5
60
330
17
100
AcDbEntity
  8
0
100
AcDbSpline
 70
0
 71
3
 72
9
 73
5
 74
0
 40
0.0
 40
0.0
 40
0.0
 40
0.0
 40
0.022988955279932097
 40
0.04619451229603905
 40
0.04619451229603905
 40
0.04619451229603905
 40
0.04619451229603905
 10
0.6712278306484223
 20
0.005463847517967225
 30
0.0
 10
0.6712341999038473
 20
0.005386107702312123
 30
0.0
 10
0.6712469984257662
 20
0.0052298956071367385
 30
0.0
 10
0.671334129127818
 20
0.0050995731415102215
 30
0.0
 10
0.6713778987526894
 20
0.005034106373786927
 30
0.0
  0
SPLINE
  5
61
330
17
100
AcDbEntity
  8
0
100
AcDbSpline
 70
0
 71
3
 72
9
 73
5
 74
0
 40
0.0
 40
0.0
 40
0.0
 40
0.0
 40
0.02642147909848569
 40
0.05784983647692006
 40
0.05784983647692006
 40
0.05784983647692006
 40
0.05784983647692006
 10
0.6713778987526894
 20
0.005034106373786927
 30
0.0
 10
0.6714390128406739
 20
0.004969476894167045
 30
0.0
 10
0.6715728221547987
 20
0.004827970628993085
 30
0.0
 10
0.6717514974790965
 20
0.004749380812527288
 30
0.0
 10
0.6718485672771931
 20
0.004706684947013855
 30
0.0
  0
SPLINE
  5
62
330
17
100
AcDbEntity
  8
0
100
AcDbSpline
 70
0
 71
3
 72
9
 73
5
 74
0
 40
0.0
 40
0.0
 40
0.0
 40
0.0
 40
0.03802710617585866
 40
0.11291632542266597
 40
0.11291632542266597
 40
0.11291632542266597
 40
0.11291632542266597
 10
0.6718485672771931
 20
0.004706684947013855
 30
0.0
 10
0.6719694736729263
 20
0.0046685858534949885
 30
0.0
 10
0.6723284887887007
 20
0.004555455771437464
 30
0.0
 10
0.6726920363578583
 20
0.004457724141808933
 30
0.0
 10
0.6729331511259079
 20
0.004392905831336975
 30
0.0
  0
SPLINE
  5
63
330
17
100
AcDbEntity
  8
0
100
AcDbSpline
 70
0
 71
3
 72
9
 73
5
 74
0
 40
0.0
 40
0.0
 40
0.0
 40
0.0
 40
0.1150254167506687
 40
0.19059220039576422
 40
0.19059220039576422
 40
0.19059220039576422
 40
0.19059220039576422
 10
0.6729331511259079
 20
0.004392905831336975
 30
0.0
 10
0.673304013521402
 20
0.00429441447378526
 30
0.0
 10
0.6739185166633856
 20
0.004131218502963984
 30
0.0
 10
0.6745146612024323
 20
0.0039107438945935775
 30
0.0
 10
0.6747510230541229
 20
0.003823329210281372
 30
0.0
  0
SPLINE
  5
64
330
17
100
AcDbEntity
  8
0
100
AcDbSpline
 70
0
 71
3
 72
9
 73
5
 74
0
 40
0.0
 40
0.0
 40
0.0
 40
0.0
 40
0.05340413517412851
 40
0.10443927516964685
 40
0.10443927516964685
 40
0.10443927516964685
 40
0.10443927516964685
 10
0.6747510230541229
 20
0.003823329210281372
 30
0.0
 10
0.6749122845227261
 20
0.0037427117163462186
 30
0.0
 10
0.675227653938199
 20
0.003585052902002952
 30
0.0
 10
0.6754504659186326
 20
0.0033120992254079408
 30
0.0
 10
0.6755593448877335
 20
0.003178718090057373
 30
0.0
  0
SPLINE
  5
65
330
17
100
AcDbEntity
  8
0
100
AcDbSpline
 70
0
 71
3
 72
9
 73
5
 74
0
 40
0.0
 40
0.0
 40
0.0
 40
0.0
 40
0.05226334613133708
 40
0.11036774954961094
 40
0.11036774954961094
 40
0.11036774954961094
 40
0.11036774954961094
 10
0.6755593448877335
 20
0.003178718090057373
 30
0.0
 10
0.6756448301623561
 20
0.003024193681286855
 30
0.0
 10
0.6758253547188211
 20
0.002697874903234865
 30
0.0
 10
0.6758432426358377
 20
0.0023247014406338807
 30
0.0
 10
0.6758526599407196
 20
0.0021282398700714113
 30
0.0
  0
SPLINE
  5
66
330
17
100
AcDbEntity
  8
0
100
AcDbSpline
 70
0
 71
3
 72
9
 73
5
 74
0
 40
0.0
 40
0.0
 40
0.0
 40
0.0
 40
0.06026962630486447
 40
0.12239539859084268
 40
0.12239539859084268
 40
0.12239539859084268
 40
0.12239539859084268
 10
0.6758526599407196
 20
0.0021282398700714113
 30
0.0
 10
0.6758368535951682
 20
0.001925257379891352
 30
0.0
 10
0.6758047541101933
 20
0.0015130410726774991
 30
0.0
 10
0.6755989866807833
 20
0.0011541827702559071
 30
0.0
 10
0.6754945427179336
 20
0.0009720325469970703
 30
0.0
  0
SPLINE
  5
67
330
17
100
AcDbEntity
  8
0
100
AcDbSpline
 70
0
 71
3
 72
9
 73
5
 74
0
 40
0.0
 40
0.0
 40
0.0
 40
0.0
 40
0.06500739963144281
 40
0.13453981565169698
 40
0.13453981565169698
 40
0.13453981565169698
 40
0.13453981565169698
 10
0.6754945427179336
 20
0.0009720325469970703
 30
0.0
 10
0.6753583860300625
 20
0.0007999681011497551
 30
0.0
 10
0.6750765950987252
 20
0.0004438621969641643
 30
0.0
 10
0.6746708265292567
 20
0.00023892821182910362
 30
0.0
 10
0.6744611185789109
 20
0.00013301491737365722
 30
0.0
  0
SPLINE
  5
68
330
17
100
AcDbEntity
  8
0
100
AcDbSpline
 70
0
 71
3
 72
9
 73
5
 74
0
 40
0.0
 40
0.0
 40
0.0
 40
0.0
 40
0.07532698844110736
 40
0.1564988783934563
 40
0.1564988783934563
 40
0.1564988783934563
 40
0.1564988783934563
 10
0.6744611185789109
 20
0.00013301491737365722
 30
0.0
 10
0.674223681330574
 20
4.6503017164936104e-05
 30
0.0
 10
0.6737303831937106
 20
-0.00013323356371452988
 30
0.0
 10
0.673205430439534
 20
-0.00015330222026028963
 30
0.0
 10
0.6729331511259079
 20
-0.0001637113094329834
 30
0.0
  0
SPLINE
  5
69
330
17
100
AcDbEntity
  8
0
100
AcDbSpline
 70
0
 71
3
 72
9
 73
5
 74
0
 40
0.0
 40
0.0
 40
0.0
 40
0.0
 40
0.12526462656851903
 40
0.22617008617105366
 40
0.22617008617105366
 40
0.22617008617105366
 40
0.22617008617105366
 10
0.6729331511259079
 20
-0.0001637113094329834
 30
0.0
 10
0.6725076986860951
 20
-0.0001517048880279126
 30
0.0
 10
0.6717395279932977
 20
-0.00013002683383034564
 30
0.0
 10
0.6710767389821932
 20
0.0002523314075617988
 30
0.0
 10
0.6707810366153717
 20
0.00042291998863220215
 30
0.0
  0
SPLINE
  5
6A
330
17
100
AcDbEntity
  8
0
100
AcDbSpline
 70
0
 71
3
 72
9
 73
5
 74
0
 40
0.0
 40
0.0
 40
0.0
 40
0.0
 40
0.09475037415371089
 40
0.2013910161164693
 40
0.2013910161164693
 40
0.2013910161164693
 40
0.2013910161164693
 10
0.6707810366153717
 20
0.00042291998863220215
 30
0.0
 10
0.6705550025535785
 20
0.0006522879264364035
 30
0.0
 10
0.6700745693121473
 20
0.0011398072895155442
 30
0.0
 10
0.6699187816756318
 20
0.0018083433755668034
 30
0.0
 10
0.6698362889513374
 20
0.0021623468399047854
 30
0.0
  0
LWPOLYLINE
  5
6B
330
17
100
AcDbEntity
  8
0
100
AcDbPolyline
 90
4
 70
1
 10
0.6812005454301834
 20
0.01
 10
0.6812005454301834
 20
0.008587994575500489
 10
0.6824283763766289
 20
0.008587994575500489
 10
0.6824283763766289
 20
0.01
  0
LWPOLYLINE
  5
6C
330
17
100
AcDbEntity
  8
0
100
AcDbPolyline
 90
4
 70
1
 10
0.6812005454301834
 20
0.00724420189857483
 10
0.6812005454301834
 20
0.0
 10
0.6824283763766289
 20
0.0
 10
0.6824283763766289
 20
0.00724420189857483
  0
LINE
  5
6D
330
17
100
AcDbEntity
  8
0
100
AcDbLine
 10
0.6838062753900885
 20
0.0021623468399047854
 30
0.0
 11
0.6850204636156559
 21
0.0023533427715301514
 31
0.0
  0
SPLINE
  5
6E
330
17
100
AcDbEntity
  8
0
100
AcDbSpline
 70
0
 71
3
 72
9
 73
5
 74
0
 40
0.0
 40
0.0
 40
0.0
 40
0.0
 40
0.0673043930089189
 40
0.12781423788693538
 40
0.12781423788693538
 40
0.12781423788693538
 40
0.12781423788693538
 10
0.6850204636156559
 20
0.0023533427715301514
 30
0.0
 10
0.6850652618150072
 20
0.002128177351462497
 30
0.0
 10
0.6851503357225607
 20
0.0017005775280657454
 30
0.0
 10
0.6854487605056778
 20
0.0013843569976755888
 30
0.0
 10
0.685590040832758
 20
0.001234651803970337
 30
0.0
  0
SPLINE
  5
6F
330
17
100
AcDbEntity
  8
0
100
AcDbSpline
 70
0
 71
3
 72
9
 73
5
 74
0
 40
0.0
 40
0.0
 40
0.0
 40
0.0
 40
0.06315518161853473
 40
0.13839351615468004
 40
0.13839351615468004
 40
0.13839351615468004
 40
0.13839351615468004
 10
0.685590040832758
 20
0.001234651803970337
 30
0.0
 10
0.6857717489341649
 20
0.0011214751685586898
 30
0.0
 10
0.6861699304043628
 20
0.0008734683998381132
 30
0.0
 10
0.6866404927898759
 20
0.0008555695729012803
 30
0.0
 10
0.6868963164091111
 20
0.0008458387851715088
 30
0.0
  0
SPLINE
  5
70
330
17
100
AcDbEntity
  8
0
100
AcDbSpline
 70
0
 71
3
 72
9
 73
5
 74
0
 40
0.0
 40
0.0
 40
0.0
 40
0.0
 40
0.0741715042568042
 40
0.13209425904072236
 40
0.13209425904072236
 40
0.13209425904072236
 40
0.13209425904072236
 10
0.6868963164091111
 20
0.0008458387851715088
 30
0.0
 10
0.6871487004021383
 20
0.0008516439936623099
 30
0.0
 10
0.6875981786335252
 20
0.0008619826637736061
 30
0.0
 10
0.6879827843509986
 20
0.0010902291896880123
 30
0.0
 10
0.6881514322757721
 20
0.0011903142929077148
 30
0.0
  0
SPLINE
  5
71
330
17
100
AcDbEntity
  8
0
100
AcDbSpline
 70
0
 71
3
 72
9
 73
5
 74
0
 40
0.0
 40
0.0
 40
0.0
 40
0.0
 40
0.04840828095629732
 40
0.09299851037217144
 40
0.09299851037217144
 40
0.09299851037217144
 40
0.09299851037217144
 10
0.6881514322757721
 20
0.0011903142929077148
 30
0.0
 10
0.6882707445800645
 20
0.0013066846206858452
 30
0.0
 10
0.6884999588043477
 20
0.0015302469311231405
 30
0.0
 10
0.6885410211102747
 20
0.0018468385510611962
 30
0.0
 10
0.6885607093572617
 20
0.001998635530471802
 30
0.0
  0
SPLINE
  5
72
330
17
100
AcDbEntity
  8
0
100
AcDbSpline
 70
0
 71
3
 72
9
 73
5
 74
0
 40
0.0
 40
0.0
 40
0.0
 40
0.0
 40
0.03825892288755304
 40
0.07745794314058461
 40
0.07745794314058461
 40
0.07745794314058461
 40
0.07745794314058461
 10
0.6885607093572617
 20
0.001998635530471802
 30
0.0
 10
0.6885449274999432
 20
0.0021304145110966144
 30
0.0
 10
0.6885129759938746
 20
0.00239721054240051
 30
0.0
 10
0.688304622424147
 20
0.0025673677751609646
 30
0.0
 10
0.6881991812586784
 20
0.002653478980064392
 30
0.0
  0
SPLINE
  5
73
330
17
100
AcDbEntity
  8
0
100
AcDbSpline
 70
0
 71
3
 72
9
 73
5
 74
0
 40
0.0
 40
0.0
 40
0.0
 40
0.0
 40
0.04776267049116147
 40
0.13246562117119623
 40
0.13246562117119623
 40
0.13246562117119623
 40
0.13246562117119623
 10
0.6881991812586784
 20
0.002653478980064392
 30
0.0
 10
0.6880537060289262
 20
0.0027188081134994573
 30
0.0
 10
0.6876502431053507
 20
0.002899992795010369
 30
0.0
 10
0.6872194981377131
 20
0.003003433664109613
 30
0.0
 10
0.6869440653920174
 20
0.0030695772171020507
 30
0.0
  0
SPLINE
  5
74
330
17
100
AcDbEntity
  8
0
100
AcDbSpline
 70
0
 71
3
 72
9
 73
5
 74
0
 40
0.0
 40
0.0
 40
0.0
 40
0.0
 40
0.11868253179711219
 40
0.19649384654460178
 40
0.19649384654460178
 40
0.19649384654460178
 40
0.19649384654460178
 10
0.6869440653920174
 20
0.0030695772171020507
 30
0.0
 10
0.6865597587316864
 20
0.003165843981602064
 30
0.0
 10
0.6859234907586522
 20
0.003325225708336271
 30
0.0
 10
0.6853132699814434
 20
0.0035647618798457193
 30
0.0
 10
0.6850716233253479
 20
0.003659617900848389
 30
0.0
  0
SPLINE
  5
75
330
17
100
AcDbEntity
  8
0
100
AcDbSpline
 70
0
 71
3
 72
9
 73
5
 74
0
 40
0.0
 40
0.0
 40
0.0
 40
0.0
 40
0.0546333613941378
 40
0.10605525041118452
 40
0.10605525041118452
 40
0.10605525041118452
 40
0.10605525041118452
 10
0.6850716233253479
 20
0.003659617900848389
 30
0.0
 10
0.6849096614315163
 20
0.003748224122507191
 30
0.0
 10
0.684595258129778
 20
0.003920228091990599
 30
0.0
 10
0.6843831817592553
 20
0.004208699594094975
 30
0.0
 10
0.6842803545296192
 20
0.004348567724227905
 30
0.0
  0
SPLINE
  5
76
330
17
100
AcDbEntity
  8
0
100
AcDbSpline
 70
0
 71
3
 72
9
 73
5
 74
0
 40
0.0
 40
0.0
 40
0.0
 40
0.0
 40
0.050517375102378026
 40
0.10186492129073335
 40
0.10186492129073335
 40
0.10186492129073335
 40
0.10186492129073335
 10
0.6842803545296192
 20
0.004348567724227905
 30
0.0
 10
0.6842017691349646
 20
0.004499773811057251
 30
0.0
 10
0.6840433069222138
 20
0.004804670811393002
 30
0.0
 10
0.6840217700267123
 20
0.0051476919419973215
 30
0.0
 10
0.6840109138190746
 20
0.005320600271224976
 30
0.0
  0
SPLINE
  5
77
330
17
100
AcDbEntity
  8
0
100
AcDbSpline
 70
0
 71
3
 72
9
 73
5
 74
0
 40
0.0
 40
0.0
 40
0.0
 40
0.0
 40
0.04696865639791024
 40
0.09312665316777272
 40
0.09312665316777272
 40
0.09312665316777272
 40
0.09312665316777272
 10
0.6840109138190746
 20
0.005320600271224976
 30
0.0
 10
0.684019825103192
 20
0.005478443254025783
 30
0.0
 10
0.68403749386634
 20
0.005791404914877372
 30
0.0
 10
0.6841679468473052
 20
0.006076361088143405
 30
0.0
 10
0.6842326055467128
 20
0.006217598915100098
 30
0.0
  0
SPLINE
  5
78
330
17
100
AcDbEntity
  8
0
100
AcDbSpline
 70
0
 71
3
 72
9
 73
5
 74
0
 40
0.0
 40
0.0
 40
0.0
 40
0.0
 40
0.04595660451363264
 40
0.09196250109867753
 40
0.09196250109867753
 40
0.09196250109867753
 40
0.09196250109867753
 10
0.6842326055467128
 20
0.006217598915100098
 30
0.0
 10
0.6843132160287325
 20
0.006349359459472142
 30
0.0
 10
0.6844745234538512
 20
0.0066130218717589785
 30
0.0
 10
0.684715657394264
 20
0.0068063981810363786
 30
0.0
 10
0.6848362889885903
 20
0.0069031381607055665
 30
0.0
  0
SPLINE
  5
79
330
17
100
AcDbEntity
  8
0
100
AcDbSpline
 70
0
 71
3
 72
9
 73
5
 74
0
 40
0.0
 40
0.0
 40
0.0
 40
0.0
 40
0.03907843423778659
 40
0.08623311229070148
 40
0.08623311229070148
 40
0.08623311229070148
 40
0.08623311229070148
 10
0.6848362889885903
 20
0.0069031381607055665
 30
0.0
 10
0.6849469920402266
 20
0.006972778330573428
 30
0.0
 10
0.6851912768706928
 20
0.007126451032801398
 30
0.0
 10
0.6854667108805234
 20
0.0072135999291163475
 30
0.0
 10
0.6856173259019852
 20
0.007261255383491517
 30
0.0
  0
SPLINE
  5
7A
330
17
100
AcDbEntity
  8
0
100
AcDbSpline
 70
0
 71
3
 72
9
 73
5
 74
0
 40
0.0
 40
0.0
 40
0.0
 40
0.0
 40
0.05241204043725359
 40
0.1073605508866078
 40
0.1073605508866078
 40
0.1073605508866078
 40
0.1073605508866078
 10
0.6856173259019852
 20
0.007261255383491517
 30
0.0
 10
0.6857872875728854
 20
0.007304023597496792
 30
0.0
 10
0.6861354361751001
 20
0.007391629784505286
 30
0.0
 10
0.6864943424253431
 20
0.007402400183343696
 30
0.0
 10
0.6866780352592469
 20
0.007407912611961365
 30
0.0
  0
SPLINE
  5
7B
330
17
100
AcDbEntity
  8
0
100
AcDbSpline
 70
0
 71
3
 72
9
 73
5
 74
0
 40
0.0
 40
0.0
 40
0.0
 40
0.0
 40
0.080299821178206
 40
0.1523556898345359
 40
0.1523556898345359
 40
0.1523556898345359
 40
0.1523556898345359
 10
0.6866780352592469
 20
0.007407912611961365
 30
0.0
 10
0.6869470545572143
 20
0.0074000855564895895
 30
0.0
 10
0.6874574743828038
 20
0.007385235007406435
 30
0.0
 10
0.6879448194712312
 20
0.0072339135659261755
 30
0.0
 10
0.6881753069162369
 20
0.0071623468399047855
 30
0.0
  0
SPLINE
  5
7C
330
17
100
AcDbEntity
  8
0
100
AcDbSpline
 70
0
 71
3
 72
9
 73
5
 74
0
 40
0.0
 40
0.0
 40
0.0
 40
0.0
 40
0.06303745508129158
 40
0.11731127866853588
 40
0.11731127866853588
 40
0.11731127866853588
 40
0.11731127866853588
 10
0.6881753069162369
 20
0.0071623468399047855
 30
0.0
 10
0.6883714994998696
 20
0.007079222838161129
 30
0.0
 10
0.6887366094622178
 20
0.006924530950298289
 30
0.0
 10
0.6890034309731989
 20
0.006632417396370468
 30
0.0
 10
0.6891268754005432
 20
0.0064972716569900515
 30
0.0
  0
SPLINE
  5
7D
330
17
100
AcDbEntity
  8
0
100
AcDbSpline
 70
0
 71
3
 72
9
 73
5
 74
0
 40
0.0
 40
0.0
 40
0.0
 40
0.0
 40
0.05545840022226322
 40
0.12072701214833834
 40
0.12072701214833834
 40
0.12072701214833834
 40
0.12072701214833834
 10
0.6891268754005432
 20
0.0064972716569900515
 30
0.0
 10
0.6892224737025631
 20
0.006337410948156387
 30
0.0
 10
0.689430580992407
 20
0.0059894112644284705
 30
0.0
 10
0.6895079609094864
 20
0.005590716792325333
 30
0.0
 10
0.689549794793129
 20
0.005375170707702637
 30
0.0
  0
LINE
  5
7E
330
17
100
AcDbEntity
  8
0
100
AcDbLine
 10
0.6895497947931288
 20
0.005375170707702637
 30
0.0
 11
0.6883492496609688
 21
0.0052114599943161016
 31
0.0
  0
SPLINE
  5
7F
330
17
100
AcDbEntity
  8
0
100
AcDbSpline
 70
0
 71
3
 72
9
 73
5
 74
0
 40
0.0
 40
0.0
 40
0.0
 40
0.0
 40
0.05228585680510963
 40
0.10124972275332689
 40
0.10124972275332689
 40
0.10124972275332689
 40
0.10124972275332689
 10
0.6883492496609688
 20
0.0052114599943161016
 30
0.0
 10
0.6883112938991376
 20
0.00538582127557997
 30
0.0
 10
0.6882377939012962
 20
0.00572346576427383
 30
0.0
 10
0.6879933717534239
 20
0.005966873310384019
 30
0.0
 10
0.6878751704096794
 20
0.006084583997726441
 30
0.0
  0
SPLINE
  5
80
330
17
100
AcDbEntity
  8
0
100
AcDbSpline
 70
0
 71
3
 72
9
 73
5
 74
0
 40
0.0
 40
0.0
 40
0.0
 40
0.0
 40
0.05285128302645964
 40
0.11685697742957483
 40
0.11685697742957483
 40
0.11685697742957483
 40
0.11685697742957483
 10
0.6878751704096794
 20
0.006084583997726441
 30
0.0
 10
0.6877212952877171
 20
0.006175885560050095
 30
0.0
 10
0.6873810692681308
 20
0.006377758135260774
 30
0.0
 10
0.686984127629675
 20
0.006391071194508112
 30
0.0
 10
0.6867667120695115
 20
0.00639836311340332
 30
0.0
  0
SPLINE
  5
81
330
17
100
AcDbEntity
  8
0
100
AcDbSpline
 70
0
 71
3
 72
9
 73
5
 74
0
 40
0.0
 40
0.0
 40
0.0
 40
0.0
 40
0.07281258898690209
 40
0.12543439414627333
 40
0.12543439414627333
 40
0.12543439414627333
 40
0.12543439414627333
 10
0.6867667120695115
 20
0.00639836311340332
 30
0.0
 10
0.6865196122193616
 20
0.006396372331474094
 30
0.0
 10
0.6860939328083087
 20
0.00639294280742277
 30
0.0
 10
0.6857173343326275
 20
0.006199741513249436
 30
0.0
 10
0.6855593450367451
 20
0.0061186903715133665
 30
0.0
  0
SPLINE
  5
82
330
17
100
AcDbEntity
  8
0
100
AcDbSpline
 70
0
 71
3
 72
9
 73
5
 74
0
 40
0.0
 40
0.0
 40
0.0
 40
0.0
 40
0.04070149460918839
 40
0.07697509451196913
 40
0.07697509451196913
 40
0.07697509451196913
 40
0.07697509451196913
 10
0.6855593450367451
 20
0.0061186903715133665
 30
0.0
 10
0.685454005140715
 20
0.006025494902612252
 30
0.0
 10
0.6852547852218724
 20
0.005849242652034427
 30
0.0
 10
0.6852160640023892
 20
0.005587289726019835
 30
0.0
 10
0.6851978170871734
 20
0.005463847517967225
 30
0.0
  0
SPLINE
  5
83
330
17
100
AcDbEntity
  8
0
100
AcDbSpline
 70
0
 71
3
 72
9
 73
5
 74
0
 40
0.0
 40
0.0
 40
0.0
 40
0.0
 40
0.022988955279932097
 40
0.04619451229603905
 40
0.04619451229603905
 40
0.04619451229603905
 40
0.04619451229603905
 10
0.6851978170871734
 20
0.005463847517967225
 30
0.0
 10
0.6852041863425984
 20
0.005386107702312123
 30
0.0
 10
0.6852169848645174
 20
0.0052298956071367385
 30
0.0
 10
0.6853041155665692
 20
0.0050995731415102215
 30
0.0
 10
0.6853478851914406
 20
0.005034106373786927
 30
0.0
  0
SPLINE
  5
84
330
17
100
AcDbEntity
  8
0
100
AcDbSpline
 70
0
 71
3
 72
9
 73
5
 74
0
 40
0.0
 40
0.0
 40
0.0
 40
0.0
 40
0.02642147909848569
 40
0.05784983647692006
 40
0.05784983647692006
 40
0.05784983647692006
 40
0.05784983647692006
 10
0.6853478851914406
 20
0.005034106373786927
 30
0.0
 10
0.6854089992794251
 20
0.004969476894167045
 30
0.0
 10
0.68554280859355
 20
0.004827970628993085
 30
0.0
 10
0.6857214839178477
 20
0.004749380812527288
 30
0.0
 10
0.6858185537159444
 20
0.004706684947013855
 30
0.0
  0
SPLINE
  5
85
330
17
100
AcDbEntity
  8
0
100
AcDbSpline
 70
0
 71
3
 72
9
 73
5
 74
0
 40
0.0
 40
0.0
 40
0.0
 40
0.0
 40
0.03802710617585866
 40
0.11291632542266597
 40
0.11291632542266597
 40
0.11291632542266597
 40
0.11291632542266597
 10
0.6858185537159444
 20
0.004706684947013855
 30
0.0
 10
0.6859394601116775
 20
0.0046685858534949885
 30
0.0
 10
0.6862984752274518
 20
0.004555455771437464
 30
0.0
 10
0.6866620227966096
 20
0.004457724141808933
 30
0.0
 10
0.6869031375646591
 20
0.004392905831336975
 30
0.0
  0
SPLINE
  5
86
330
17
100
AcDbEntity
  8
0
100
AcDbSpline
 70
0
 71
3
 72
9
 73
5
 74
0
 40
0.0
 40
0.0
 40
0.0
 40
0.0
 40
0.1150254167506687
 40
0.19059220039576422
 40
0.19059220039576422
 40
0.19059220039576422
 40
0.19059220039576422
 10
0.6869031375646591
 20
0.004392905831336975
 30
0.0
 10
0.6872739999601533
 20
0.00429441447378526
 30
0.0
 10
0.6878885031021369
 20
0.004131218502963984
 30
0.0
 10
0.6884846476411836
 20
0.0039107438945935775
 30
0.0
 10
0.6887210094928742
 20
0.003823329210281372
 30
0.0
  0
SPLINE
  5
87
330
17
100
AcDbEntity
  8
0
100
AcDbSpline
 70
0
 71
3
 72
9
 73
5
 74
0
 40
0.0
 40
0.0
 40
0.0
 40
0.0
 40
0.05340413517412851
 40
0.10443927516964685
 40
0.10443927516964685
 40
0.10443927516964685
 40
0.10443927516964685
 10
0.6887210094928742
 20
0.003823329210281372
 30
0.0
 10
0.6888822709614772
 20
0.0037427117163462186
 30
0.0
 10
0.6891976403769502
 20
0.003585052902002952
 30
0.0
 10
0.6894204523573838
 20
0.0033120992254079408
 30
0.0
 10
0.6895293313264846
 20
0.003178718090057373
 30
0.0
  0
SPLINE
  5
88
330
17
100
AcDbEntity
  8
0
100
AcDbSpline
 70
0
 71
3
 72
9
 73
5
 74
0
 40
0.0
 40
0.0
 40
0.0
 40
0.0
 40
0.05226334613133708
 40
0.11036774954961094
 40
0.11036774954961094
 40
0.11036774954961094
 40
0.11036774954961094
 10
0.6895293313264846
 20
0.003178718090057373
 30
0.0
 10
0.6896148166011073
 20
0.003024193681286855
 30
0.0
 10
0.6897953411575724
 20
0.002697874903234865
 30
0.0
 10
0.6898132290745889
 20
0.0023247014406338807
 30
0.0
 10
0.6898226463794709
 20
0.0021282398700714113
 30
0.0
  0
SPLINE
  5
89
330
17
100
AcDbEntity
  8
0
100
AcDbSpline
 70
0
 71
3
 72
9
 73
5
 74
0
 40
0.0
 40
0.0
 40
0.0
 40
0.0
 40
0.06026962630486447
 40
0.12239539859084268
 40
0.12239539859084268
 40
0.12239539859084268
 40
0.12239539859084268
 10
0.6898226463794709
 20
0.0021282398700714113
 30
0.0
 10
0.6898068400339195
 20
0.001925257379891352
 30
0.0
 10
0.6897747405489445
 20
0.0015130410726774991
 30
0.0
 10
0.6895689731195346
 20
0.0011541827702559071
 30
0.0
 10
0.6894645291566849
 20
0.0009720325469970703
 30
0.0
  0
SPLINE
  5
8A
330
17
100
AcDbEntity
  8
0
100
AcDbSpline
 70
0
 71
3
 72
9
 73
5
 74
0
 40
0.0
 40
0.0
 40
0.0
 40
0.0
 40
0.06500739963144281
 40
0.13453981565169698
 40
0.13453981565169698
 40
0.13453981565169698
 40
0.13453981565169698
 10
0.6894645291566849
 20
0.0009720325469970703
 30
0.0
 10
0.6893283724688136
 20
0.0007999681011497551
 30
0.0
 10
0.6890465815374764
 20
0.0004438621969641643
 30
0.0
 10
0.6886408129680079
 20
0.00023892821182910362
 30
0.0
 10
0.688431105017662
 20
0.00013301491737365722
 30
0.0
  0
SPLINE
  5
8B
330
17
100
AcDbEntity
  8
0
100
AcDbSpline
 70
0
 71
3
 72
9
 73
5
 74
0
 40
0.0
 40
0.0
 40
0.0
 40
0.0
 40
0.07532698844110736
 40
0.1564988783934563
 40
0.1564988783934563
 40
0.1564988783934563
 40
0.1564988783934563
 10
0.688431105017662
 20
0.00013301491737365722
 30
0.0
 10
0.6881936677693252
 20
4.6503017164936104e-05
 30
0.0
 10
0.6877003696324618
 20
-0.00013323356371452988
 30
0.0
 10
0.6871754168782852
 20
-0.00015330222026028963
 30
0.0
 10
0.6869031375646591
 20
-0.0001637113094329834
 30
0.0
  0
SPLINE
  5
8C
330
17
100
AcDbEntity
  8
0
100
AcDbSpline
 70
0
 71
3
 72
9
 73
5
 74
0
 40
0.0
 40
0.0
 40
0.0
 40
0.0
 40
0.12526462656851903
 40
0.22617008617105366
 40
0.22617008617105366
 40
0.22617008617105366
 40
0.22617008617105366
 10
0.6869031375646591
 20
-0.0001637113094329834
 30
0.0
 10
0.6864776851248463
 20
-0.0001517048880279126
 30
0.0
 10
0.6857095144320489
 20
-0.00013002683383034564
 30
0.0
 10
0.6850467254209445
 20
0.0002523314075617988
 30
0.0
 10
0.6847510230541229
 20
0.00042291998863220215
 30
0.0
  0
SPLINE
  5
8D
330
17
100
AcDbEntity
  8
0
100
AcDbSpline
 70
0
 71
3
 72
9
 73
5
 74
0
 40
0.0
 40
0.0
 40
0.0
 40
0.0
 40
0.09475037415371089
 40
0.2013910161164693
 40
0.2013910161164693
 40
0.2013910161164693
 40
0.2013910161164693
 10
0.6847510230541229
 20
0.00042291998863220215
 30
0.0
 10
0.6845249889923297
 20
0.0006522879264364035
 30
0.0
 10
0.6840445557508985
 20
0.0011398072895155442
 30
0.0
 10
0.683888768114383
 20
0.0018083433755668034
 30
0.0
 10
0.6838062753900885
 20
0.0021623468399047854
 30
0.0
  0
LWPOLYLINE
  5
8E
330
17
100
AcDbEntity
  8
0
100
AcDbPolyline
 90
8
 70
1
 10
0.6978649383783341
 20
0.008819918036460877
 10
0.6978649383783341
 20
0.0
 10
0.699188266992569
 20
0.0
 10
0.699188266992569
 20
0.008819918036460877
 10
0.7024965888261795
 20
0.008819918036460877
 10
0.7024965888261795
 20
0.01
 10
0.6945702590048314
 20
0.01
 10
0.6945702590048314
 20
0.008819918036460877
  0
LWPOLYLINE
  5
8F
330
17
100
AcDbEntity
  8
0
100
AcDbPolyline
 90
12
 70
1
 10
0.7038813093304634
 20
0.01
 10
0.7038813093304634
 20
0.0
 10
0.7113437926769257
 20
0.0
 10
0.7113437926769257
 20
0.0011800813674926758
 10
0.7052046380937099
 20
0.0011800813674926758
 10
0.7052046380937099
 20
0.004583901762962341
 10
0.7107366979122162
 20
0.004583901762962341
 10
0.7107366979122162
 20
0.005757162570953369
 10
0.7052046380937099
 20
0.005757162570953369
 10
0.7052046380937099
 20
0.008819918036460877
 10
0.7111118686199188
 20
0.008819918036460877
 10
0.7111118686199188
 20
0.01
  0
LINE
  5
90
330
17
100
AcDbEntity
  8
0
100
AcDbLine
 10
0.7121555250370876
 20
0.0
 30
0.0
 11
0.7160231921076775
 21
0.0052114599943161016
 31
0.0
  0
LINE
  5
91
330
17
100
AcDbEntity
  8
0
100
AcDbLine
 10
0.7160231921076775
 20
0.0052114599943161016
 30
0.0
 11
0.7126125509664416
 21
0.01
 31
0.0
  0
LINE
  5
92
330
17
100
AcDbEntity
  8
0
100
AcDbLine
 10
0.7126125509664416
 20
0.01
 30
0.0
 11
0.7141882672905923
 21
0.01
 31
0.0
  0
LINE
  5
93
330
17
100
AcDbEntity
  8
0
100
AcDbLine
 10
0.7141882672905923
 20
0.01
 30
0.0
 11
0.7160027283430099
 21
0.007435197830200195
 31
0.0
  0
SPLINE
  5
94
330
17
100
AcDbEntity
  8
0
100
AcDbSpline
 70
0
 71
3
 72
9
 73
5
 74
0
 40
0.0
 40
0.0
 40
0.0
 40
0.0
 40
0.08561524160565004
 40
0.14685974575741564
 40
0.14685974575741564
 40
0.14685974575741564
 40
0.14685974575741564
 10
0.7160027283430099
 20
0.007435197830200195
 30
0.0
 10
0.7161676763651559
 20
0.007202144353498046
 30
0.0
 10
0.7164506192634207
 20
0.006802377049283596
 30
0.0
 10
0.7167025695033304
 20
0.006382476937185131
 30
0.0
 10
0.7168076395988464
 20
0.006207367181777954
 30
0.0
  0
SPLINE
  5
95
330
17
100
AcDbEntity
  8
0
100
AcDbSpline
 70
0
 71
3
 72
9
 73
5
 74
0
 40
0.0
 40
0.0
 40
0.0
 40
0.0
 40
0.06664397513524357
 40
0.13874921505398863
 40
0.13874921505398863
 40
0.13874921505398863
 40
0.13874921505398863
 10
0.7168076395988464
 20
0.006207367181777954
 30
0.0
 10
0.7169269560282353
 20
0.006394861671417759
 30
0.0
 10
0.717175366494255
 20
0.0067852152361875485
 30
0.0
 10
0.7174540711907944
 20
0.007154573032826838
 30
0.0
 10
0.7175989085435868
 20
0.007346521019935608
 30
0.0
  0
LINE
  5
96
330
17
100
AcDbEntity
  8
0
100
AcDbLine
 10
0.7175989085435869
 20
0.007346521019935608
 30
0.0
 11
0.7196111869812012
 21
0.01
 31
0.0
  0
LINE
  5
97
330
17
100
AcDbEntity
  8
0
100
AcDbLine
 10
0.7196111869812012
 20
0.01
 30
0.0
 11
0.7210504776239395
 21
0.01
 31
0.0
  0
LINE
  5
98
330
17
100
AcDbEntity
  8
0
100
AcDbLine
 10
0.7210504776239395
 20
0.01
 30
0.0
 11
0.717537516951561
 21
0.00528649389743805
 31
0.0
  0
LINE
  5
99
330
17
100
AcDbEntity
  8
0
100
AcDbLine
 10
0.717537516951561
 20
0.00528649389743805
 30
0.0
 11
0.721323328614235
 21
0.0
 31
0.0
  0
LINE
  5
9A
330
17
100
AcDbEntity
  8
0
100
AcDbLine
 10
0.721323328614235
 20
0.0
 30
0.0
 11
0.7196862208843231
 21
0.0
 31
0.0
  0
LINE
  5
9B
330
17
100
AcDbEntity
  8
0
100
AcDbLine
 10
0.7196862208843231
 20
0.0
 30
0.0
 11
0.7171691673994064
 21
0.003567531108856201
 31
0.0
  0
SPLINE
  5
9C
330
17
100
AcDbEntity
  8
0
100
AcDbSpline
 70
0
 71
3
 72
9
 73
5
 74
0
 40
0.0
 40
0.0
 40
0.0
 40
0.0
 40
0.038594512629977415
 40
0.07984631515680482
 40
0.07984631515680482
 40
0.07984631515680482
 40
0.07984631515680482
 10
0.7171691673994064
 20
0.003567531108856201
 30
0.0
 10
0.717096943191811
 20
0.0036740051236572404
 30
0.0
 10
0.7169475220319455
 20
0.0038942840483666232
 30
0.0
 10
0.7168058164642414
 20
0.004119605956494076
 30
0.0
 10
0.7167326056957245
 20
0.004236016273498535
 30
0.0
  0
SPLINE
  5
9D
330
17
100
AcDbEntity
  8
0
100
AcDbSpline
 70
0
 71
3
 72
9
 73
5
 74
0
 40
0.0
 40
0.0
 40
0.0
 40
0.0
 40
0.05422917851862115
 40
0.08894575246327228
 40
0.08894575246327228
 40
0.08894575246327228
 40
0.08894575246327228
 10
0.7167326056957245
 20
0.004236016273498535
 30
0.0
 10
0.7166383120822175
 20
0.004081766259765587
 30
0.0
 10
0.7164836533424955
 20
0.0038287680784592614
 30
0.0
 10
0.7163192747613657
 20
0.0035819942022017773
 30
0.0
 10
0.7162551158666611
 20
0.0034856754541397095
 30
0.0
  0
LINE
  5
9E
330
17
100
AcDbEntity
  8
0
100
AcDbLine
 10
0.7162551158666611
 20
0.0034856754541397095
 30
0.0
 11
0.7137448838353158
 21
0.0
 31
0.0
  0
LINE
  5
9F
330
17
100
AcDbEntity
  8
0
100
AcDbLine
 10
0.7137448838353158
 20
0.0
 30
0.0
 11
0.7121555250370876
 21
0.0
 31
0.0
  0
LWPOLYLINE
  5
A0
330
17
100
AcDbEntity
  8
0
100
AcDbPolyline
 90
8
 70
1
 10
0.725034106373787
 20
0.008819918036460877
 10
0.725034106373787
 20
0.0
 10
0.7263574349880219
 20
0.0
 10
0.7263574349880219
 20
0.008819918036460877
 10
0.7296657568216324
 20
0.008819918036460877
 10
0.7296657568216324
 20
0.01
 10
0.7217394270002843
 20
0.01
 10
0.7217394270002843
 20
0.008819918036460877
  0
ENDSEC
  0
SECTION
  2
OBJECTS
  0
DICTIONARY
  5
A
330
0
100
AcDbDictionary
281
1
  3
ACAD_COLOR
350
B
  3
ACAD_GROUP
350
C
  3
ACAD_LAYOUT
350
D
  3
ACAD_MATERIAL
350
E
  3
ACAD_MLEADERSTYLE
350
F
  3
ACAD_MLINESTYLE
350
10
  3
ACAD_PLOTSETTINGS
350
11
  3
ACAD_PLOTSTYLENAME
350
12
  3
ACAD_SCALELIST
350
14
  3
ACAD_TABLESTYLE
350
15
  3
ACAD_VISUALSTYLE
350
16
  0
DICTIONARY
  5
B
330
A
100
AcDbDictionary
281
1
  0
DICTIONARY
  5
C
330
A
100
AcDbDictionary
281
1
  0
DICTIONARY
  5
D
330
A
100
AcDbDictionary
281
1
  3
Model
350
1A
  3
Layout1
350
1E
  0
DICTIONARY
  5
E
330
A
100
AcDbDictionary
281
1
  3
ByBlock
350
1F
  3
ByLayer
350
20
  3
Global
350
21
  0
DICTIONARY
  5
F
330
A
100
AcDbDictionary
281
1
  3
Standard
350
2C
  0
DICTIONARY
  5
10
330
A
100
AcDbDictionary
281
1
  3
Standard
350
22
  0
DICTIONARY
  5
11
330
A
100
AcDbDictionary
281
1
  0
ACDBDICTIONARYWDFLT
  5
12
330
A
100
AcDbDictionary
281
1
  3
Normal
350
13
100
AcDbDictionaryWithDefault
340
13
  0
ACDBPLACEHOLDER
  5
13
330
12
  0
DICTIONARY
  5
14
330
A
100
AcDbDictionary
281
1
  0
DICTIONARY
  5
15
330
A
100
AcDbDictionary
281
1
  0
DICTIONARY
  5
16
330
A
100
AcDbDictionary
281
1
  0
LAYOUT
  5
1A
330
D
100
AcDbPlotSettings
  1

  2
Adobe PDF
  4
A4
  6

 40
3.175
 41
3.175
 42
3.175
 43
3.175
 44
209.91
 45
297.03
 46
0.0
 47
0.0
 48
0.0
 49
0.0
140
0.0
141
0.0
142
1.0
143
1.0
 70
1024
 72
0
 73
1
 74
5
  7

 75
16
 76
0
 77
2
 78
300
147
1.0
148
0.0
149
0.0
100
AcDbLayout
  1
Model
 70
1
 71
0
 10
-3.175
 20
-3.175
 11
293.857
 21
206.735
 12
0.0
 22
0.0
 32
0.0
 14
29.068
 24
20.356
 34
0.0
 15
261.614
 25
183.204
 35
0.0
146
0.0
 13
0.0
 23
0.0
 33
0.0
 16
1.0
 26
0.0
 36
0.0
 17
0.0
 27
1.0
 37
0.0
 76
1
330
17
  0
LAYOUT
  5
1E
330
D
100
AcDbPlotSettings
  1

  2
Adobe PDF
  4
A4
  6

 40
3.175
 41
3.175
 42
3.175
 43
3.175
 44
209.91
 45
297.03
 46
0.0
 47
0.0
 48
0.0
 49
0.0
140
0.0
141
0.0
142
1.0
143
1.0
 70
0
 72
0
 73
1
 74
5
  7

 75
16
 76
0
 77
2
 78
300
147
1.0
148
0.0
149
0.0
100
AcDbLayout
  1
Layout1
 70
1
 71
1
 10
-3.175
 20
-3.175
 11
293.857
 21
206.735
 12
0.0
 22
0.0
 32
0.0
 14
29.068
 24
20.356
 34
0.0
 15
261.614
 25
183.204
 35
0.0
146
0.0
 13
0.0
 23
0.0
 33
0.0
 16
1.0
 26
0.0
 36
0.0
 17
0.0
 27
1.0
 37
0.0
 76
1
330
1B
  0
MATERIAL
  5
1F
102
{ACAD_REACTORS
330
E
102
}
330
E
100
AcDbMaterial
  1
ByBlock
  2

 70
0
 40
1.0
 71
1
 41
1.0
 91
-1023410177
 42
1.0
 72
1
  3

 73
1
 74
1
 75
1
 44
0.5
 73
0
 45
1.0
 46
1.0
 77
1
  4

 78
1
 79
1
170
1
 48
1.0
171
1
  6

172
1
173
1
174
1
140
1.0
141
1.0
175
1
  7

176
1
177
1
178
1
143
1.0
179
1
  8

270
1
271
1
272
1
145
1.0
146
1.0
273
1
  9

274
1
275
1
276
1
 42
1.0
 72
1
  3

 73
1
 74
1
 75
1
 94
63
  0
MATERIAL
  5
20
102
{ACAD_REACTORS
330
E
102
}
330
E
100
AcDbMaterial
  1
ByLayer
  2

 70
0
 40
1.0
 71
1
 41
1.0
 91
-1023410177
 42
1.0
 72
1
  3

 73
1
 74
1
 75
1
 44
0.5
 73
0
 45
1.0
 46
1.0
 77
1
  4

 78
1
 79
1
170
1
 48
1.0
171
1
  6

172
1
173
1
174
1
140
1.0
141
1.0
175
1
  7

176
1
177
1
178
1
143
1.0
179
1
  8

270
1
271
1
272
1
145
1.0
146
1.0
273
1
  9

274
1
275
1
276
1
 42
1.0
 72
1
  3

 73
1
 74
1
 75
1
 94
63
  0
MATERIAL
  5
21
102
{ACAD_REACTORS
330
E
102
}
330
E
100
AcDbMaterial
  1
Global
  2

 70
0
 40
1.0
 71
1
 41
1.0
 91
-1023410177
 42
1.0
 72
1
  3

 73
1
 74
1
 75
1
 44
0.5
 73
0
 45
1.0
 46
1.0
 77
1
  4

 78
1
 79
1
170
1
 48
1.0
171
1
  6

172
1
173
1
174
1
140
1.0
141
1.0
175
1
  7

176
1
177
1
178
1
143
1.0
179
1
  8

270
1
271
1
272
1
145
1.0
146
1.0
273
1
  9

274
1
275
1
276
1
 42
1.0
 72
1
  3

 73
1
 74
1
 75
1
 94
63
  0
MLINESTYLE
  5
22
102
{ACAD_REACTORS
330
10
102
}
330
10
100
AcDbMlineStyle
  2
Standard
 70
0
  3

 62
256
 51
90.0
 52
90.0
 71
2
 49
0.5
 62
256
  6
BYLAYER
 49
-0.5
 62
256
  6
BYLAYER
  0
MLEADERSTYLE
  5
2C
102
{ACAD_REACTORS
330
F
102
}
330
F
100
AcDbMLeaderStyle
179
2
170
2
171
1
172
0
 90
2
 40
0.0
 41
0.0
173
1
 91
-1056964608
 92
-2
290
1
 42
2.0
291
1
 43
8.0
  3
Standard
 44
4.0
300

342
29
174
1
175
1
176
0
178
1
 93
-1056964608
 45
4.0
292
0
297
0
 46
4.0
 94
-1056964608
 47
1.0
 49
1.0
140
1.0
294
1
141
0.0
177
0
142
1.0
295
0
296
0
143
3.75
271
0
272
9
273
9
  0
ENDSEC
  0
EOF
